<?xml version="1.0" encoding="utf-8"?>
<svg xmlns="http://www.w3.org/2000/svg" xmlns:xlink="http://www.w3.org/1999/xlink" width="600" height="400" viewBox="0 0 2400 1600">
<defs>
  <clipPath id="clip540">
    <rect x="0" y="0" width="2400" height="1600"/>
  </clipPath>
</defs>
<path clip-path="url(#clip540)" d="
M0 1600 L2400 1600 L2400 0 L0 0  Z
  " fill="#ffffff" fill-rule="evenodd" fill-opacity="1"/>
<defs>
  <clipPath id="clip541">
    <rect x="480" y="0" width="1681" height="1600"/>
  </clipPath>
</defs>
<path clip-path="url(#clip540)" d="
M102.74 1505.26 L2352.76 1505.26 L2352.76 62.9921 L102.74 62.9921  Z
  " fill="#ffffff" fill-rule="evenodd" fill-opacity="1"/>
<defs>
  <clipPath id="clip542">
    <rect x="102" y="62" width="2251" height="1443"/>
  </clipPath>
</defs>
<polyline clip-path="url(#clip542)" style="stroke:#000000; stroke-width:2; stroke-opacity:0.1; fill:none" points="
  166.42,1505.26 166.42,62.9921 
  "/>
<polyline clip-path="url(#clip542)" style="stroke:#000000; stroke-width:2; stroke-opacity:0.1; fill:none" points="
  613.295,1505.26 613.295,62.9921 
  "/>
<polyline clip-path="url(#clip542)" style="stroke:#000000; stroke-width:2; stroke-opacity:0.1; fill:none" points="
  1060.17,1505.26 1060.17,62.9921 
  "/>
<polyline clip-path="url(#clip542)" style="stroke:#000000; stroke-width:2; stroke-opacity:0.1; fill:none" points="
  1507.04,1505.26 1507.04,62.9921 
  "/>
<polyline clip-path="url(#clip542)" style="stroke:#000000; stroke-width:2; stroke-opacity:0.1; fill:none" points="
  1953.92,1505.26 1953.92,62.9921 
  "/>
<polyline clip-path="url(#clip540)" style="stroke:#000000; stroke-width:4; stroke-opacity:1; fill:none" points="
  102.74,1505.26 2352.76,1505.26 
  "/>
<polyline clip-path="url(#clip540)" style="stroke:#000000; stroke-width:4; stroke-opacity:1; fill:none" points="
  166.42,1505.26 166.42,1487.95 
  "/>
<polyline clip-path="url(#clip540)" style="stroke:#000000; stroke-width:4; stroke-opacity:1; fill:none" points="
  613.295,1505.26 613.295,1487.95 
  "/>
<polyline clip-path="url(#clip540)" style="stroke:#000000; stroke-width:4; stroke-opacity:1; fill:none" points="
  1060.17,1505.26 1060.17,1487.95 
  "/>
<polyline clip-path="url(#clip540)" style="stroke:#000000; stroke-width:4; stroke-opacity:1; fill:none" points="
  1507.04,1505.26 1507.04,1487.95 
  "/>
<polyline clip-path="url(#clip540)" style="stroke:#000000; stroke-width:4; stroke-opacity:1; fill:none" points="
  1953.92,1505.26 1953.92,1487.95 
  "/>
<path clip-path="url(#clip540)" d="M 0 0 M166.42 1534.45 Q162.809 1534.45 160.98 1538.02 Q159.175 1541.56 159.175 1548.69 Q159.175 1555.79 160.98 1559.36 Q162.809 1562.9 166.42 1562.9 Q170.054 1562.9 171.86 1559.36 Q173.688 1555.79 173.688 1548.69 Q173.688 1541.56 171.86 1538.02 Q170.054 1534.45 166.42 1534.45 M166.42 1530.75 Q172.23 1530.75 175.286 1535.35 Q178.364 1539.94 178.364 1548.69 Q178.364 1557.41 175.286 1562.02 Q172.23 1566.6 166.42 1566.6 Q160.61 1566.6 157.531 1562.02 Q154.475 1557.41 154.475 1548.69 Q154.475 1539.94 157.531 1535.35 Q160.61 1530.75 166.42 1530.75 Z" fill="#000000" fill-rule="evenodd" fill-opacity="1" /><path clip-path="url(#clip540)" d="M 0 0 M594.441 1562 L610.76 1562 L610.76 1565.93 L588.816 1565.93 L588.816 1562 Q591.478 1559.24 596.061 1554.61 Q600.668 1549.96 601.848 1548.62 Q604.094 1546.09 604.973 1544.36 Q605.876 1542.6 605.876 1540.91 Q605.876 1538.15 603.931 1536.42 Q602.01 1534.68 598.908 1534.68 Q596.709 1534.68 594.256 1535.45 Q591.825 1536.21 589.047 1537.76 L589.047 1533.04 Q591.871 1531.9 594.325 1531.33 Q596.779 1530.75 598.816 1530.75 Q604.186 1530.75 607.381 1533.43 Q610.575 1536.12 610.575 1540.61 Q610.575 1542.74 609.765 1544.66 Q608.978 1546.56 606.871 1549.15 Q606.293 1549.82 603.191 1553.04 Q600.089 1556.23 594.441 1562 Z" fill="#000000" fill-rule="evenodd" fill-opacity="1" /><path clip-path="url(#clip540)" d="M 0 0 M625.83 1534.45 Q622.218 1534.45 620.39 1538.02 Q618.584 1541.56 618.584 1548.69 Q618.584 1555.79 620.39 1559.36 Q622.218 1562.9 625.83 1562.9 Q629.464 1562.9 631.269 1559.36 Q633.098 1555.79 633.098 1548.69 Q633.098 1541.56 631.269 1538.02 Q629.464 1534.45 625.83 1534.45 M625.83 1530.75 Q631.64 1530.75 634.695 1535.35 Q637.774 1539.94 637.774 1548.69 Q637.774 1557.41 634.695 1562.02 Q631.64 1566.6 625.83 1566.6 Q620.019 1566.6 616.941 1562.02 Q613.885 1557.41 613.885 1548.69 Q613.885 1539.94 616.941 1535.35 Q620.019 1530.75 625.83 1530.75 Z" fill="#000000" fill-rule="evenodd" fill-opacity="1" /><path clip-path="url(#clip540)" d="M 0 0 M1049.67 1535.45 L1037.87 1553.89 L1049.67 1553.89 L1049.67 1535.45 M1048.45 1531.37 L1054.33 1531.37 L1054.33 1553.89 L1059.26 1553.89 L1059.26 1557.78 L1054.33 1557.78 L1054.33 1565.93 L1049.67 1565.93 L1049.67 1557.78 L1034.07 1557.78 L1034.07 1553.27 L1048.45 1531.37 Z" fill="#000000" fill-rule="evenodd" fill-opacity="1" /><path clip-path="url(#clip540)" d="M 0 0 M1074.32 1534.45 Q1070.71 1534.45 1068.89 1538.02 Q1067.08 1541.56 1067.08 1548.69 Q1067.08 1555.79 1068.89 1559.36 Q1070.71 1562.9 1074.32 1562.9 Q1077.96 1562.9 1079.76 1559.36 Q1081.59 1555.79 1081.59 1548.69 Q1081.59 1541.56 1079.76 1538.02 Q1077.96 1534.45 1074.32 1534.45 M1074.32 1530.75 Q1080.14 1530.75 1083.19 1535.35 Q1086.27 1539.94 1086.27 1548.69 Q1086.27 1557.41 1083.19 1562.02 Q1080.14 1566.6 1074.32 1566.6 Q1068.51 1566.6 1065.44 1562.02 Q1062.38 1557.41 1062.38 1548.69 Q1062.38 1539.94 1065.44 1535.35 Q1068.51 1530.75 1074.32 1530.75 Z" fill="#000000" fill-rule="evenodd" fill-opacity="1" /><path clip-path="url(#clip540)" d="M 0 0 M1493.94 1546.79 Q1490.8 1546.79 1488.94 1548.94 Q1487.11 1551.09 1487.11 1554.84 Q1487.11 1558.57 1488.94 1560.75 Q1490.8 1562.9 1493.94 1562.9 Q1497.09 1562.9 1498.92 1560.75 Q1500.77 1558.57 1500.77 1554.84 Q1500.77 1551.09 1498.92 1548.94 Q1497.09 1546.79 1493.94 1546.79 M1503.23 1532.14 L1503.23 1536.39 Q1501.47 1535.56 1499.66 1535.12 Q1497.88 1534.68 1496.12 1534.68 Q1491.49 1534.68 1489.04 1537.81 Q1486.61 1540.93 1486.26 1547.25 Q1487.62 1545.24 1489.68 1544.17 Q1491.74 1543.08 1494.22 1543.08 Q1499.43 1543.08 1502.44 1546.26 Q1505.47 1549.4 1505.47 1554.84 Q1505.47 1560.17 1502.32 1563.39 Q1499.17 1566.6 1493.94 1566.6 Q1487.95 1566.6 1484.78 1562.02 Q1481.61 1557.41 1481.61 1548.69 Q1481.61 1540.49 1485.49 1535.63 Q1489.38 1530.75 1495.93 1530.75 Q1497.69 1530.75 1499.48 1531.09 Q1501.28 1531.44 1503.23 1532.14 Z" fill="#000000" fill-rule="evenodd" fill-opacity="1" /><path clip-path="url(#clip540)" d="M 0 0 M1520.54 1534.45 Q1516.93 1534.45 1515.1 1538.02 Q1513.29 1541.56 1513.29 1548.69 Q1513.29 1555.79 1515.1 1559.36 Q1516.93 1562.9 1520.54 1562.9 Q1524.17 1562.9 1525.98 1559.36 Q1527.81 1555.79 1527.81 1548.69 Q1527.81 1541.56 1525.98 1538.02 Q1524.17 1534.45 1520.54 1534.45 M1520.54 1530.75 Q1526.35 1530.75 1529.41 1535.35 Q1532.48 1539.94 1532.48 1548.69 Q1532.48 1557.41 1529.41 1562.02 Q1526.35 1566.6 1520.54 1566.6 Q1514.73 1566.6 1511.65 1562.02 Q1508.6 1557.41 1508.6 1548.69 Q1508.6 1539.94 1511.65 1535.35 Q1514.73 1530.75 1520.54 1530.75 Z" fill="#000000" fill-rule="evenodd" fill-opacity="1" /><path clip-path="url(#clip540)" d="M 0 0 M1940.41 1549.52 Q1937.08 1549.52 1935.16 1551.3 Q1933.26 1553.08 1933.26 1556.21 Q1933.26 1559.33 1935.16 1561.12 Q1937.08 1562.9 1940.41 1562.9 Q1943.75 1562.9 1945.67 1561.12 Q1947.59 1559.31 1947.59 1556.21 Q1947.59 1553.08 1945.67 1551.3 Q1943.77 1549.52 1940.41 1549.52 M1935.74 1547.53 Q1932.73 1546.79 1931.04 1544.73 Q1929.37 1542.67 1929.37 1539.71 Q1929.37 1535.56 1932.31 1533.15 Q1935.27 1530.75 1940.41 1530.75 Q1945.58 1530.75 1948.51 1533.15 Q1951.45 1535.56 1951.45 1539.71 Q1951.45 1542.67 1949.76 1544.73 Q1948.1 1546.79 1945.11 1547.53 Q1948.49 1548.32 1950.37 1550.61 Q1952.26 1552.9 1952.26 1556.21 Q1952.26 1561.23 1949.19 1563.92 Q1946.13 1566.6 1940.41 1566.6 Q1934.7 1566.6 1931.62 1563.92 Q1928.56 1561.23 1928.56 1556.21 Q1928.56 1552.9 1930.46 1550.61 Q1932.36 1548.32 1935.74 1547.53 M1934.02 1540.14 Q1934.02 1542.83 1935.69 1544.33 Q1937.38 1545.84 1940.41 1545.84 Q1943.42 1545.84 1945.11 1544.33 Q1946.83 1542.83 1946.83 1540.14 Q1946.83 1537.46 1945.11 1535.96 Q1943.42 1534.45 1940.41 1534.45 Q1937.38 1534.45 1935.69 1535.96 Q1934.02 1537.46 1934.02 1540.14 Z" fill="#000000" fill-rule="evenodd" fill-opacity="1" /><path clip-path="url(#clip540)" d="M 0 0 M1967.33 1534.45 Q1963.72 1534.45 1961.89 1538.02 Q1960.09 1541.56 1960.09 1548.69 Q1960.09 1555.79 1961.89 1559.36 Q1963.72 1562.9 1967.33 1562.9 Q1970.97 1562.9 1972.77 1559.36 Q1974.6 1555.79 1974.6 1548.69 Q1974.6 1541.56 1972.77 1538.02 Q1970.97 1534.45 1967.33 1534.45 M1967.33 1530.75 Q1973.14 1530.75 1976.2 1535.35 Q1979.28 1539.94 1979.28 1548.69 Q1979.28 1557.41 1976.2 1562.02 Q1973.14 1566.6 1967.33 1566.6 Q1961.52 1566.6 1958.45 1562.02 Q1955.39 1557.41 1955.39 1548.69 Q1955.39 1539.94 1958.45 1535.35 Q1961.52 1530.75 1967.33 1530.75 Z" fill="#000000" fill-rule="evenodd" fill-opacity="1" /><path clip-path="url(#clip540)" d="M 0 0 M1112.4 1604.35 L1112.4 1614.48 L1124.46 1614.48 L1124.46 1619.03 L1112.4 1619.03 L1112.4 1638.38 Q1112.4 1642.74 1113.58 1643.98 Q1114.79 1645.22 1118.45 1645.22 L1124.46 1645.22 L1124.46 1650.12 L1118.45 1650.12 Q1111.67 1650.12 1109.09 1647.61 Q1106.51 1645.06 1106.51 1638.38 L1106.51 1619.03 L1102.22 1619.03 L1102.22 1614.48 L1106.51 1614.48 L1106.51 1604.35 L1112.4 1604.35 Z" fill="#000000" fill-rule="evenodd" fill-opacity="1" /><path clip-path="url(#clip540)" d="M 0 0 M1130.61 1614.48 L1136.46 1614.48 L1136.46 1650.12 L1130.61 1650.12 L1130.61 1614.48 M1130.61 1600.6 L1136.46 1600.6 L1136.46 1608.01 L1130.61 1608.01 L1130.61 1600.6 Z" fill="#000000" fill-rule="evenodd" fill-opacity="1" /><path clip-path="url(#clip540)" d="M 0 0 M1170.36 1621.32 Q1172.56 1617.37 1175.61 1615.49 Q1178.67 1613.62 1182.81 1613.62 Q1188.38 1613.62 1191.4 1617.53 Q1194.42 1621.41 1194.42 1628.61 L1194.42 1650.12 L1188.54 1650.12 L1188.54 1628.8 Q1188.54 1623.67 1186.72 1621.19 Q1184.91 1618.71 1181.18 1618.71 Q1176.63 1618.71 1173.99 1621.73 Q1171.35 1624.76 1171.35 1629.98 L1171.35 1650.12 L1165.46 1650.12 L1165.46 1628.8 Q1165.46 1623.64 1163.65 1621.19 Q1161.83 1618.71 1158.04 1618.71 Q1153.56 1618.71 1150.91 1621.76 Q1148.27 1624.79 1148.27 1629.98 L1148.27 1650.12 L1142.38 1650.12 L1142.38 1614.48 L1148.27 1614.48 L1148.27 1620.01 Q1150.28 1616.74 1153.08 1615.18 Q1155.88 1613.62 1159.73 1613.62 Q1163.61 1613.62 1166.32 1615.59 Q1169.06 1617.56 1170.36 1621.32 Z" fill="#000000" fill-rule="evenodd" fill-opacity="1" /><path clip-path="url(#clip540)" d="M 0 0 M1231.06 1630.84 L1231.06 1633.7 L1204.13 1633.7 Q1204.51 1639.75 1207.76 1642.93 Q1211.04 1646.08 1216.86 1646.08 Q1220.24 1646.08 1223.39 1645.25 Q1226.57 1644.43 1229.69 1642.77 L1229.69 1648.31 Q1226.54 1649.65 1223.23 1650.35 Q1219.92 1651.05 1216.51 1651.05 Q1207.98 1651.05 1202.99 1646.08 Q1198.02 1641.12 1198.02 1632.65 Q1198.02 1623.9 1202.73 1618.77 Q1207.47 1613.62 1215.49 1613.62 Q1222.69 1613.62 1226.86 1618.26 Q1231.06 1622.88 1231.06 1630.84 M1225.2 1629.12 Q1225.14 1624.31 1222.5 1621.45 Q1219.89 1618.58 1215.56 1618.58 Q1210.66 1618.58 1207.7 1621.35 Q1204.77 1624.12 1204.32 1629.15 L1225.2 1629.12 Z" fill="#000000" fill-rule="evenodd" fill-opacity="1" /><path clip-path="url(#clip540)" d="M 0 0 M1257.38 1600.6 L1270.88 1600.6 L1270.88 1605.15 L1263.24 1605.15 L1263.24 1654.17 L1270.88 1654.17 L1270.88 1658.72 L1257.38 1658.72 L1257.38 1600.6 Z" fill="#000000" fill-rule="evenodd" fill-opacity="1" /><path clip-path="url(#clip540)" d="M 0 0 M1306.65 1628.61 L1306.65 1650.12 L1300.79 1650.12 L1300.79 1628.8 Q1300.79 1623.74 1298.82 1621.22 Q1296.85 1618.71 1292.9 1618.71 Q1288.16 1618.71 1285.42 1621.73 Q1282.68 1624.76 1282.68 1629.98 L1282.68 1650.12 L1276.8 1650.12 L1276.8 1600.6 L1282.68 1600.6 L1282.68 1620.01 Q1284.78 1616.8 1287.62 1615.21 Q1290.48 1613.62 1294.21 1613.62 Q1300.35 1613.62 1303.5 1617.44 Q1306.65 1621.22 1306.65 1628.61 Z" fill="#000000" fill-rule="evenodd" fill-opacity="1" /><path clip-path="url(#clip540)" d="M 0 0 M1333.45 1619.95 Q1332.46 1619.38 1331.29 1619.12 Q1330.14 1618.84 1328.74 1618.84 Q1323.77 1618.84 1321.1 1622.08 Q1318.46 1625.3 1318.46 1631.35 L1318.46 1650.12 L1312.57 1650.12 L1312.57 1614.48 L1318.46 1614.48 L1318.46 1620.01 Q1320.31 1616.77 1323.27 1615.21 Q1326.23 1613.62 1330.46 1613.62 Q1331.06 1613.62 1331.8 1613.71 Q1332.53 1613.78 1333.42 1613.93 L1333.45 1619.95 Z" fill="#000000" fill-rule="evenodd" fill-opacity="1" /><path clip-path="url(#clip540)" d="M 0 0 M1353.28 1600.6 L1353.28 1658.72 L1339.78 1658.72 L1339.78 1654.17 L1347.39 1654.17 L1347.39 1605.15 L1339.78 1605.15 L1339.78 1600.6 L1353.28 1600.6 Z" fill="#000000" fill-rule="evenodd" fill-opacity="1" /><polyline clip-path="url(#clip542)" style="stroke:#000000; stroke-width:2; stroke-opacity:0.1; fill:none" points="
  102.74,1505.26 2352.76,1505.26 
  "/>
<polyline clip-path="url(#clip542)" style="stroke:#000000; stroke-width:2; stroke-opacity:0.1; fill:none" points="
  102.74,1216.81 2352.76,1216.81 
  "/>
<polyline clip-path="url(#clip542)" style="stroke:#000000; stroke-width:2; stroke-opacity:0.1; fill:none" points="
  102.74,928.353 2352.76,928.353 
  "/>
<polyline clip-path="url(#clip542)" style="stroke:#000000; stroke-width:2; stroke-opacity:0.1; fill:none" points="
  102.74,639.899 2352.76,639.899 
  "/>
<polyline clip-path="url(#clip542)" style="stroke:#000000; stroke-width:2; stroke-opacity:0.1; fill:none" points="
  102.74,351.446 2352.76,351.446 
  "/>
<polyline clip-path="url(#clip542)" style="stroke:#000000; stroke-width:2; stroke-opacity:0.1; fill:none" points="
  102.74,62.9921 2352.76,62.9921 
  "/>
<polyline clip-path="url(#clip540)" style="stroke:#000000; stroke-width:4; stroke-opacity:1; fill:none" points="
  102.74,1505.26 102.74,62.9921 
  "/>
<polyline clip-path="url(#clip540)" style="stroke:#000000; stroke-width:4; stroke-opacity:1; fill:none" points="
  102.74,1505.26 129.74,1505.26 
  "/>
<polyline clip-path="url(#clip540)" style="stroke:#000000; stroke-width:4; stroke-opacity:1; fill:none" points="
  102.74,1216.81 129.74,1216.81 
  "/>
<polyline clip-path="url(#clip540)" style="stroke:#000000; stroke-width:4; stroke-opacity:1; fill:none" points="
  102.74,928.353 129.74,928.353 
  "/>
<polyline clip-path="url(#clip540)" style="stroke:#000000; stroke-width:4; stroke-opacity:1; fill:none" points="
  102.74,639.899 129.74,639.899 
  "/>
<polyline clip-path="url(#clip540)" style="stroke:#000000; stroke-width:4; stroke-opacity:1; fill:none" points="
  102.74,351.446 129.74,351.446 
  "/>
<polyline clip-path="url(#clip540)" style="stroke:#000000; stroke-width:4; stroke-opacity:1; fill:none" points="
  102.74,62.9921 129.74,62.9921 
  "/>
<path clip-path="url(#clip540)" d="M 0 0 M54.7958 1491.06 Q51.1847 1491.06 49.356 1494.62 Q47.5504 1498.16 47.5504 1505.29 Q47.5504 1512.4 49.356 1515.97 Q51.1847 1519.51 54.7958 1519.51 Q58.43 1519.51 60.2356 1515.97 Q62.0643 1512.4 62.0643 1505.29 Q62.0643 1498.16 60.2356 1494.62 Q58.43 1491.06 54.7958 1491.06 M54.7958 1487.35 Q60.6059 1487.35 63.6615 1491.96 Q66.7402 1496.54 66.7402 1505.29 Q66.7402 1514.02 63.6615 1518.63 Q60.6059 1523.21 54.7958 1523.21 Q48.9856 1523.21 45.9069 1518.63 Q42.8514 1514.02 42.8514 1505.29 Q42.8514 1496.54 45.9069 1491.96 Q48.9856 1487.35 54.7958 1487.35 Z" fill="#000000" fill-rule="evenodd" fill-opacity="1" /><path clip-path="url(#clip540)" d="M 0 0 M19.8191 1230.15 L27.458 1230.15 L27.458 1203.79 L19.1478 1205.45 L19.1478 1201.19 L27.4117 1199.53 L32.0876 1199.53 L32.0876 1230.15 L39.7264 1230.15 L39.7264 1234.09 L19.8191 1234.09 L19.8191 1230.15 Z" fill="#000000" fill-rule="evenodd" fill-opacity="1" /><path clip-path="url(#clip540)" d="M 0 0 M54.7958 1202.6 Q51.1847 1202.6 49.356 1206.17 Q47.5504 1209.71 47.5504 1216.84 Q47.5504 1223.95 49.356 1227.51 Q51.1847 1231.05 54.7958 1231.05 Q58.43 1231.05 60.2356 1227.51 Q62.0643 1223.95 62.0643 1216.84 Q62.0643 1209.71 60.2356 1206.17 Q58.43 1202.6 54.7958 1202.6 M54.7958 1198.9 Q60.6059 1198.9 63.6615 1203.51 Q66.7402 1208.09 66.7402 1216.84 Q66.7402 1225.57 63.6615 1230.17 Q60.6059 1234.76 54.7958 1234.76 Q48.9856 1234.76 45.9069 1230.17 Q42.8514 1225.57 42.8514 1216.84 Q42.8514 1208.09 45.9069 1203.51 Q48.9856 1198.9 54.7958 1198.9 Z" fill="#000000" fill-rule="evenodd" fill-opacity="1" /><path clip-path="url(#clip540)" d="M 0 0 M23.4071 941.698 L39.7264 941.698 L39.7264 945.633 L17.7821 945.633 L17.7821 941.698 Q20.4441 938.943 25.0274 934.313 Q29.6339 929.661 30.8144 928.318 Q33.0598 925.795 33.9394 924.059 Q34.8422 922.3 34.8422 920.61 Q34.8422 917.855 32.8977 916.119 Q30.9765 914.383 27.8746 914.383 Q25.6756 914.383 23.2219 915.147 Q20.7913 915.911 18.0136 917.462 L18.0136 912.739 Q20.8376 911.605 23.2913 911.026 Q25.745 910.448 27.782 910.448 Q33.1524 910.448 36.3468 913.133 Q39.5412 915.818 39.5412 920.309 Q39.5412 922.438 38.731 924.36 Q37.944 926.258 35.8375 928.85 Q35.2588 929.522 32.157 932.739 Q29.0552 935.934 23.4071 941.698 Z" fill="#000000" fill-rule="evenodd" fill-opacity="1" /><path clip-path="url(#clip540)" d="M 0 0 M54.7958 914.151 Q51.1847 914.151 49.356 917.716 Q47.5504 921.258 47.5504 928.387 Q47.5504 935.494 49.356 939.059 Q51.1847 942.6 54.7958 942.6 Q58.43 942.6 60.2356 939.059 Q62.0643 935.494 62.0643 928.387 Q62.0643 921.258 60.2356 917.716 Q58.43 914.151 54.7958 914.151 M54.7958 910.448 Q60.6059 910.448 63.6615 915.054 Q66.7402 919.638 66.7402 928.387 Q66.7402 937.114 63.6615 941.721 Q60.6059 946.304 54.7958 946.304 Q48.9856 946.304 45.9069 941.721 Q42.8514 937.114 42.8514 928.387 Q42.8514 919.638 45.9069 915.054 Q48.9856 910.448 54.7958 910.448 Z" fill="#000000" fill-rule="evenodd" fill-opacity="1" /><path clip-path="url(#clip540)" d="M 0 0 M32.5968 638.545 Q35.9533 639.263 37.8283 641.531 Q39.7264 643.8 39.7264 647.133 Q39.7264 652.249 36.2079 655.05 Q32.6894 657.851 26.208 657.851 Q24.0321 657.851 21.7173 657.411 Q19.4256 656.994 16.9719 656.138 L16.9719 651.624 Q18.9163 652.758 21.2311 653.337 Q23.5459 653.915 26.0691 653.915 Q30.4672 653.915 32.7589 652.179 Q35.0737 650.443 35.0737 647.133 Q35.0737 644.077 32.9209 642.364 Q30.7913 640.628 26.9719 640.628 L22.9441 640.628 L22.9441 636.786 L27.157 636.786 Q30.6061 636.786 32.4348 635.42 Q34.2635 634.031 34.2635 631.439 Q34.2635 628.777 32.3653 627.365 Q30.4904 625.929 26.9719 625.929 Q25.0506 625.929 22.8515 626.346 Q20.6524 626.763 18.0136 627.642 L18.0136 623.476 Q20.6756 622.735 22.9904 622.365 Q25.3283 621.994 27.3885 621.994 Q32.7126 621.994 35.8144 624.425 Q38.9162 626.832 38.9162 630.953 Q38.9162 633.823 37.2727 635.814 Q35.6292 637.781 32.5968 638.545 Z" fill="#000000" fill-rule="evenodd" fill-opacity="1" /><path clip-path="url(#clip540)" d="M 0 0 M54.7958 625.698 Q51.1847 625.698 49.356 629.263 Q47.5504 632.804 47.5504 639.934 Q47.5504 647.04 49.356 650.605 Q51.1847 654.147 54.7958 654.147 Q58.43 654.147 60.2356 650.605 Q62.0643 647.04 62.0643 639.934 Q62.0643 632.804 60.2356 629.263 Q58.43 625.698 54.7958 625.698 M54.7958 621.994 Q60.6059 621.994 63.6615 626.601 Q66.7402 631.184 66.7402 639.934 Q66.7402 648.661 63.6615 653.267 Q60.6059 657.851 54.7958 657.851 Q48.9856 657.851 45.9069 653.267 Q42.8514 648.661 42.8514 639.934 Q42.8514 631.184 45.9069 626.601 Q48.9856 621.994 54.7958 621.994 Z" fill="#000000" fill-rule="evenodd" fill-opacity="1" /><path clip-path="url(#clip540)" d="M 0 0 M30.1431 338.24 L18.3376 356.689 L30.1431 356.689 L30.1431 338.24 M28.9163 334.166 L34.7959 334.166 L34.7959 356.689 L39.7264 356.689 L39.7264 360.578 L34.7959 360.578 L34.7959 368.726 L30.1431 368.726 L30.1431 360.578 L14.5414 360.578 L14.5414 356.064 L28.9163 334.166 Z" fill="#000000" fill-rule="evenodd" fill-opacity="1" /><path clip-path="url(#clip540)" d="M 0 0 M54.7958 337.244 Q51.1847 337.244 49.356 340.809 Q47.5504 344.351 47.5504 351.48 Q47.5504 358.587 49.356 362.152 Q51.1847 365.693 54.7958 365.693 Q58.43 365.693 60.2356 362.152 Q62.0643 358.587 62.0643 351.48 Q62.0643 344.351 60.2356 340.809 Q58.43 337.244 54.7958 337.244 M54.7958 333.541 Q60.6059 333.541 63.6615 338.147 Q66.7402 342.73 66.7402 351.48 Q66.7402 360.207 63.6615 364.814 Q60.6059 369.397 54.7958 369.397 Q48.9856 369.397 45.9069 364.814 Q42.8514 360.207 42.8514 351.48 Q42.8514 342.73 45.9069 338.147 Q48.9856 333.541 54.7958 333.541 Z" fill="#000000" fill-rule="evenodd" fill-opacity="1" /><path clip-path="url(#clip540)" d="M 0 0 M18.8237 45.7121 L37.1801 45.7121 L37.1801 49.6473 L23.1061 49.6473 L23.1061 58.1195 Q24.1246 57.7722 25.1432 57.6102 Q26.1617 57.425 27.1802 57.425 Q32.9672 57.425 36.3468 60.5963 Q39.7264 63.7676 39.7264 69.1842 Q39.7264 74.7629 36.2542 77.8647 Q32.782 80.9434 26.4626 80.9434 Q24.2867 80.9434 22.0182 80.5731 Q19.7728 80.2027 17.3654 79.4619 L17.3654 74.7629 Q19.4487 75.8971 21.671 76.4527 Q23.8932 77.0083 26.37 77.0083 Q30.3746 77.0083 32.7126 74.9018 Q35.0505 72.7953 35.0505 69.1842 Q35.0505 65.5731 32.7126 63.4667 Q30.3746 61.3602 26.37 61.3602 Q24.495 61.3602 22.62 61.7769 Q20.7682 62.1935 18.8237 63.0731 L18.8237 45.7121 Z" fill="#000000" fill-rule="evenodd" fill-opacity="1" /><path clip-path="url(#clip540)" d="M 0 0 M54.7958 48.7908 Q51.1847 48.7908 49.356 52.3556 Q47.5504 55.8973 47.5504 63.0268 Q47.5504 70.1333 49.356 73.6981 Q51.1847 77.2397 54.7958 77.2397 Q58.43 77.2397 60.2356 73.6981 Q62.0643 70.1333 62.0643 63.0268 Q62.0643 55.8973 60.2356 52.3556 Q58.43 48.7908 54.7958 48.7908 M54.7958 45.0871 Q60.6059 45.0871 63.6615 49.6936 Q66.7402 54.2769 66.7402 63.0268 Q66.7402 71.7537 63.6615 76.3601 Q60.6059 80.9434 54.7958 80.9434 Q48.9856 80.9434 45.9069 76.3601 Q42.8514 71.7537 42.8514 63.0268 Q42.8514 54.2769 45.9069 49.6936 Q48.9856 45.0871 54.7958 45.0871 Z" fill="#000000" fill-rule="evenodd" fill-opacity="1" /><path clip-path="url(#clip540)" d="M 0 0 M-69.994 925.89 L-64.5195 925.89 Q-65.8881 928.373 -66.5565 930.887 Q-67.2567 933.37 -67.2567 935.916 Q-67.2567 941.614 -63.6283 944.765 Q-60.0316 947.916 -53.5068 947.916 Q-46.9819 947.916 -43.3535 944.765 Q-39.7569 941.614 -39.7569 935.916 Q-39.7569 933.37 -40.4253 930.887 Q-41.1255 928.373 -42.4941 925.89 L-37.0833 925.89 Q-35.9374 928.341 -35.3645 930.983 Q-34.7916 933.593 -34.7916 936.553 Q-34.7916 944.605 -39.8523 949.348 Q-44.9131 954.09 -53.5068 954.09 Q-62.2278 954.09 -67.2249 949.316 Q-72.222 944.51 -72.222 936.171 Q-72.222 933.465 -71.6491 930.887 Q-71.108 928.309 -69.994 925.89 Z" fill="#000000" fill-rule="evenodd" fill-opacity="1" /><path clip-path="url(#clip540)" d="M 0 0 M-55.0027 889.256 L-52.1382 889.256 L-52.1382 916.183 Q-46.0907 915.801 -42.9079 912.554 Q-39.7569 909.276 -39.7569 903.451 Q-39.7569 900.077 -40.5844 896.926 Q-41.4119 893.743 -43.067 890.624 L-37.5289 890.624 Q-36.1921 893.775 -35.4918 897.085 Q-34.7916 900.396 -34.7916 903.801 Q-34.7916 912.331 -39.7569 917.328 Q-44.7221 922.294 -53.1885 922.294 Q-61.9413 922.294 -67.0657 917.583 Q-72.222 912.841 -72.222 904.82 Q-72.222 897.627 -67.575 893.457 Q-62.9599 889.256 -55.0027 889.256 M-56.7215 895.112 Q-61.5276 895.176 -64.3921 897.818 Q-67.2567 900.427 -67.2567 904.756 Q-67.2567 909.658 -64.4876 912.618 Q-61.7185 915.546 -56.6896 915.992 L-56.7215 895.112 Z" fill="#000000" fill-rule="evenodd" fill-opacity="1" /><path clip-path="url(#clip540)" d="M 0 0 M-85.2398 883.113 L-85.2398 877.256 L-35.7146 877.256 L-35.7146 883.113 L-85.2398 883.113 Z" fill="#000000" fill-rule="evenodd" fill-opacity="1" /><path clip-path="url(#clip540)" d="M 0 0 M-85.2398 871.113 L-85.2398 865.257 L-35.7146 865.257 L-35.7146 871.113 L-85.2398 871.113 Z" fill="#000000" fill-rule="evenodd" fill-opacity="1" /><path clip-path="url(#clip540)" d="M 0 0 M-57.2307 808.761 L-35.7146 808.761 L-35.7146 814.618 L-57.0398 814.618 Q-62.1005 814.618 -64.6149 816.591 Q-67.1294 818.564 -67.1294 822.511 Q-67.1294 827.254 -64.1057 829.991 Q-61.082 832.728 -55.8621 832.728 L-35.7146 832.728 L-35.7146 838.616 L-71.3626 838.616 L-71.3626 832.728 L-65.8244 832.728 Q-69.0391 830.627 -70.6305 827.795 Q-72.222 824.93 -72.222 821.206 Q-72.222 815.063 -68.4025 811.912 Q-64.6149 808.761 -57.2307 808.761 Z" fill="#000000" fill-rule="evenodd" fill-opacity="1" /><path clip-path="url(#clip540)" d="M 0 0 M-49.7828 803.223 L-71.3626 803.223 L-71.3626 797.367 L-50.0056 797.367 Q-44.9449 797.367 -42.3986 795.393 Q-39.8842 793.42 -39.8842 789.473 Q-39.8842 784.731 -42.9079 781.993 Q-45.9316 779.224 -51.1515 779.224 L-71.3626 779.224 L-71.3626 773.368 L-35.7146 773.368 L-35.7146 779.224 L-41.1891 779.224 Q-37.9426 781.357 -36.3512 784.19 Q-34.7916 786.991 -34.7916 790.714 Q-34.7916 796.857 -38.611 800.04 Q-42.4305 803.223 -49.7828 803.223 M-72.222 788.486 L-72.222 788.486 Z" fill="#000000" fill-rule="evenodd" fill-opacity="1" /><path clip-path="url(#clip540)" d="M 0 0 M-64.5195 739.471 Q-68.4662 737.274 -70.3441 734.219 Q-72.222 731.163 -72.222 727.026 Q-72.222 721.456 -68.3071 718.432 Q-64.424 715.408 -57.2307 715.408 L-35.7146 715.408 L-35.7146 721.296 L-57.0398 721.296 Q-62.1641 721.296 -64.6468 723.111 Q-67.1294 724.925 -67.1294 728.649 Q-67.1294 733.2 -64.1057 735.842 Q-61.082 738.484 -55.8621 738.484 L-35.7146 738.484 L-35.7146 744.372 L-57.0398 744.372 Q-62.196 744.372 -64.6468 746.186 Q-67.1294 748.001 -67.1294 751.788 Q-67.1294 756.276 -64.0739 758.918 Q-61.0501 761.56 -55.8621 761.56 L-35.7146 761.56 L-35.7146 767.448 L-71.3626 767.448 L-71.3626 761.56 L-65.8244 761.56 Q-69.1028 759.554 -70.6624 756.753 Q-72.222 753.953 -72.222 750.101 Q-72.222 746.218 -70.2486 743.513 Q-68.2752 740.776 -64.5195 739.471 Z" fill="#000000" fill-rule="evenodd" fill-opacity="1" /><path clip-path="url(#clip540)" d="M 0 0 M-53.5068 683.675 Q-59.968 683.675 -63.6283 686.349 Q-67.3204 688.99 -67.3204 693.637 Q-67.3204 698.284 -63.6283 700.958 Q-59.968 703.6 -53.5068 703.6 Q-47.0456 703.6 -43.3535 700.958 Q-39.6932 698.284 -39.6932 693.637 Q-39.6932 688.99 -43.3535 686.349 Q-47.0456 683.675 -53.5068 683.675 M-65.9517 703.6 Q-69.1346 701.754 -70.6624 698.953 Q-72.222 696.12 -72.222 692.205 Q-72.222 685.712 -67.0657 681.67 Q-61.9095 677.596 -53.5068 677.596 Q-45.1041 677.596 -39.9478 681.67 Q-34.7916 685.712 -34.7916 692.205 Q-34.7916 696.12 -36.3194 698.953 Q-37.879 701.754 -41.0618 703.6 L-35.7146 703.6 L-35.7146 709.488 L-85.2398 709.488 L-85.2398 703.6 L-65.9517 703.6 Z" fill="#000000" fill-rule="evenodd" fill-opacity="1" /><path clip-path="url(#clip540)" d="M 0 0 M-55.0027 640.961 L-52.1382 640.961 L-52.1382 667.888 Q-46.0907 667.506 -42.9079 664.26 Q-39.7569 660.981 -39.7569 655.157 Q-39.7569 651.783 -40.5844 648.632 Q-41.4119 645.449 -43.067 642.33 L-37.5289 642.33 Q-36.1921 645.481 -35.4918 648.791 Q-34.7916 652.101 -34.7916 655.507 Q-34.7916 664.037 -39.7569 669.034 Q-44.7221 673.999 -53.1885 673.999 Q-61.9413 673.999 -67.0657 669.289 Q-72.222 664.546 -72.222 656.525 Q-72.222 649.332 -67.575 645.163 Q-62.9599 640.961 -55.0027 640.961 M-56.7215 646.818 Q-61.5276 646.881 -64.3921 649.523 Q-67.2567 652.133 -67.2567 656.462 Q-67.2567 661.363 -64.4876 664.323 Q-61.7185 667.252 -56.6896 667.697 L-56.7215 646.818 Z" fill="#000000" fill-rule="evenodd" fill-opacity="1" /><path clip-path="url(#clip540)" d="M 0 0 M-65.8881 614.162 Q-66.461 615.148 -66.7156 616.326 Q-67.0021 617.472 -67.0021 618.872 Q-67.0021 623.837 -63.7556 626.511 Q-60.5409 629.153 -54.4935 629.153 L-35.7146 629.153 L-35.7146 635.041 L-71.3626 635.041 L-71.3626 629.153 L-65.8244 629.153 Q-69.0709 627.307 -70.6305 624.347 Q-72.222 621.387 -72.222 617.153 Q-72.222 616.549 -72.1265 615.817 Q-72.0628 615.085 -71.9037 614.193 L-65.8881 614.162 Z" fill="#000000" fill-rule="evenodd" fill-opacity="1" /><path clip-path="url(#clip540)" d="M 0 0 M1176.27 16.5416 L1176.27 20.523 Q1174.46 19.5277 1172.63 19.0416 Q1170.83 18.5323 1168.98 18.5323 Q1164.83 18.5323 1162.54 21.1712 Q1160.25 23.7869 1160.25 28.5323 Q1160.25 33.2776 1162.54 35.9165 Q1164.83 38.5322 1168.98 38.5322 Q1170.83 38.5322 1172.63 38.0461 Q1174.46 37.5368 1176.27 36.5415 L1176.27 40.4766 Q1174.48 41.31 1172.56 41.7266 Q1170.67 42.1433 1168.51 42.1433 Q1162.66 42.1433 1159.21 38.4628 Q1155.76 34.7822 1155.76 28.5323 Q1155.76 22.1897 1159.23 18.5555 Q1162.73 14.9212 1168.79 14.9212 Q1170.76 14.9212 1172.63 15.3379 Q1174.51 15.7314 1176.27 16.5416 Z" fill="#000000" fill-rule="evenodd" fill-opacity="1" /><path clip-path="url(#clip540)" d="M 0 0 M1190.78 18.5323 Q1187.35 18.5323 1185.36 21.2175 Q1183.37 23.8795 1183.37 28.5323 Q1183.37 33.185 1185.34 35.8702 Q1187.33 38.5322 1190.78 38.5322 Q1194.18 38.5322 1196.17 35.847 Q1198.16 33.1619 1198.16 28.5323 Q1198.16 23.9258 1196.17 21.2406 Q1194.18 18.5323 1190.78 18.5323 M1190.78 14.9212 Q1196.34 14.9212 1199.51 18.5323 Q1202.68 22.1434 1202.68 28.5323 Q1202.68 34.898 1199.51 38.5322 Q1196.34 42.1433 1190.78 42.1433 Q1185.2 42.1433 1182.03 38.5322 Q1178.88 34.898 1178.88 28.5323 Q1178.88 22.1434 1182.03 18.5323 Q1185.2 14.9212 1190.78 14.9212 Z" fill="#000000" fill-rule="evenodd" fill-opacity="1" /><path clip-path="url(#clip540)" d="M 0 0 M1228.7 25.8239 L1228.7 41.472 L1224.44 41.472 L1224.44 25.9628 Q1224.44 22.2823 1223 20.4536 Q1221.57 18.6249 1218.7 18.6249 Q1215.25 18.6249 1213.26 20.824 Q1211.27 23.023 1211.27 26.8193 L1211.27 41.472 L1206.98 41.472 L1206.98 15.5462 L1211.27 15.5462 L1211.27 19.574 Q1212.79 17.236 1214.85 16.0786 Q1216.94 14.9212 1219.65 14.9212 Q1224.11 14.9212 1226.41 17.699 Q1228.7 20.4536 1228.7 25.8239 Z" fill="#000000" fill-rule="evenodd" fill-opacity="1" /><path clip-path="url(#clip540)" d="M 0 0 M1237.38 8.18514 L1237.38 15.5462 L1246.15 15.5462 L1246.15 18.8564 L1237.38 18.8564 L1237.38 32.9304 Q1237.38 36.1017 1238.23 37.0044 Q1239.11 37.9072 1241.78 37.9072 L1246.15 37.9072 L1246.15 41.472 L1241.78 41.472 Q1236.85 41.472 1234.97 39.6433 Q1233.1 37.7915 1233.1 32.9304 L1233.1 18.8564 L1229.97 18.8564 L1229.97 15.5462 L1233.1 15.5462 L1233.1 8.18514 L1237.38 8.18514 Z" fill="#000000" fill-rule="evenodd" fill-opacity="1" /><path clip-path="url(#clip540)" d="M 0 0 M1265.64 19.5277 Q1264.92 19.111 1264.07 18.9258 Q1263.23 18.7175 1262.22 18.7175 Q1258.6 18.7175 1256.66 21.0786 Q1254.74 23.4165 1254.74 27.8147 L1254.74 41.472 L1250.46 41.472 L1250.46 15.5462 L1254.74 15.5462 L1254.74 19.574 Q1256.08 17.2129 1258.23 16.0786 Q1260.39 14.9212 1263.47 14.9212 Q1263.91 14.9212 1264.44 14.9907 Q1264.97 15.037 1265.62 15.1527 L1265.64 19.5277 Z" fill="#000000" fill-rule="evenodd" fill-opacity="1" /><path clip-path="url(#clip540)" d="M 0 0 M1279.11 18.5323 Q1275.69 18.5323 1273.7 21.2175 Q1271.71 23.8795 1271.71 28.5323 Q1271.71 33.185 1273.67 35.8702 Q1275.66 38.5322 1279.11 38.5322 Q1282.52 38.5322 1284.51 35.847 Q1286.5 33.1619 1286.5 28.5323 Q1286.5 23.9258 1284.51 21.2406 Q1282.52 18.5323 1279.11 18.5323 M1279.11 14.9212 Q1284.67 14.9212 1287.84 18.5323 Q1291.01 22.1434 1291.01 28.5323 Q1291.01 34.898 1287.84 38.5322 Q1284.67 42.1433 1279.11 42.1433 Q1273.53 42.1433 1270.36 38.5322 Q1267.22 34.898 1267.22 28.5323 Q1267.22 22.1434 1270.36 18.5323 Q1273.53 14.9212 1279.11 14.9212 Z" fill="#000000" fill-rule="evenodd" fill-opacity="1" /><path clip-path="url(#clip540)" d="M 0 0 M1295.48 5.45367 L1299.74 5.45367 L1299.74 41.472 L1295.48 41.472 L1295.48 5.45367 Z" fill="#000000" fill-rule="evenodd" fill-opacity="1" /><path clip-path="url(#clip542)" d="
M166.42 1170.84 L177.711 1167.46 L189.001 1164.15 L200.292 1160.93 L211.583 1157.85 L222.873 1155.05 L234.164 1153.15 L245.455 1153.84 L256.746 1156.66 L268.036 1159.76 
  L279.327 1162.64 L290.618 1165.18 L301.909 1167.36 L313.199 1169.18 L324.49 1170.67 L335.781 1171.83 L347.071 1172.69 L358.362 1173.27 L369.653 1173.59 L380.944 1173.67 
  L392.234 1173.52 L403.525 1173.49 L414.816 1172.97 L426.107 1173.24 L437.397 1172.44 L448.688 1170.88 L459.979 1169 L471.269 1167.74 L482.56 1166.35 L493.851 1165.2 
  L505.142 1163.41 L516.432 1161.49 L527.723 1159.62 L539.014 1158.34 L550.305 1156.82 L561.595 1154.31 L572.886 1151.63 L584.177 1149.37 L595.467 1146.05 L606.758 1142.77 
  L618.049 1140.16 L629.34 1137.33 L640.63 1134.77 L651.921 1132.96 L663.212 1131.86 L674.502 1130.06 L685.793 1128.93 L697.084 1128.1 L708.375 1126.99 L719.665 1125.81 
  L730.956 1124.79 L742.247 1123.27 L753.538 1122.02 L764.828 1120.22 L776.119 1119.28 L787.41 1118.38 L798.7 1117.14 L809.991 1116.52 L821.282 1115.04 L832.573 1114.31 
  L843.863 1113.41 L855.154 1112.7 L866.445 1112.34 L877.736 1112.32 L889.026 1111.56 L900.317 1111.03 L911.608 1111.5 L922.898 1111.32 L934.189 1111.02 L945.48 1111.37 
  L956.771 1110.8 L968.061 1111.1 L979.352 1110.81 L990.643 1110.93 L1001.93 1110.19 L1013.22 1109.22 L1024.51 1109.55 L1035.81 1109.37 L1047.1 1108.57 L1058.39 1108.99 
  L1069.68 1109.45 L1080.97 1108.99 L1092.26 1109.11 L1103.55 1108.51 L1114.84 1108.56 L1126.13 1107.83 L1137.42 1107.75 L1148.71 1107.95 L1160 1107.76 L1171.29 1108.5 
  L1182.59 1109.07 L1193.88 1109.4 L1205.17 1109.43 L1216.46 1109.27 L1227.75 1110.16 L1239.04 1110.49 L1250.33 1111.19 L1261.62 1111.95 L1272.91 1112.66 L1284.2 1113.85 
  L1295.49 1114.77 L1306.78 1115.5 L1318.07 1116.87 L1329.36 1116.7 L1340.66 1115.93 L1351.95 1114.86 L1363.24 1113.62 L1374.53 1111.08 L1385.82 1109.37 L1397.11 1106.4 
  L1408.4 1103.1 L1419.69 1099.34 L1430.98 1094.99 L1442.27 1089.71 L1453.56 1083.83 L1464.85 1078.52 L1476.14 1072.45 L1487.43 1065.69 L1498.73 1059.17 L1510.02 1052.49 
  L1521.31 1044.76 L1532.6 1037.64 L1543.89 1030.69 L1555.18 1023.06 L1566.47 1016.38 L1577.76 1010.31 L1589.05 1004.61 L1600.34 999.871 L1611.63 994.968 L1622.92 990.147 
  L1634.21 986.544 L1645.5 983.99 L1656.8 981.167 L1668.09 979.799 L1679.38 978.917 L1690.67 976.992 L1701.96 975.626 L1713.25 974.894 L1724.54 974.899 L1735.83 975.903 
  L1747.12 976 L1758.41 975.392 L1769.7 974.986 L1780.99 973.622 L1792.28 973.188 L1803.58 972.234 L1814.87 972.374 L1826.16 971.429 L1837.45 970.392 L1848.74 969.795 
  L1860.03 969.223 L1871.32 968.053 L1882.61 966.138 L1893.9 964.182 L1905.19 962.265 L1916.48 960.307 L1927.77 957.93 L1939.06 956.973 L1950.35 955.415 L1961.65 953.048 
  L1972.94 951.318 L1984.23 949.576 L1995.52 946.858 L2006.81 944.602 L2018.1 942.269 L2029.39 940.6 L2040.68 937.729 L2051.97 934.45 L2063.26 930.449 L2074.55 926.955 
  L2085.84 922.981 L2097.13 918.475 L2108.42 913.385 L2119.72 907.661 L2131.01 901.253 L2142.3 894.11 L2153.59 886.184 L2164.88 877.427 L2176.17 867.793 L2187.46 857.236 
  L2198.75 845.713 L2210.04 833.185 L2221.33 819.616 L2232.62 804.976 L2243.91 789.242 L2255.2 772.402 L2266.49 754.463 L2277.79 735.457 L2289.08 715.455 L2289.08 466.203 
  L2277.79 465.757 L2266.49 465.449 L2255.2 465.386 L2243.91 465.637 L2232.62 466.244 L2221.33 467.232 L2210.04 468.615 L2198.75 470.398 L2187.46 472.582 L2176.17 475.163 
  L2164.88 478.135 L2153.59 481.489 L2142.3 485.214 L2131.01 489.3 L2119.72 493.732 L2108.42 498.498 L2097.13 503.583 L2085.84 508.974 L2074.55 514.654 L2063.26 520.61 
  L2051.97 526.774 L2040.68 533.975 L2029.39 540.875 L2018.1 546.858 L2006.81 552.768 L1995.52 561.219 L1984.23 569.429 L1972.94 578.258 L1961.65 587.054 L1950.35 593.646 
  L1939.06 602.076 L1927.77 609.353 L1916.48 617.643 L1905.19 625.275 L1893.9 632.944 L1882.61 640.772 L1871.32 649.033 L1860.03 656.919 L1848.74 663.969 L1837.45 669.927 
  L1826.16 676.72 L1814.87 683.113 L1803.58 690.665 L1792.28 697.756 L1780.99 705.442 L1769.7 711.603 L1758.41 718.806 L1747.12 726.126 L1735.83 731.683 L1724.54 737.379 
  L1713.25 744.541 L1701.96 749.922 L1690.67 755.366 L1679.38 760.262 L1668.09 764.837 L1656.8 770.001 L1645.5 776.001 L1634.21 781.088 L1622.92 786.485 L1611.63 792.188 
  L1600.34 797.63 L1589.05 804.318 L1577.76 809.852 L1566.47 816.623 L1555.18 822.327 L1543.89 827.558 L1532.6 832.679 L1521.31 838.243 L1510.02 843.383 L1498.73 847.4 
  L1487.43 850.713 L1476.14 853.067 L1464.85 854.683 L1453.56 853.452 L1442.27 852.679 L1430.98 851.805 L1419.69 850.795 L1408.4 849.512 L1397.11 847.956 L1385.82 846.758 
  L1374.53 846.778 L1363.24 845.763 L1351.95 846.397 L1340.66 846.635 L1329.36 846.371 L1318.07 847.223 L1306.78 849.108 L1295.49 851.658 L1284.2 853.599 L1272.91 856.533 
  L1261.62 860.015 L1250.33 863.965 L1239.04 868.276 L1227.75 872.724 L1216.46 877.11 L1205.17 883.383 L1193.88 889.88 L1182.59 896.938 L1171.29 904.535 L1160 912.845 
  L1148.71 922.113 L1137.42 930.411 L1126.13 938.587 L1114.84 946.742 L1103.55 954.339 L1092.26 963.133 L1080.97 970.886 L1069.68 977.892 L1058.39 984.302 L1047.1 989.183 
  L1035.81 992.461 L1024.51 995.417 L1013.22 997.832 L1001.93 999.123 L990.643 1001.56 L979.352 1003.9 L968.061 1005.55 L956.771 1006.92 L945.48 1008.21 L934.189 1009.54 
  L922.898 1010.86 L911.608 1011.66 L900.317 1012.43 L889.026 1013.01 L877.736 1013.76 L866.445 1015.2 L855.154 1016.36 L843.863 1018.43 L832.573 1019.27 L821.282 1020.9 
  L809.991 1022.21 L798.7 1023.31 L787.41 1024.39 L776.119 1025.63 L764.828 1028.13 L753.538 1031.6 L742.247 1034.13 L730.956 1037.45 L719.665 1041.34 L708.375 1044.69 
  L697.084 1048.12 L685.793 1051.33 L674.502 1055.36 L663.212 1058.78 L651.921 1062.97 L640.63 1066.91 L629.34 1069.64 L618.049 1071.93 L606.758 1073.53 L595.467 1074.52 
  L584.177 1075.83 L572.886 1077.7 L561.595 1079.43 L550.305 1080.74 L539.014 1082.07 L527.723 1083.03 L516.432 1084.39 L505.142 1085.5 L493.851 1087.28 L482.56 1088.78 
  L471.269 1090.95 L459.979 1093.68 L448.688 1096.21 L437.397 1098.57 L426.107 1100.39 L414.816 1102.82 L403.525 1105.31 L392.234 1108.11 L380.944 1110.92 L369.653 1113.77 
  L358.362 1116.65 L347.071 1119.56 L335.781 1122.5 L324.49 1125.45 L313.199 1128.42 L301.909 1131.4 L290.618 1134.38 L279.327 1137.35 L268.036 1140.25 L256.746 1142.95 
  L245.455 1144.92 L234.164 1144.3 L222.873 1140.59 L211.583 1135.46 L200.292 1129.5 L189.001 1122.84 L177.711 1115.5 L166.42 1107.47  Z
  " fill="#009af9" fill-rule="evenodd" fill-opacity="0.5"/>
<polyline clip-path="url(#clip542)" style="stroke:#009af9; stroke-width:16; stroke-opacity:1; fill:none" points="
  166.42,1139.16 177.711,1141.48 189.001,1143.5 200.292,1145.22 211.583,1146.65 222.873,1147.82 234.164,1148.72 245.455,1149.38 256.746,1149.81 268.036,1150.01 
  279.327,1149.99 290.618,1149.78 301.909,1149.38 313.199,1148.8 324.49,1148.06 335.781,1147.16 347.071,1146.13 358.362,1144.96 369.653,1143.68 380.944,1142.3 
  392.234,1140.82 403.525,1139.4 414.816,1137.89 426.107,1136.82 437.397,1135.5 448.688,1133.55 459.979,1131.34 471.269,1129.34 482.56,1127.57 493.851,1126.24 
  505.142,1124.45 516.432,1122.94 527.723,1121.33 539.014,1120.2 550.305,1118.78 561.595,1116.87 572.886,1114.67 584.177,1112.6 595.467,1110.28 606.758,1108.15 
  618.049,1106.04 629.34,1103.49 640.63,1100.84 651.921,1097.96 663.212,1095.32 674.502,1092.71 685.793,1090.13 697.084,1088.11 708.375,1085.84 719.665,1083.58 
  730.956,1081.12 742.247,1078.7 753.538,1076.81 764.828,1074.18 776.119,1072.46 787.41,1071.38 798.7,1070.23 809.991,1069.36 821.282,1067.97 832.573,1066.79 
  843.863,1065.92 855.154,1064.53 866.445,1063.77 877.736,1063.04 889.026,1062.28 900.317,1061.73 911.608,1061.58 922.898,1061.09 934.189,1060.28 945.48,1059.79 
  956.771,1058.86 968.061,1058.33 979.352,1057.35 990.643,1056.24 1001.93,1054.66 1013.22,1053.53 1024.51,1052.48 1035.81,1050.91 1047.1,1048.88 1058.39,1046.65 
  1069.68,1043.67 1080.97,1039.94 1092.26,1036.12 1103.55,1031.42 1114.84,1027.65 1126.13,1023.21 1137.42,1019.08 1148.71,1015.03 1160,1010.3 1171.29,1006.52 
  1182.59,1003.01 1193.88,999.641 1205.17,996.406 1216.46,993.192 1227.75,991.445 1239.04,989.385 1250.33,987.577 1261.62,985.983 1272.91,984.595 1284.2,983.722 
  1295.49,983.214 1306.78,982.304 1318.07,982.045 1329.36,981.536 1340.66,981.283 1351.95,980.628 1363.24,979.693 1374.53,978.93 1385.82,978.065 1397.11,977.178 
  1408.4,976.306 1419.69,975.066 1430.98,973.396 1442.27,971.196 1453.56,968.639 1464.85,966.603 1476.14,962.761 1487.43,958.203 1498.73,953.283 1510.02,947.936 
  1521.31,941.504 1532.6,935.161 1543.89,929.122 1555.18,922.692 1566.47,916.5 1577.76,910.079 1589.05,904.462 1600.34,898.751 1611.63,893.578 1622.92,888.316 
  1634.21,883.816 1645.5,879.995 1656.8,875.584 1668.09,872.318 1679.38,869.589 1690.67,866.179 1701.96,862.774 1713.25,859.717 1724.54,856.139 1735.83,853.793 
  1747.12,851.063 1758.41,847.099 1769.7,843.294 1780.99,839.532 1792.28,835.472 1803.58,831.449 1814.87,827.744 1826.16,824.075 1837.45,820.16 1848.74,816.882 
  1860.03,813.071 1871.32,808.543 1882.61,803.455 1893.9,798.563 1905.19,793.77 1916.48,788.975 1927.77,783.641 1939.06,779.525 1950.35,774.531 1961.65,770.051 
  1972.94,764.788 1984.23,759.502 1995.52,754.038 2006.81,748.685 2018.1,744.564 2029.39,740.738 2040.68,735.852 2051.97,730.612 2063.26,725.529 2074.55,720.805 
  2085.84,715.978 2097.13,711.029 2108.42,705.941 2119.72,700.697 2131.01,695.276 2142.3,689.662 2153.59,683.837 2164.88,677.781 2176.17,671.478 2187.46,664.909 
  2198.75,658.056 2210.04,650.9 2221.33,643.424 2232.62,635.61 2243.91,627.439 2255.2,618.894 2266.49,609.956 2277.79,600.607 2289.08,590.829 
  "/>
<path clip-path="url(#clip542)" d="
M166.42 1325.46 L177.711 1316.54 L189.001 1308.14 L200.292 1300.3 L211.583 1293.11 L222.873 1286.72 L234.164 1281.3 L245.455 1276.93 L256.746 1273.48 L268.036 1270.63 
  L279.327 1268.08 L290.618 1265.66 L301.909 1263.26 L313.199 1260.83 L324.49 1258.33 L335.781 1255.75 L347.071 1253.08 L358.362 1250.33 L369.653 1247.48 L380.944 1244.54 
  L392.234 1241.53 L403.525 1238.19 L414.816 1234.67 L426.107 1231.61 L437.397 1228.47 L448.688 1225.09 L459.979 1221.92 L471.269 1218.47 L482.56 1214.71 L493.851 1210.18 
  L505.142 1206.74 L516.432 1202.82 L527.723 1198.83 L539.014 1195.33 L550.305 1192.93 L561.595 1190.64 L572.886 1188.56 L584.177 1186.37 L595.467 1184.44 L606.758 1182.5 
  L618.049 1180.55 L629.34 1178.91 L640.63 1177.23 L651.921 1174.71 L663.212 1172.49 L674.502 1169.9 L685.793 1167.7 L697.084 1165.12 L708.375 1162.55 L719.665 1160.29 
  L730.956 1158.34 L742.247 1156.65 L753.538 1154.75 L764.828 1152.93 L776.119 1150.9 L787.41 1148.53 L798.7 1145.98 L809.991 1143.56 L821.282 1141.6 L832.573 1139.2 
  L843.863 1135.89 L855.154 1132.56 L866.445 1128.8 L877.736 1125.14 L889.026 1121.02 L900.317 1116.52 L911.608 1111.68 L922.898 1108.01 L934.189 1104.24 L945.48 1100.55 
  L956.771 1096.55 L968.061 1091.49 L979.352 1087.63 L990.643 1082.96 L1001.93 1078.89 L1013.22 1075.16 L1024.51 1069.49 L1035.81 1064.18 L1047.1 1059.04 L1058.39 1053.63 
  L1069.68 1049 L1080.97 1044.82 L1092.26 1039.89 L1103.55 1036.11 L1114.84 1031.53 L1126.13 1027.45 L1137.42 1023.93 L1148.71 1019.9 L1160 1016.44 L1171.29 1012.99 
  L1182.59 1009.15 L1193.88 1005.55 L1205.17 1002.24 L1216.46 999.968 L1227.75 997.085 L1239.04 994.479 L1250.33 991.648 L1261.62 988.823 L1272.91 986.103 L1284.2 983.04 
  L1295.49 979.586 L1306.78 976.242 L1318.07 972.708 L1329.36 969.566 L1340.66 966.948 L1351.95 964.726 L1363.24 963.072 L1374.53 961.96 L1385.82 960.066 L1397.11 958.129 
  L1408.4 956.078 L1419.69 954.147 L1430.98 952.942 L1442.27 951.479 L1453.56 950.716 L1464.85 948.87 L1476.14 946.128 L1487.43 945.658 L1498.73 944.552 L1510.02 943.259 
  L1521.31 943.205 L1532.6 941.831 L1543.89 940.318 L1555.18 940.359 L1566.47 938.667 L1577.76 936.313 L1589.05 934.21 L1600.34 931.448 L1611.63 928.428 L1622.92 926.045 
  L1634.21 922.132 L1645.5 917.65 L1656.8 913.421 L1668.09 908.676 L1679.38 902.734 L1690.67 896.824 L1701.96 890.812 L1713.25 885.065 L1724.54 878.994 L1735.83 872.372 
  L1747.12 866.27 L1758.41 860.276 L1769.7 854.447 L1780.99 848.596 L1792.28 842.88 L1803.58 837 L1814.87 829.722 L1826.16 823.892 L1837.45 818.053 L1848.74 810.698 
  L1860.03 804.573 L1871.32 798.675 L1882.61 793.687 L1893.9 787.78 L1905.19 782.235 L1916.48 776.171 L1927.77 770.616 L1939.06 765.432 L1950.35 760.048 L1961.65 755.107 
  L1972.94 749.673 L1984.23 744.012 L1995.52 740.206 L2006.81 736 L2018.1 730.685 L2029.39 725.023 L2040.68 720.873 L2051.97 716.802 L2063.26 711.749 L2074.55 707.066 
  L2085.84 702.59 L2097.13 698.349 L2108.42 694.372 L2119.72 690.691 L2131.01 687.335 L2142.3 684.335 L2153.59 681.724 L2164.88 679.533 L2176.17 677.796 L2187.46 676.547 
  L2198.75 675.82 L2210.04 675.65 L2221.33 676.071 L2232.62 677.122 L2243.91 678.836 L2255.2 681.252 L2266.49 684.405 L2277.79 688.334 L2289.08 693.075 L2289.08 290.275 
  L2277.79 301.048 L2266.49 311.795 L2255.2 322.511 L2243.91 333.19 L2232.62 343.827 L2221.33 354.418 L2210.04 364.954 L2198.75 375.432 L2187.46 385.843 L2176.17 396.179 
  L2164.88 406.435 L2153.59 416.6 L2142.3 426.666 L2131.01 436.622 L2119.72 446.459 L2108.42 456.166 L2097.13 465.73 L2085.84 475.14 L2074.55 484.382 L2063.26 493.443 
  L2051.97 501.481 L2040.68 509.032 L2029.39 516.731 L2018.1 525.15 L2006.81 532.346 L1995.52 539.43 L1984.23 547.259 L1972.94 554.401 L1961.65 560.867 L1950.35 567.121 
  L1939.06 573.811 L1927.77 579.823 L1916.48 585.144 L1905.19 590.04 L1893.9 595.671 L1882.61 601.611 L1871.32 606.949 L1860.03 612.197 L1848.74 618.037 L1837.45 623.648 
  L1826.16 629.433 L1814.87 634.197 L1803.58 638.259 L1792.28 642.488 L1780.99 646.006 L1769.7 651.258 L1758.41 655.968 L1747.12 661.622 L1735.83 667.659 L1724.54 673.174 
  L1713.25 678.637 L1701.96 684.014 L1690.67 689.085 L1679.38 694.215 L1668.09 700.769 L1656.8 705.975 L1645.5 710.531 L1634.21 715.775 L1622.92 720.717 L1611.63 725.177 
  L1600.34 729.489 L1589.05 734.267 L1577.76 740.286 L1566.47 744.793 L1555.18 749.316 L1543.89 754.746 L1532.6 760.186 L1521.31 764.838 L1510.02 770.505 L1498.73 776.935 
  L1487.43 783.701 L1476.14 790.896 L1464.85 798.725 L1453.56 809.07 L1442.27 819.57 L1430.98 830.386 L1419.69 841.383 L1408.4 851.894 L1397.11 862.596 L1385.82 872.91 
  L1374.53 881.51 L1363.24 890.659 L1351.95 898.929 L1340.66 907.318 L1329.36 915.432 L1318.07 923.057 L1306.78 929.938 L1295.49 936.244 L1284.2 941.671 L1272.91 946.631 
  L1261.62 950.938 L1250.33 954.392 L1239.04 958.145 L1227.75 961.653 L1216.46 965.334 L1205.17 967.121 L1193.88 969.673 L1182.59 971.218 L1171.29 971.662 L1160 971.965 
  L1148.71 971.782 L1137.42 972.482 L1126.13 972.768 L1114.84 972.381 L1103.55 972.84 L1092.26 972.875 L1080.97 972.952 L1069.68 974.602 L1058.39 976.303 L1047.1 979.06 
  L1035.81 982.452 L1024.51 986.755 L1013.22 991.9 L1001.93 997.267 L990.643 1001.94 L979.352 1006.43 L968.061 1011.93 L956.771 1016.53 L945.48 1021.55 L934.189 1026.53 
  L922.898 1031.03 L911.608 1035.89 L900.317 1040.88 L889.026 1046.15 L877.736 1051.61 L866.445 1056.34 L855.154 1061.41 L843.863 1065.67 L832.573 1070.3 L821.282 1074.94 
  L809.991 1079.95 L798.7 1085.35 L787.41 1090.29 L776.119 1095.37 L764.828 1099.95 L753.538 1103.87 L742.247 1108.38 L730.956 1111.59 L719.665 1113.97 L708.375 1117.31 
  L697.084 1120.85 L685.793 1124.18 L674.502 1126.56 L663.212 1128.89 L651.921 1131.06 L640.63 1132.6 L629.34 1135.07 L618.049 1138.49 L606.758 1141.75 L595.467 1145.58 
  L584.177 1148.37 L572.886 1151.44 L561.595 1154.59 L550.305 1158.04 L539.014 1161.93 L527.723 1165.7 L516.432 1168.65 L505.142 1171.22 L493.851 1174.17 L482.56 1176.49 
  L471.269 1179.17 L459.979 1181.2 L448.688 1183.8 L437.397 1186.32 L426.107 1189.67 L414.816 1193.04 L403.525 1196.83 L392.234 1200.57 L380.944 1204.21 L369.653 1208.01 
  L358.362 1211.97 L347.071 1216.11 L335.781 1220.43 L324.49 1224.94 L313.199 1229.63 L301.909 1234.5 L290.618 1239.52 L279.327 1244.65 L268.036 1249.78 L256.746 1254.74 
  L245.455 1259.25 L234.164 1263 L222.873 1265.85 L211.583 1267.89 L200.292 1269.31 L189.001 1270.26 L177.711 1270.83 L166.42 1271.07  Z
  " fill="#e26f46" fill-rule="evenodd" fill-opacity="0.5"/>
<polyline clip-path="url(#clip542)" style="stroke:#e26f46; stroke-width:16; stroke-opacity:1; fill:none" points="
  166.42,1298.26 177.711,1293.68 189.001,1289.2 200.292,1284.8 211.583,1280.5 222.873,1276.28 234.164,1272.15 245.455,1268.09 256.746,1264.11 268.036,1260.2 
  279.327,1256.36 290.618,1252.59 301.909,1248.88 313.199,1245.23 324.49,1241.63 335.781,1238.09 347.071,1234.6 358.362,1231.15 369.653,1227.74 380.944,1224.38 
  392.234,1221.05 403.525,1217.51 414.816,1213.85 426.107,1210.64 437.397,1207.4 448.688,1204.44 459.979,1201.56 471.269,1198.82 482.56,1195.6 493.851,1192.18 
  505.142,1188.98 516.432,1185.73 527.723,1182.27 539.014,1178.63 550.305,1175.48 561.595,1172.61 572.886,1170 584.177,1167.37 595.467,1165.01 606.758,1162.13 
  618.049,1159.52 629.34,1156.99 640.63,1154.91 651.921,1152.89 663.212,1150.69 674.502,1148.23 685.793,1145.94 697.084,1142.98 708.375,1139.93 719.665,1137.13 
  730.956,1134.96 742.247,1132.52 753.538,1129.31 764.828,1126.44 776.119,1123.13 787.41,1119.41 798.7,1115.67 809.991,1111.75 821.282,1108.27 832.573,1104.75 
  843.863,1100.78 855.154,1096.98 866.445,1092.57 877.736,1088.38 889.026,1083.59 900.317,1078.7 911.608,1073.78 922.898,1069.52 934.189,1065.39 945.48,1061.05 
  956.771,1056.54 968.061,1051.71 979.352,1047.03 990.643,1042.45 1001.93,1038.08 1013.22,1033.53 1024.51,1028.13 1035.81,1023.31 1047.1,1019.05 1058.39,1014.97 
  1069.68,1011.8 1080.97,1008.89 1092.26,1006.38 1103.55,1004.47 1114.84,1001.96 1126.13,1000.11 1137.42,998.206 1148.71,995.843 1160,994.202 1171.29,992.326 
  1182.59,990.185 1193.88,987.609 1205.17,984.679 1216.46,982.651 1227.75,979.369 1239.04,976.312 1250.33,973.02 1261.62,969.881 1272.91,966.367 1284.2,962.355 
  1295.49,957.915 1306.78,953.09 1318.07,947.882 1329.36,942.499 1340.66,937.133 1351.95,931.828 1363.24,926.866 1374.53,921.735 1385.82,916.488 1397.11,910.363 
  1408.4,903.986 1419.69,897.765 1430.98,891.664 1442.27,885.525 1453.56,879.893 1464.85,873.797 1476.14,868.512 1487.43,864.679 1498.73,860.743 1510.02,856.882 
  1521.31,854.022 1532.6,851.009 1543.89,847.532 1555.18,844.838 1566.47,841.73 1577.76,838.299 1589.05,834.238 1600.34,830.468 1611.63,826.803 1622.92,823.381 
  1634.21,818.953 1645.5,814.09 1656.8,809.698 1668.09,804.723 1679.38,798.475 1690.67,792.955 1701.96,787.413 1713.25,781.851 1724.54,776.084 1735.83,770.015 
  1747.12,763.946 1758.41,758.122 1769.7,752.853 1780.99,747.301 1792.28,742.684 1803.58,737.629 1814.87,731.959 1826.16,726.663 1837.45,720.85 1848.74,714.367 
  1860.03,708.385 1871.32,702.812 1882.61,697.649 1893.9,691.726 1905.19,686.138 1916.48,680.657 1927.77,675.22 1939.06,669.622 1950.35,663.584 1961.65,657.987 
  1972.94,652.037 1984.23,645.636 1995.52,639.818 2006.81,634.173 2018.1,627.918 2029.39,620.877 2040.68,614.953 2051.97,609.141 2063.26,602.596 2074.55,595.724 
  2085.84,588.865 2097.13,582.039 2108.42,575.269 2119.72,568.575 2131.01,561.978 2142.3,555.5 2153.59,549.162 2164.88,542.984 2176.17,536.988 2187.46,531.195 
  2198.75,525.626 2210.04,520.302 2221.33,515.245 2232.62,510.475 2243.91,506.013 2255.2,501.881 2266.49,498.1 2277.79,494.691 2289.08,491.675 
  "/>
<path clip-path="url(#clip540)" d="
M1971.78 292.508 L2277.76 292.508 L2277.76 111.068 L1971.78 111.068  Z
  " fill="#ffffff" fill-rule="evenodd" fill-opacity="1"/>
<polyline clip-path="url(#clip540)" style="stroke:#000000; stroke-width:4; stroke-opacity:1; fill:none" points="
  1971.78,292.508 2277.76,292.508 2277.76,111.068 1971.78,111.068 1971.78,292.508 
  "/>
<polyline clip-path="url(#clip540)" style="stroke:#009af9; stroke-width:4; stroke-opacity:1; fill:none" points="
  1996.78,171.548 2146.78,171.548 
  "/>
<path clip-path="url(#clip540)" d="M 0 0 M2197.34 183.897 L2197.34 174.615 L2189.7 174.615 L2189.7 170.772 L2201.97 170.772 L2201.97 185.61 Q2199.26 187.531 2196 188.527 Q2192.73 189.499 2189.03 189.499 Q2180.93 189.499 2176.34 184.777 Q2171.78 180.031 2171.78 171.582 Q2171.78 163.11 2176.34 158.388 Q2180.93 153.643 2189.03 153.643 Q2192.41 153.643 2195.44 154.476 Q2198.5 155.309 2201.07 156.93 L2201.07 161.907 Q2198.47 159.708 2195.56 158.596 Q2192.64 157.485 2189.42 157.485 Q2183.08 157.485 2179.88 161.027 Q2176.71 164.569 2176.71 171.582 Q2176.71 178.573 2179.88 182.115 Q2183.08 185.656 2189.42 185.656 Q2191.9 185.656 2193.84 185.24 Q2195.79 184.8 2197.34 183.897 Z" fill="#000000" fill-rule="evenodd" fill-opacity="1" /><path clip-path="url(#clip540)" d="M 0 0 M2207.85 184.893 L2215.49 184.893 L2215.49 158.527 L2207.18 160.194 L2207.18 155.934 L2215.44 154.268 L2220.12 154.268 L2220.12 184.893 L2227.76 184.893 L2227.76 188.828 L2207.85 188.828 L2207.85 184.893 Z" fill="#000000" fill-rule="evenodd" fill-opacity="1" /><polyline clip-path="url(#clip540)" style="stroke:#e26f46; stroke-width:4; stroke-opacity:1; fill:none" points="
  1996.78,232.028 2146.78,232.028 
  "/>
<path clip-path="url(#clip540)" d="M 0 0 M2197.34 244.377 L2197.34 235.095 L2189.7 235.095 L2189.7 231.252 L2201.97 231.252 L2201.97 246.09 Q2199.26 248.011 2196 249.007 Q2192.73 249.979 2189.03 249.979 Q2180.93 249.979 2176.34 245.257 Q2171.78 240.511 2171.78 232.062 Q2171.78 223.59 2176.34 218.868 Q2180.93 214.123 2189.03 214.123 Q2192.41 214.123 2195.44 214.956 Q2198.5 215.789 2201.07 217.41 L2201.07 222.387 Q2198.47 220.188 2195.56 219.076 Q2192.64 217.965 2189.42 217.965 Q2183.08 217.965 2179.88 221.507 Q2176.71 225.049 2176.71 232.062 Q2176.71 239.053 2179.88 242.595 Q2183.08 246.136 2189.42 246.136 Q2191.9 246.136 2193.84 245.72 Q2195.79 245.28 2197.34 244.377 Z" fill="#000000" fill-rule="evenodd" fill-opacity="1" /><path clip-path="url(#clip540)" d="M 0 0 M2211.07 245.373 L2227.38 245.373 L2227.38 249.308 L2205.44 249.308 L2205.44 245.373 Q2208.1 242.618 2212.69 237.988 Q2217.29 233.336 2218.47 231.993 Q2220.72 229.47 2221.6 227.734 Q2222.5 225.975 2222.5 224.285 Q2222.5 221.53 2220.56 219.794 Q2218.63 218.058 2215.53 218.058 Q2213.33 218.058 2210.88 218.822 Q2208.45 219.586 2205.67 221.137 L2205.67 216.414 Q2208.5 215.28 2210.95 214.701 Q2213.4 214.123 2215.44 214.123 Q2220.81 214.123 2224.01 216.808 Q2227.2 219.493 2227.2 223.984 Q2227.2 226.113 2226.39 228.035 Q2225.6 229.933 2223.5 232.525 Q2222.92 233.197 2219.82 236.414 Q2216.71 239.609 2211.07 245.373 Z" fill="#000000" fill-rule="evenodd" fill-opacity="1" /></svg>
