<?xml version="1.0" encoding="utf-8"?>
<svg xmlns="http://www.w3.org/2000/svg" xmlns:xlink="http://www.w3.org/1999/xlink" width="900" height="350" viewBox="0 0 3600 1400">
<defs>
  <clipPath id="clip960">
    <rect x="0" y="0" width="3600" height="1400"/>
  </clipPath>
</defs>
<path clip-path="url(#clip960)" d="
M0 1400 L3600 1400 L3600 0 L0 0  Z
  " fill="#ffffff" fill-rule="evenodd" fill-opacity="1"/>
<defs>
  <clipPath id="clip961">
    <rect x="720" y="0" width="2521" height="1400"/>
  </clipPath>
</defs>
<path clip-path="url(#clip960)" d="
M295.843 1086.79 L1571.65 1086.79 L1571.65 283.465 L295.843 283.465  Z
  " fill="#ffffff" fill-rule="evenodd" fill-opacity="1"/>
<defs>
  <clipPath id="clip962">
    <rect x="295" y="283" width="1277" height="804"/>
  </clipPath>
</defs>
<polyline clip-path="url(#clip962)" style="stroke:#000000; stroke-width:2; stroke-opacity:0.1; fill:none" points="
  448.491,1086.79 448.491,283.465 
  "/>
<polyline clip-path="url(#clip962)" style="stroke:#000000; stroke-width:2; stroke-opacity:0.1; fill:none" points="
  613.097,1086.79 613.097,283.465 
  "/>
<polyline clip-path="url(#clip962)" style="stroke:#000000; stroke-width:2; stroke-opacity:0.1; fill:none" points="
  777.702,1086.79 777.702,283.465 
  "/>
<polyline clip-path="url(#clip962)" style="stroke:#000000; stroke-width:2; stroke-opacity:0.1; fill:none" points="
  942.308,1086.79 942.308,283.465 
  "/>
<polyline clip-path="url(#clip962)" style="stroke:#000000; stroke-width:2; stroke-opacity:0.1; fill:none" points="
  1106.91,1086.79 1106.91,283.465 
  "/>
<polyline clip-path="url(#clip962)" style="stroke:#000000; stroke-width:2; stroke-opacity:0.1; fill:none" points="
  1271.52,1086.79 1271.52,283.465 
  "/>
<polyline clip-path="url(#clip962)" style="stroke:#000000; stroke-width:2; stroke-opacity:0.1; fill:none" points="
  1436.12,1086.79 1436.12,283.465 
  "/>
<polyline clip-path="url(#clip960)" style="stroke:#000000; stroke-width:4; stroke-opacity:1; fill:none" points="
  295.843,1086.79 1571.65,1086.79 
  "/>
<polyline clip-path="url(#clip960)" style="stroke:#000000; stroke-width:4; stroke-opacity:1; fill:none" points="
  448.491,1086.79 448.491,1077.15 
  "/>
<polyline clip-path="url(#clip960)" style="stroke:#000000; stroke-width:4; stroke-opacity:1; fill:none" points="
  613.097,1086.79 613.097,1077.15 
  "/>
<polyline clip-path="url(#clip960)" style="stroke:#000000; stroke-width:4; stroke-opacity:1; fill:none" points="
  777.702,1086.79 777.702,1077.15 
  "/>
<polyline clip-path="url(#clip960)" style="stroke:#000000; stroke-width:4; stroke-opacity:1; fill:none" points="
  942.308,1086.79 942.308,1077.15 
  "/>
<polyline clip-path="url(#clip960)" style="stroke:#000000; stroke-width:4; stroke-opacity:1; fill:none" points="
  1106.91,1086.79 1106.91,1077.15 
  "/>
<polyline clip-path="url(#clip960)" style="stroke:#000000; stroke-width:4; stroke-opacity:1; fill:none" points="
  1271.52,1086.79 1271.52,1077.15 
  "/>
<polyline clip-path="url(#clip960)" style="stroke:#000000; stroke-width:4; stroke-opacity:1; fill:none" points="
  1436.12,1086.79 1436.12,1077.15 
  "/>
<g clip-path="url(#clip960)">
<text style="fill:#000000; fill-opacity:1; font-family:Arial,Helvetica Neue,Helvetica,sans-serif; font-size:71px; text-anchor:middle;" transform="rotate(0, 448.491, 1177.99)" x="448.491" y="1177.99">10</text>
</g>
<g clip-path="url(#clip960)">
<text style="fill:#000000; fill-opacity:1; font-family:Arial,Helvetica Neue,Helvetica,sans-serif; font-size:71px; text-anchor:middle;" transform="rotate(0, 613.097, 1177.99)" x="613.097" y="1177.99">20</text>
</g>
<g clip-path="url(#clip960)">
<text style="fill:#000000; fill-opacity:1; font-family:Arial,Helvetica Neue,Helvetica,sans-serif; font-size:71px; text-anchor:middle;" transform="rotate(0, 777.702, 1177.99)" x="777.702" y="1177.99">30</text>
</g>
<g clip-path="url(#clip960)">
<text style="fill:#000000; fill-opacity:1; font-family:Arial,Helvetica Neue,Helvetica,sans-serif; font-size:71px; text-anchor:middle;" transform="rotate(0, 942.308, 1177.99)" x="942.308" y="1177.99">40</text>
</g>
<g clip-path="url(#clip960)">
<text style="fill:#000000; fill-opacity:1; font-family:Arial,Helvetica Neue,Helvetica,sans-serif; font-size:71px; text-anchor:middle;" transform="rotate(0, 1106.91, 1177.99)" x="1106.91" y="1177.99">50</text>
</g>
<g clip-path="url(#clip960)">
<text style="fill:#000000; fill-opacity:1; font-family:Arial,Helvetica Neue,Helvetica,sans-serif; font-size:71px; text-anchor:middle;" transform="rotate(0, 1271.52, 1177.99)" x="1271.52" y="1177.99">60</text>
</g>
<g clip-path="url(#clip960)">
<text style="fill:#000000; fill-opacity:1; font-family:Arial,Helvetica Neue,Helvetica,sans-serif; font-size:71px; text-anchor:middle;" transform="rotate(0, 1436.12, 1177.99)" x="1436.12" y="1177.99">70</text>
</g>
<g clip-path="url(#clip960)">
<text style="fill:#000000; fill-opacity:1; font-family:Arial,Helvetica Neue,Helvetica,sans-serif; font-size:71px; text-anchor:middle;" transform="rotate(0, 933.748, 1281.29)" x="933.748" y="1281.29">time[hr]</text>
</g>
<polyline clip-path="url(#clip962)" style="stroke:#000000; stroke-width:2; stroke-opacity:0.1; fill:none" points="
  295.843,1064.05 1571.65,1064.05 
  "/>
<polyline clip-path="url(#clip962)" style="stroke:#000000; stroke-width:2; stroke-opacity:0.1; fill:none" points="
  295.843,867.207 1571.65,867.207 
  "/>
<polyline clip-path="url(#clip962)" style="stroke:#000000; stroke-width:2; stroke-opacity:0.1; fill:none" points="
  295.843,670.363 1571.65,670.363 
  "/>
<polyline clip-path="url(#clip962)" style="stroke:#000000; stroke-width:2; stroke-opacity:0.1; fill:none" points="
  295.843,473.518 1571.65,473.518 
  "/>
<polyline clip-path="url(#clip960)" style="stroke:#000000; stroke-width:4; stroke-opacity:1; fill:none" points="
  295.843,1086.79 295.843,283.465 
  "/>
<polyline clip-path="url(#clip960)" style="stroke:#000000; stroke-width:4; stroke-opacity:1; fill:none" points="
  295.843,1064.05 311.152,1064.05 
  "/>
<polyline clip-path="url(#clip960)" style="stroke:#000000; stroke-width:4; stroke-opacity:1; fill:none" points="
  295.843,867.207 311.152,867.207 
  "/>
<polyline clip-path="url(#clip960)" style="stroke:#000000; stroke-width:4; stroke-opacity:1; fill:none" points="
  295.843,670.363 311.152,670.363 
  "/>
<polyline clip-path="url(#clip960)" style="stroke:#000000; stroke-width:4; stroke-opacity:1; fill:none" points="
  295.843,473.518 311.152,473.518 
  "/>
<g clip-path="url(#clip960)">
<text style="fill:#000000; fill-opacity:1; font-family:Arial,Helvetica Neue,Helvetica,sans-serif; font-size:71px; text-anchor:end;" transform="rotate(0, 241.843, 1090.05)" x="241.843" y="1090.05">0</text>
</g>
<g clip-path="url(#clip960)">
<text style="fill:#000000; fill-opacity:1; font-family:Arial,Helvetica Neue,Helvetica,sans-serif; font-size:71px; text-anchor:end;" transform="rotate(0, 241.843, 893.207)" x="241.843" y="893.207">20</text>
</g>
<g clip-path="url(#clip960)">
<text style="fill:#000000; fill-opacity:1; font-family:Arial,Helvetica Neue,Helvetica,sans-serif; font-size:71px; text-anchor:end;" transform="rotate(0, 241.843, 696.363)" x="241.843" y="696.363">40</text>
</g>
<g clip-path="url(#clip960)">
<text style="fill:#000000; fill-opacity:1; font-family:Arial,Helvetica Neue,Helvetica,sans-serif; font-size:71px; text-anchor:end;" transform="rotate(0, 241.843, 499.518)" x="241.843" y="499.518">60</text>
</g>
<g clip-path="url(#clip960)">
<text style="fill:#000000; fill-opacity:1; font-family:Arial,Helvetica Neue,Helvetica,sans-serif; font-size:71px; text-anchor:middle;" transform="rotate(-90, 94.5059, 685.126)" x="94.5059" y="685.126">abundance</text>
</g>
<g clip-path="url(#clip960)">
<text style="fill:#000000; fill-opacity:1; font-family:Arial,Helvetica Neue,Helvetica,sans-serif; font-size:71px; text-anchor:middle;" transform="rotate(0, 933.748, 62.4)" x="933.748" y="62.4">G1 phase lengths</text>
</g>
<path clip-path="url(#clip962)" d="
M382.649 995.156 L382.649 1064.05 L415.57 1064.05 L415.57 995.156 L382.649 995.156 L382.649 995.156  Z
  " fill="#009af9" fill-rule="evenodd" fill-opacity="0.6"/>
<polyline clip-path="url(#clip962)" style="stroke:#000000; stroke-width:4; stroke-opacity:0.6; fill:none" points="
  382.649,995.156 382.649,1064.05 415.57,1064.05 415.57,995.156 382.649,995.156 
  "/>
<path clip-path="url(#clip962)" d="
M415.57 739.258 L415.57 1064.05 L448.491 1064.05 L448.491 739.258 L415.57 739.258 L415.57 739.258  Z
  " fill="#009af9" fill-rule="evenodd" fill-opacity="0.6"/>
<polyline clip-path="url(#clip962)" style="stroke:#000000; stroke-width:4; stroke-opacity:0.6; fill:none" points="
  415.57,739.258 415.57,1064.05 448.491,1064.05 448.491,739.258 415.57,739.258 
  "/>
<path clip-path="url(#clip962)" d="
M448.491 522.729 L448.491 1064.05 L481.412 1064.05 L481.412 522.729 L448.491 522.729 L448.491 522.729  Z
  " fill="#009af9" fill-rule="evenodd" fill-opacity="0.6"/>
<polyline clip-path="url(#clip962)" style="stroke:#000000; stroke-width:4; stroke-opacity:0.6; fill:none" points="
  448.491,522.729 448.491,1064.05 481.412,1064.05 481.412,522.729 448.491,522.729 
  "/>
<path clip-path="url(#clip962)" d="
M481.412 335.727 L481.412 1064.05 L514.333 1064.05 L514.333 335.727 L481.412 335.727 L481.412 335.727  Z
  " fill="#009af9" fill-rule="evenodd" fill-opacity="0.6"/>
<polyline clip-path="url(#clip962)" style="stroke:#000000; stroke-width:4; stroke-opacity:0.6; fill:none" points="
  481.412,335.727 481.412,1064.05 514.333,1064.05 514.333,335.727 481.412,335.727 
  "/>
<path clip-path="url(#clip962)" d="
M514.333 306.2 L514.333 1064.05 L547.254 1064.05 L547.254 306.2 L514.333 306.2 L514.333 306.2  Z
  " fill="#009af9" fill-rule="evenodd" fill-opacity="0.6"/>
<polyline clip-path="url(#clip962)" style="stroke:#000000; stroke-width:4; stroke-opacity:0.6; fill:none" points="
  514.333,306.2 514.333,1064.05 547.254,1064.05 547.254,306.2 514.333,306.2 
  "/>
<path clip-path="url(#clip962)" d="
M547.254 493.202 L547.254 1064.05 L580.175 1064.05 L580.175 493.202 L547.254 493.202 L547.254 493.202  Z
  " fill="#009af9" fill-rule="evenodd" fill-opacity="0.6"/>
<polyline clip-path="url(#clip962)" style="stroke:#000000; stroke-width:4; stroke-opacity:0.6; fill:none" points="
  547.254,493.202 547.254,1064.05 580.175,1064.05 580.175,493.202 547.254,493.202 
  "/>
<path clip-path="url(#clip962)" d="
M580.175 571.94 L580.175 1064.05 L613.097 1064.05 L613.097 571.94 L580.175 571.94 L580.175 571.94  Z
  " fill="#009af9" fill-rule="evenodd" fill-opacity="0.6"/>
<polyline clip-path="url(#clip962)" style="stroke:#000000; stroke-width:4; stroke-opacity:0.6; fill:none" points="
  580.175,571.94 580.175,1064.05 613.097,1064.05 613.097,571.94 580.175,571.94 
  "/>
<path clip-path="url(#clip962)" d="
M613.097 690.047 L613.097 1064.05 L646.018 1064.05 L646.018 690.047 L613.097 690.047 L613.097 690.047  Z
  " fill="#009af9" fill-rule="evenodd" fill-opacity="0.6"/>
<polyline clip-path="url(#clip962)" style="stroke:#000000; stroke-width:4; stroke-opacity:0.6; fill:none" points="
  613.097,690.047 613.097,1064.05 646.018,1064.05 646.018,690.047 613.097,690.047 
  "/>
<path clip-path="url(#clip962)" d="
M646.018 729.416 L646.018 1064.05 L678.939 1064.05 L678.939 729.416 L646.018 729.416 L646.018 729.416  Z
  " fill="#009af9" fill-rule="evenodd" fill-opacity="0.6"/>
<polyline clip-path="url(#clip962)" style="stroke:#000000; stroke-width:4; stroke-opacity:0.6; fill:none" points="
  646.018,729.416 646.018,1064.05 678.939,1064.05 678.939,729.416 646.018,729.416 
  "/>
<path clip-path="url(#clip962)" d="
M678.939 837.681 L678.939 1064.05 L711.86 1064.05 L711.86 837.681 L678.939 837.681 L678.939 837.681  Z
  " fill="#009af9" fill-rule="evenodd" fill-opacity="0.6"/>
<polyline clip-path="url(#clip962)" style="stroke:#000000; stroke-width:4; stroke-opacity:0.6; fill:none" points="
  678.939,837.681 678.939,1064.05 711.86,1064.05 711.86,837.681 678.939,837.681 
  "/>
<path clip-path="url(#clip962)" d="
M711.86 808.154 L711.86 1064.05 L744.781 1064.05 L744.781 808.154 L711.86 808.154 L711.86 808.154  Z
  " fill="#009af9" fill-rule="evenodd" fill-opacity="0.6"/>
<polyline clip-path="url(#clip962)" style="stroke:#000000; stroke-width:4; stroke-opacity:0.6; fill:none" points="
  711.86,808.154 711.86,1064.05 744.781,1064.05 744.781,808.154 711.86,808.154 
  "/>
<path clip-path="url(#clip962)" d="
M744.781 965.63 L744.781 1064.05 L777.702 1064.05 L777.702 965.63 L744.781 965.63 L744.781 965.63  Z
  " fill="#009af9" fill-rule="evenodd" fill-opacity="0.6"/>
<polyline clip-path="url(#clip962)" style="stroke:#000000; stroke-width:4; stroke-opacity:0.6; fill:none" points="
  744.781,965.63 744.781,1064.05 777.702,1064.05 777.702,965.63 744.781,965.63 
  "/>
<path clip-path="url(#clip962)" d="
M777.702 1005 L777.702 1064.05 L810.623 1064.05 L810.623 1005 L777.702 1005 L777.702 1005  Z
  " fill="#009af9" fill-rule="evenodd" fill-opacity="0.6"/>
<polyline clip-path="url(#clip962)" style="stroke:#000000; stroke-width:4; stroke-opacity:0.6; fill:none" points="
  777.702,1005 777.702,1064.05 810.623,1064.05 810.623,1005 777.702,1005 
  "/>
<path clip-path="url(#clip962)" d="
M810.623 995.156 L810.623 1064.05 L843.544 1064.05 L843.544 995.156 L810.623 995.156 L810.623 995.156  Z
  " fill="#009af9" fill-rule="evenodd" fill-opacity="0.6"/>
<polyline clip-path="url(#clip962)" style="stroke:#000000; stroke-width:4; stroke-opacity:0.6; fill:none" points="
  810.623,995.156 810.623,1064.05 843.544,1064.05 843.544,995.156 810.623,995.156 
  "/>
<path clip-path="url(#clip962)" d="
M843.544 1005 L843.544 1064.05 L876.465 1064.05 L876.465 1005 L843.544 1005 L843.544 1005  Z
  " fill="#009af9" fill-rule="evenodd" fill-opacity="0.6"/>
<polyline clip-path="url(#clip962)" style="stroke:#000000; stroke-width:4; stroke-opacity:0.6; fill:none" points="
  843.544,1005 843.544,1064.05 876.465,1064.05 876.465,1005 843.544,1005 
  "/>
<path clip-path="url(#clip962)" d="
M876.465 1044.37 L876.465 1064.05 L909.386 1064.05 L909.386 1044.37 L876.465 1044.37 L876.465 1044.37  Z
  " fill="#009af9" fill-rule="evenodd" fill-opacity="0.6"/>
<polyline clip-path="url(#clip962)" style="stroke:#000000; stroke-width:4; stroke-opacity:0.6; fill:none" points="
  876.465,1044.37 876.465,1064.05 909.386,1064.05 909.386,1044.37 876.465,1044.37 
  "/>
<path clip-path="url(#clip962)" d="
M909.386 1044.37 L909.386 1064.05 L942.308 1064.05 L942.308 1044.37 L909.386 1044.37 L909.386 1044.37  Z
  " fill="#009af9" fill-rule="evenodd" fill-opacity="0.6"/>
<polyline clip-path="url(#clip962)" style="stroke:#000000; stroke-width:4; stroke-opacity:0.6; fill:none" points="
  909.386,1044.37 909.386,1064.05 942.308,1064.05 942.308,1044.37 909.386,1044.37 
  "/>
<path clip-path="url(#clip962)" d="
M942.308 995.156 L942.308 1064.05 L975.229 1064.05 L975.229 995.156 L942.308 995.156 L942.308 995.156  Z
  " fill="#009af9" fill-rule="evenodd" fill-opacity="0.6"/>
<polyline clip-path="url(#clip962)" style="stroke:#000000; stroke-width:4; stroke-opacity:0.6; fill:none" points="
  942.308,995.156 942.308,1064.05 975.229,1064.05 975.229,995.156 942.308,995.156 
  "/>
<path clip-path="url(#clip962)" d="
M975.229 1054.21 L975.229 1064.05 L1008.15 1064.05 L1008.15 1054.21 L975.229 1054.21 L975.229 1054.21  Z
  " fill="#009af9" fill-rule="evenodd" fill-opacity="0.6"/>
<polyline clip-path="url(#clip962)" style="stroke:#000000; stroke-width:4; stroke-opacity:0.6; fill:none" points="
  975.229,1054.21 975.229,1064.05 1008.15,1064.05 1008.15,1054.21 975.229,1054.21 
  "/>
<path clip-path="url(#clip962)" d="
M1008.15 1064.05 L1008.15 1064.05 L1041.07 1064.05 L1041.07 1064.05 L1008.15 1064.05 L1008.15 1064.05  Z
  " fill="#009af9" fill-rule="evenodd" fill-opacity="0.6"/>
<polyline clip-path="url(#clip962)" style="stroke:#000000; stroke-width:4; stroke-opacity:0.6; fill:none" points="
  1008.15,1064.05 1008.15,1064.05 1041.07,1064.05 1008.15,1064.05 
  "/>
<path clip-path="url(#clip962)" d="
M1041.07 1054.21 L1041.07 1064.05 L1073.99 1064.05 L1073.99 1054.21 L1041.07 1054.21 L1041.07 1054.21  Z
  " fill="#009af9" fill-rule="evenodd" fill-opacity="0.6"/>
<polyline clip-path="url(#clip962)" style="stroke:#000000; stroke-width:4; stroke-opacity:0.6; fill:none" points="
  1041.07,1054.21 1041.07,1064.05 1073.99,1064.05 1073.99,1054.21 1041.07,1054.21 
  "/>
<path clip-path="url(#clip962)" d="
M1073.99 1064.05 L1073.99 1064.05 L1106.91 1064.05 L1106.91 1064.05 L1073.99 1064.05 L1073.99 1064.05  Z
  " fill="#009af9" fill-rule="evenodd" fill-opacity="0.6"/>
<polyline clip-path="url(#clip962)" style="stroke:#000000; stroke-width:4; stroke-opacity:0.6; fill:none" points="
  1073.99,1064.05 1073.99,1064.05 1106.91,1064.05 1073.99,1064.05 
  "/>
<path clip-path="url(#clip962)" d="
M1106.91 1064.05 L1106.91 1064.05 L1139.83 1064.05 L1139.83 1064.05 L1106.91 1064.05 L1106.91 1064.05  Z
  " fill="#009af9" fill-rule="evenodd" fill-opacity="0.6"/>
<polyline clip-path="url(#clip962)" style="stroke:#000000; stroke-width:4; stroke-opacity:0.6; fill:none" points="
  1106.91,1064.05 1106.91,1064.05 1139.83,1064.05 1106.91,1064.05 
  "/>
<path clip-path="url(#clip962)" d="
M1139.83 1064.05 L1139.83 1064.05 L1172.76 1064.05 L1172.76 1064.05 L1139.83 1064.05 L1139.83 1064.05  Z
  " fill="#009af9" fill-rule="evenodd" fill-opacity="0.6"/>
<polyline clip-path="url(#clip962)" style="stroke:#000000; stroke-width:4; stroke-opacity:0.6; fill:none" points="
  1139.83,1064.05 1139.83,1064.05 1172.76,1064.05 1139.83,1064.05 
  "/>
<path clip-path="url(#clip962)" d="
M1172.76 1054.21 L1172.76 1064.05 L1205.68 1064.05 L1205.68 1054.21 L1172.76 1054.21 L1172.76 1054.21  Z
  " fill="#009af9" fill-rule="evenodd" fill-opacity="0.6"/>
<polyline clip-path="url(#clip962)" style="stroke:#000000; stroke-width:4; stroke-opacity:0.6; fill:none" points="
  1172.76,1054.21 1172.76,1064.05 1205.68,1064.05 1205.68,1054.21 1172.76,1054.21 
  "/>
<path clip-path="url(#clip962)" d="
M1205.68 1064.05 L1205.68 1064.05 L1238.6 1064.05 L1238.6 1064.05 L1205.68 1064.05 L1205.68 1064.05  Z
  " fill="#009af9" fill-rule="evenodd" fill-opacity="0.6"/>
<polyline clip-path="url(#clip962)" style="stroke:#000000; stroke-width:4; stroke-opacity:0.6; fill:none" points="
  1205.68,1064.05 1205.68,1064.05 1238.6,1064.05 1205.68,1064.05 
  "/>
<path clip-path="url(#clip962)" d="
M1238.6 1054.21 L1238.6 1064.05 L1271.52 1064.05 L1271.52 1054.21 L1238.6 1054.21 L1238.6 1054.21  Z
  " fill="#009af9" fill-rule="evenodd" fill-opacity="0.6"/>
<polyline clip-path="url(#clip962)" style="stroke:#000000; stroke-width:4; stroke-opacity:0.6; fill:none" points="
  1238.6,1054.21 1238.6,1064.05 1271.52,1064.05 1271.52,1054.21 1238.6,1054.21 
  "/>
<path clip-path="url(#clip962)" d="
M1271.52 1064.05 L1271.52 1064.05 L1304.44 1064.05 L1304.44 1064.05 L1271.52 1064.05 L1271.52 1064.05  Z
  " fill="#009af9" fill-rule="evenodd" fill-opacity="0.6"/>
<polyline clip-path="url(#clip962)" style="stroke:#000000; stroke-width:4; stroke-opacity:0.6; fill:none" points="
  1271.52,1064.05 1271.52,1064.05 1304.44,1064.05 1271.52,1064.05 
  "/>
<path clip-path="url(#clip962)" d="
M1304.44 1064.05 L1304.44 1064.05 L1337.36 1064.05 L1337.36 1064.05 L1304.44 1064.05 L1304.44 1064.05  Z
  " fill="#009af9" fill-rule="evenodd" fill-opacity="0.6"/>
<polyline clip-path="url(#clip962)" style="stroke:#000000; stroke-width:4; stroke-opacity:0.6; fill:none" points="
  1304.44,1064.05 1304.44,1064.05 1337.36,1064.05 1304.44,1064.05 
  "/>
<path clip-path="url(#clip962)" d="
M1337.36 1064.05 L1337.36 1064.05 L1370.28 1064.05 L1370.28 1064.05 L1337.36 1064.05 L1337.36 1064.05  Z
  " fill="#009af9" fill-rule="evenodd" fill-opacity="0.6"/>
<polyline clip-path="url(#clip962)" style="stroke:#000000; stroke-width:4; stroke-opacity:0.6; fill:none" points="
  1337.36,1064.05 1337.36,1064.05 1370.28,1064.05 1337.36,1064.05 
  "/>
<path clip-path="url(#clip962)" d="
M1370.28 1064.05 L1370.28 1064.05 L1403.2 1064.05 L1403.2 1064.05 L1370.28 1064.05 L1370.28 1064.05  Z
  " fill="#009af9" fill-rule="evenodd" fill-opacity="0.6"/>
<polyline clip-path="url(#clip962)" style="stroke:#000000; stroke-width:4; stroke-opacity:0.6; fill:none" points="
  1370.28,1064.05 1370.28,1064.05 1403.2,1064.05 1370.28,1064.05 
  "/>
<path clip-path="url(#clip962)" d="
M1403.2 1064.05 L1403.2 1064.05 L1436.12 1064.05 L1436.12 1064.05 L1403.2 1064.05 L1403.2 1064.05  Z
  " fill="#009af9" fill-rule="evenodd" fill-opacity="0.6"/>
<polyline clip-path="url(#clip962)" style="stroke:#000000; stroke-width:4; stroke-opacity:0.6; fill:none" points="
  1403.2,1064.05 1403.2,1064.05 1436.12,1064.05 1403.2,1064.05 
  "/>
<path clip-path="url(#clip962)" d="
M1436.12 1064.05 L1436.12 1064.05 L1469.05 1064.05 L1469.05 1064.05 L1436.12 1064.05 L1436.12 1064.05  Z
  " fill="#009af9" fill-rule="evenodd" fill-opacity="0.6"/>
<polyline clip-path="url(#clip962)" style="stroke:#000000; stroke-width:4; stroke-opacity:0.6; fill:none" points="
  1436.12,1064.05 1436.12,1064.05 1469.05,1064.05 1436.12,1064.05 
  "/>
<path clip-path="url(#clip962)" d="
M1469.05 1054.21 L1469.05 1064.05 L1501.97 1064.05 L1501.97 1054.21 L1469.05 1054.21 L1469.05 1054.21  Z
  " fill="#009af9" fill-rule="evenodd" fill-opacity="0.6"/>
<polyline clip-path="url(#clip962)" style="stroke:#000000; stroke-width:4; stroke-opacity:0.6; fill:none" points="
  1469.05,1054.21 1469.05,1064.05 1501.97,1064.05 1501.97,1054.21 1469.05,1054.21 
  "/>
<path clip-path="url(#clip962)" d="
M349.728 1014.84 L349.728 1064.05 L382.649 1064.05 L382.649 1014.84 L349.728 1014.84 L349.728 1014.84  Z
  " fill="#e26f46" fill-rule="evenodd" fill-opacity="0.6"/>
<polyline clip-path="url(#clip962)" style="stroke:#000000; stroke-width:4; stroke-opacity:0.6; fill:none" points="
  349.728,1014.84 349.728,1064.05 382.649,1064.05 382.649,1014.84 349.728,1014.84 
  "/>
<path clip-path="url(#clip962)" d="
M382.649 985.314 L382.649 1064.05 L415.57 1064.05 L415.57 985.314 L382.649 985.314 L382.649 985.314  Z
  " fill="#e26f46" fill-rule="evenodd" fill-opacity="0.6"/>
<polyline clip-path="url(#clip962)" style="stroke:#000000; stroke-width:4; stroke-opacity:0.6; fill:none" points="
  382.649,985.314 382.649,1064.05 415.57,1064.05 415.57,985.314 382.649,985.314 
  "/>
<path clip-path="url(#clip962)" d="
M415.57 867.207 L415.57 1064.05 L448.491 1064.05 L448.491 867.207 L415.57 867.207 L415.57 867.207  Z
  " fill="#e26f46" fill-rule="evenodd" fill-opacity="0.6"/>
<polyline clip-path="url(#clip962)" style="stroke:#000000; stroke-width:4; stroke-opacity:0.6; fill:none" points="
  415.57,867.207 415.57,1064.05 448.491,1064.05 448.491,867.207 415.57,867.207 
  "/>
<path clip-path="url(#clip962)" d="
M448.491 650.678 L448.491 1064.05 L481.412 1064.05 L481.412 650.678 L448.491 650.678 L448.491 650.678  Z
  " fill="#e26f46" fill-rule="evenodd" fill-opacity="0.6"/>
<polyline clip-path="url(#clip962)" style="stroke:#000000; stroke-width:4; stroke-opacity:0.6; fill:none" points="
  448.491,650.678 448.491,1064.05 481.412,1064.05 481.412,650.678 448.491,650.678 
  "/>
<path clip-path="url(#clip962)" d="
M481.412 562.098 L481.412 1064.05 L514.333 1064.05 L514.333 562.098 L481.412 562.098 L481.412 562.098  Z
  " fill="#e26f46" fill-rule="evenodd" fill-opacity="0.6"/>
<polyline clip-path="url(#clip962)" style="stroke:#000000; stroke-width:4; stroke-opacity:0.6; fill:none" points="
  481.412,562.098 481.412,1064.05 514.333,1064.05 514.333,562.098 481.412,562.098 
  "/>
<path clip-path="url(#clip962)" d="
M514.333 532.571 L514.333 1064.05 L547.254 1064.05 L547.254 532.571 L514.333 532.571 L514.333 532.571  Z
  " fill="#e26f46" fill-rule="evenodd" fill-opacity="0.6"/>
<polyline clip-path="url(#clip962)" style="stroke:#000000; stroke-width:4; stroke-opacity:0.6; fill:none" points="
  514.333,532.571 514.333,1064.05 547.254,1064.05 547.254,532.571 514.333,532.571 
  "/>
<path clip-path="url(#clip962)" d="
M547.254 493.202 L547.254 1064.05 L580.175 1064.05 L580.175 493.202 L547.254 493.202 L547.254 493.202  Z
  " fill="#e26f46" fill-rule="evenodd" fill-opacity="0.6"/>
<polyline clip-path="url(#clip962)" style="stroke:#000000; stroke-width:4; stroke-opacity:0.6; fill:none" points="
  547.254,493.202 547.254,1064.05 580.175,1064.05 580.175,493.202 547.254,493.202 
  "/>
<path clip-path="url(#clip962)" d="
M580.175 453.834 L580.175 1064.05 L613.097 1064.05 L613.097 453.834 L580.175 453.834 L580.175 453.834  Z
  " fill="#e26f46" fill-rule="evenodd" fill-opacity="0.6"/>
<polyline clip-path="url(#clip962)" style="stroke:#000000; stroke-width:4; stroke-opacity:0.6; fill:none" points="
  580.175,453.834 580.175,1064.05 613.097,1064.05 613.097,453.834 580.175,453.834 
  "/>
<path clip-path="url(#clip962)" d="
M613.097 473.518 L613.097 1064.05 L646.018 1064.05 L646.018 473.518 L613.097 473.518 L613.097 473.518  Z
  " fill="#e26f46" fill-rule="evenodd" fill-opacity="0.6"/>
<polyline clip-path="url(#clip962)" style="stroke:#000000; stroke-width:4; stroke-opacity:0.6; fill:none" points="
  613.097,473.518 613.097,1064.05 646.018,1064.05 646.018,473.518 613.097,473.518 
  "/>
<path clip-path="url(#clip962)" d="
M646.018 581.783 L646.018 1064.05 L678.939 1064.05 L678.939 581.783 L646.018 581.783 L646.018 581.783  Z
  " fill="#e26f46" fill-rule="evenodd" fill-opacity="0.6"/>
<polyline clip-path="url(#clip962)" style="stroke:#000000; stroke-width:4; stroke-opacity:0.6; fill:none" points="
  646.018,581.783 646.018,1064.05 678.939,1064.05 678.939,581.783 646.018,581.783 
  "/>
<path clip-path="url(#clip962)" d="
M678.939 817.996 L678.939 1064.05 L711.86 1064.05 L711.86 817.996 L678.939 817.996 L678.939 817.996  Z
  " fill="#e26f46" fill-rule="evenodd" fill-opacity="0.6"/>
<polyline clip-path="url(#clip962)" style="stroke:#000000; stroke-width:4; stroke-opacity:0.6; fill:none" points="
  678.939,817.996 678.939,1064.05 711.86,1064.05 711.86,817.996 678.939,817.996 
  "/>
<path clip-path="url(#clip962)" d="
M711.86 798.312 L711.86 1064.05 L744.781 1064.05 L744.781 798.312 L711.86 798.312 L711.86 798.312  Z
  " fill="#e26f46" fill-rule="evenodd" fill-opacity="0.6"/>
<polyline clip-path="url(#clip962)" style="stroke:#000000; stroke-width:4; stroke-opacity:0.6; fill:none" points="
  711.86,798.312 711.86,1064.05 744.781,1064.05 744.781,798.312 711.86,798.312 
  "/>
<path clip-path="url(#clip962)" d="
M744.781 857.365 L744.781 1064.05 L777.702 1064.05 L777.702 857.365 L744.781 857.365 L744.781 857.365  Z
  " fill="#e26f46" fill-rule="evenodd" fill-opacity="0.6"/>
<polyline clip-path="url(#clip962)" style="stroke:#000000; stroke-width:4; stroke-opacity:0.6; fill:none" points="
  744.781,857.365 744.781,1064.05 777.702,1064.05 777.702,857.365 744.781,857.365 
  "/>
<path clip-path="url(#clip962)" d="
M777.702 857.365 L777.702 1064.05 L810.623 1064.05 L810.623 857.365 L777.702 857.365 L777.702 857.365  Z
  " fill="#e26f46" fill-rule="evenodd" fill-opacity="0.6"/>
<polyline clip-path="url(#clip962)" style="stroke:#000000; stroke-width:4; stroke-opacity:0.6; fill:none" points="
  777.702,857.365 777.702,1064.05 810.623,1064.05 810.623,857.365 777.702,857.365 
  "/>
<path clip-path="url(#clip962)" d="
M810.623 1005 L810.623 1064.05 L843.544 1064.05 L843.544 1005 L810.623 1005 L810.623 1005  Z
  " fill="#e26f46" fill-rule="evenodd" fill-opacity="0.6"/>
<polyline clip-path="url(#clip962)" style="stroke:#000000; stroke-width:4; stroke-opacity:0.6; fill:none" points="
  810.623,1005 810.623,1064.05 843.544,1064.05 843.544,1005 810.623,1005 
  "/>
<path clip-path="url(#clip962)" d="
M843.544 1014.84 L843.544 1064.05 L876.465 1064.05 L876.465 1014.84 L843.544 1014.84 L843.544 1014.84  Z
  " fill="#e26f46" fill-rule="evenodd" fill-opacity="0.6"/>
<polyline clip-path="url(#clip962)" style="stroke:#000000; stroke-width:4; stroke-opacity:0.6; fill:none" points="
  843.544,1014.84 843.544,1064.05 876.465,1064.05 876.465,1014.84 843.544,1014.84 
  "/>
<path clip-path="url(#clip962)" d="
M876.465 1024.68 L876.465 1064.05 L909.386 1064.05 L909.386 1024.68 L876.465 1024.68 L876.465 1024.68  Z
  " fill="#e26f46" fill-rule="evenodd" fill-opacity="0.6"/>
<polyline clip-path="url(#clip962)" style="stroke:#000000; stroke-width:4; stroke-opacity:0.6; fill:none" points="
  876.465,1024.68 876.465,1064.05 909.386,1064.05 909.386,1024.68 876.465,1024.68 
  "/>
<path clip-path="url(#clip962)" d="
M909.386 1044.37 L909.386 1064.05 L942.308 1064.05 L942.308 1044.37 L909.386 1044.37 L909.386 1044.37  Z
  " fill="#e26f46" fill-rule="evenodd" fill-opacity="0.6"/>
<polyline clip-path="url(#clip962)" style="stroke:#000000; stroke-width:4; stroke-opacity:0.6; fill:none" points="
  909.386,1044.37 909.386,1064.05 942.308,1064.05 942.308,1044.37 909.386,1044.37 
  "/>
<path clip-path="url(#clip960)" d="
M1080.45 514.362 L1529.13 514.362 L1529.13 310.242 L1080.45 310.242  Z
  " fill="#ffffff" fill-rule="evenodd" fill-opacity="1"/>
<polyline clip-path="url(#clip960)" style="stroke:#000000; stroke-width:4; stroke-opacity:0; fill:none" points="
  1080.45,514.362 1529.13,514.362 1529.13,310.242 1080.45,310.242 1080.45,514.362 
  "/>
<path clip-path="url(#clip960)" d="
M1094.62 405.498 L1179.67 405.498 L1179.67 351.066 L1094.62 351.066 L1094.62 405.498  Z
  " fill="#009af9" fill-rule="evenodd" fill-opacity="0.6"/>
<polyline clip-path="url(#clip960)" style="stroke:#000000; stroke-width:4; stroke-opacity:1; fill:none" points="
  1094.62,405.498 1179.67,405.498 1179.67,351.066 1094.62,351.066 1094.62,405.498 
  "/>
<g clip-path="url(#clip960)">
<text style="fill:#000000; fill-opacity:1; font-family:Arial,Helvetica Neue,Helvetica,sans-serif; font-size:53px; text-anchor:start;" transform="rotate(0, 1193.85, 397.782)" x="1193.85" y="397.782">Control data</text>
</g>
<path clip-path="url(#clip960)" d="
M1094.62 473.538 L1179.67 473.538 L1179.67 419.106 L1094.62 419.106 L1094.62 473.538  Z
  " fill="#e26f46" fill-rule="evenodd" fill-opacity="0.6"/>
<polyline clip-path="url(#clip960)" style="stroke:#000000; stroke-width:4; stroke-opacity:1; fill:none" points="
  1094.62,473.538 1179.67,473.538 1179.67,419.106 1094.62,419.106 1094.62,473.538 
  "/>
<g clip-path="url(#clip960)">
<text style="fill:#000000; fill-opacity:1; font-family:Arial,Helvetica Neue,Helvetica,sans-serif; font-size:53px; text-anchor:start;" transform="rotate(0, 1193.85, 465.822)" x="1193.85" y="465.822">Gamma dist.</text>
</g>
<path clip-path="url(#clip960)" d="
M2095.84 1086.79 L3371.65 1086.79 L3371.65 283.465 L2095.84 283.465  Z
  " fill="#ffffff" fill-rule="evenodd" fill-opacity="1"/>
<defs>
  <clipPath id="clip963">
    <rect x="2095" y="283" width="1277" height="804"/>
  </clipPath>
</defs>
<polyline clip-path="url(#clip963)" style="stroke:#000000; stroke-width:2; stroke-opacity:0.1; fill:none" points="
  2338.34,1086.79 2338.34,283.465 
  "/>
<polyline clip-path="url(#clip963)" style="stroke:#000000; stroke-width:2; stroke-opacity:0.1; fill:none" points="
  2659.81,1086.79 2659.81,283.465 
  "/>
<polyline clip-path="url(#clip963)" style="stroke:#000000; stroke-width:2; stroke-opacity:0.1; fill:none" points="
  2981.28,1086.79 2981.28,283.465 
  "/>
<polyline clip-path="url(#clip963)" style="stroke:#000000; stroke-width:2; stroke-opacity:0.1; fill:none" points="
  3302.76,1086.79 3302.76,283.465 
  "/>
<polyline clip-path="url(#clip960)" style="stroke:#000000; stroke-width:4; stroke-opacity:1; fill:none" points="
  2095.84,1086.79 3371.65,1086.79 
  "/>
<polyline clip-path="url(#clip960)" style="stroke:#000000; stroke-width:4; stroke-opacity:1; fill:none" points="
  2338.34,1086.79 2338.34,1077.15 
  "/>
<polyline clip-path="url(#clip960)" style="stroke:#000000; stroke-width:4; stroke-opacity:1; fill:none" points="
  2659.81,1086.79 2659.81,1077.15 
  "/>
<polyline clip-path="url(#clip960)" style="stroke:#000000; stroke-width:4; stroke-opacity:1; fill:none" points="
  2981.28,1086.79 2981.28,1077.15 
  "/>
<polyline clip-path="url(#clip960)" style="stroke:#000000; stroke-width:4; stroke-opacity:1; fill:none" points="
  3302.76,1086.79 3302.76,1077.15 
  "/>
<g clip-path="url(#clip960)">
<text style="fill:#000000; fill-opacity:1; font-family:Arial,Helvetica Neue,Helvetica,sans-serif; font-size:71px; text-anchor:middle;" transform="rotate(0, 2338.34, 1177.99)" x="2338.34" y="1177.99">20</text>
</g>
<g clip-path="url(#clip960)">
<text style="fill:#000000; fill-opacity:1; font-family:Arial,Helvetica Neue,Helvetica,sans-serif; font-size:71px; text-anchor:middle;" transform="rotate(0, 2659.81, 1177.99)" x="2659.81" y="1177.99">40</text>
</g>
<g clip-path="url(#clip960)">
<text style="fill:#000000; fill-opacity:1; font-family:Arial,Helvetica Neue,Helvetica,sans-serif; font-size:71px; text-anchor:middle;" transform="rotate(0, 2981.28, 1177.99)" x="2981.28" y="1177.99">60</text>
</g>
<g clip-path="url(#clip960)">
<text style="fill:#000000; fill-opacity:1; font-family:Arial,Helvetica Neue,Helvetica,sans-serif; font-size:71px; text-anchor:middle;" transform="rotate(0, 3302.76, 1177.99)" x="3302.76" y="1177.99">80</text>
</g>
<g clip-path="url(#clip960)">
<text style="fill:#000000; fill-opacity:1; font-family:Arial,Helvetica Neue,Helvetica,sans-serif; font-size:71px; text-anchor:middle;" transform="rotate(0, 2733.75, 1281.29)" x="2733.75" y="1281.29">time[hr]</text>
</g>
<polyline clip-path="url(#clip963)" style="stroke:#000000; stroke-width:2; stroke-opacity:0.1; fill:none" points="
  2095.84,1064.05 3371.65,1064.05 
  "/>
<polyline clip-path="url(#clip963)" style="stroke:#000000; stroke-width:2; stroke-opacity:0.1; fill:none" points="
  2095.84,876.465 3371.65,876.465 
  "/>
<polyline clip-path="url(#clip963)" style="stroke:#000000; stroke-width:2; stroke-opacity:0.1; fill:none" points="
  2095.84,688.878 3371.65,688.878 
  "/>
<polyline clip-path="url(#clip963)" style="stroke:#000000; stroke-width:2; stroke-opacity:0.1; fill:none" points="
  2095.84,501.291 3371.65,501.291 
  "/>
<polyline clip-path="url(#clip963)" style="stroke:#000000; stroke-width:2; stroke-opacity:0.1; fill:none" points="
  2095.84,313.704 3371.65,313.704 
  "/>
<polyline clip-path="url(#clip960)" style="stroke:#000000; stroke-width:4; stroke-opacity:1; fill:none" points="
  2095.84,1086.79 2095.84,283.465 
  "/>
<polyline clip-path="url(#clip960)" style="stroke:#000000; stroke-width:4; stroke-opacity:1; fill:none" points="
  2095.84,1064.05 2111.15,1064.05 
  "/>
<polyline clip-path="url(#clip960)" style="stroke:#000000; stroke-width:4; stroke-opacity:1; fill:none" points="
  2095.84,876.465 2111.15,876.465 
  "/>
<polyline clip-path="url(#clip960)" style="stroke:#000000; stroke-width:4; stroke-opacity:1; fill:none" points="
  2095.84,688.878 2111.15,688.878 
  "/>
<polyline clip-path="url(#clip960)" style="stroke:#000000; stroke-width:4; stroke-opacity:1; fill:none" points="
  2095.84,501.291 2111.15,501.291 
  "/>
<polyline clip-path="url(#clip960)" style="stroke:#000000; stroke-width:4; stroke-opacity:1; fill:none" points="
  2095.84,313.704 2111.15,313.704 
  "/>
<g clip-path="url(#clip960)">
<text style="fill:#000000; fill-opacity:1; font-family:Arial,Helvetica Neue,Helvetica,sans-serif; font-size:71px; text-anchor:end;" transform="rotate(0, 2041.84, 1090.05)" x="2041.84" y="1090.05">0</text>
</g>
<g clip-path="url(#clip960)">
<text style="fill:#000000; fill-opacity:1; font-family:Arial,Helvetica Neue,Helvetica,sans-serif; font-size:71px; text-anchor:end;" transform="rotate(0, 2041.84, 902.465)" x="2041.84" y="902.465">25</text>
</g>
<g clip-path="url(#clip960)">
<text style="fill:#000000; fill-opacity:1; font-family:Arial,Helvetica Neue,Helvetica,sans-serif; font-size:71px; text-anchor:end;" transform="rotate(0, 2041.84, 714.878)" x="2041.84" y="714.878">50</text>
</g>
<g clip-path="url(#clip960)">
<text style="fill:#000000; fill-opacity:1; font-family:Arial,Helvetica Neue,Helvetica,sans-serif; font-size:71px; text-anchor:end;" transform="rotate(0, 2041.84, 527.291)" x="2041.84" y="527.291">75</text>
</g>
<g clip-path="url(#clip960)">
<text style="fill:#000000; fill-opacity:1; font-family:Arial,Helvetica Neue,Helvetica,sans-serif; font-size:71px; text-anchor:end;" transform="rotate(0, 2041.84, 339.704)" x="2041.84" y="339.704">100</text>
</g>
<g clip-path="url(#clip960)">
<text style="fill:#000000; fill-opacity:1; font-family:Arial,Helvetica Neue,Helvetica,sans-serif; font-size:71px; text-anchor:middle;" transform="rotate(-90, 1854.36, 685.126)" x="1854.36" y="685.126">abundance</text>
</g>
<g clip-path="url(#clip960)">
<text style="fill:#000000; fill-opacity:1; font-family:Arial,Helvetica Neue,Helvetica,sans-serif; font-size:71px; text-anchor:middle;" transform="rotate(0, 2733.75, 62.4)" x="2733.75" y="62.4">S/G2 phase lengths</text>
</g>
<path clip-path="url(#clip963)" d="
M2209.75 1056.55 L2209.75 1064.05 L2241.89 1064.05 L2241.89 1056.55 L2209.75 1056.55 L2209.75 1056.55  Z
  " fill="#009af9" fill-rule="evenodd" fill-opacity="0.6"/>
<polyline clip-path="url(#clip963)" style="stroke:#000000; stroke-width:4; stroke-opacity:0.6; fill:none" points="
  2209.75,1056.55 2209.75,1064.05 2241.89,1064.05 2241.89,1056.55 2209.75,1056.55 
  "/>
<path clip-path="url(#clip963)" d="
M2241.89 966.507 L2241.89 1064.05 L2274.04 1064.05 L2274.04 966.507 L2241.89 966.507 L2241.89 966.507  Z
  " fill="#009af9" fill-rule="evenodd" fill-opacity="0.6"/>
<polyline clip-path="url(#clip963)" style="stroke:#000000; stroke-width:4; stroke-opacity:0.6; fill:none" points="
  2241.89,966.507 2241.89,1064.05 2274.04,1064.05 2274.04,966.507 2241.89,966.507 
  "/>
<path clip-path="url(#clip963)" d="
M2274.04 643.857 L2274.04 1064.05 L2306.19 1064.05 L2306.19 643.857 L2274.04 643.857 L2274.04 643.857  Z
  " fill="#009af9" fill-rule="evenodd" fill-opacity="0.6"/>
<polyline clip-path="url(#clip963)" style="stroke:#000000; stroke-width:4; stroke-opacity:0.6; fill:none" points="
  2274.04,643.857 2274.04,1064.05 2306.19,1064.05 2306.19,643.857 2274.04,643.857 
  "/>
<path clip-path="url(#clip963)" d="
M2306.19 418.752 L2306.19 1064.05 L2338.34 1064.05 L2338.34 418.752 L2306.19 418.752 L2306.19 418.752  Z
  " fill="#009af9" fill-rule="evenodd" fill-opacity="0.6"/>
<polyline clip-path="url(#clip963)" style="stroke:#000000; stroke-width:4; stroke-opacity:0.6; fill:none" points="
  2306.19,418.752 2306.19,1064.05 2338.34,1064.05 2338.34,418.752 2306.19,418.752 
  "/>
<path clip-path="url(#clip963)" d="
M2338.34 313.704 L2338.34 1064.05 L2370.48 1064.05 L2370.48 313.704 L2338.34 313.704 L2338.34 313.704  Z
  " fill="#009af9" fill-rule="evenodd" fill-opacity="0.6"/>
<polyline clip-path="url(#clip963)" style="stroke:#000000; stroke-width:4; stroke-opacity:0.6; fill:none" points="
  2338.34,313.704 2338.34,1064.05 2370.48,1064.05 2370.48,313.704 2338.34,313.704 
  "/>
<path clip-path="url(#clip963)" d="
M2370.48 433.759 L2370.48 1064.05 L2402.63 1064.05 L2402.63 433.759 L2370.48 433.759 L2370.48 433.759  Z
  " fill="#009af9" fill-rule="evenodd" fill-opacity="0.6"/>
<polyline clip-path="url(#clip963)" style="stroke:#000000; stroke-width:4; stroke-opacity:0.6; fill:none" points="
  2370.48,433.759 2370.48,1064.05 2402.63,1064.05 2402.63,433.759 2370.48,433.759 
  "/>
<path clip-path="url(#clip963)" d="
M2402.63 523.801 L2402.63 1064.05 L2434.78 1064.05 L2434.78 523.801 L2402.63 523.801 L2402.63 523.801  Z
  " fill="#009af9" fill-rule="evenodd" fill-opacity="0.6"/>
<polyline clip-path="url(#clip963)" style="stroke:#000000; stroke-width:4; stroke-opacity:0.6; fill:none" points="
  2402.63,523.801 2402.63,1064.05 2434.78,1064.05 2434.78,523.801 2402.63,523.801 
  "/>
<path clip-path="url(#clip963)" d="
M2434.78 741.402 L2434.78 1064.05 L2466.93 1064.05 L2466.93 741.402 L2434.78 741.402 L2434.78 741.402  Z
  " fill="#009af9" fill-rule="evenodd" fill-opacity="0.6"/>
<polyline clip-path="url(#clip963)" style="stroke:#000000; stroke-width:4; stroke-opacity:0.6; fill:none" points="
  2434.78,741.402 2434.78,1064.05 2466.93,1064.05 2466.93,741.402 2434.78,741.402 
  "/>
<path clip-path="url(#clip963)" d="
M2466.93 868.961 L2466.93 1064.05 L2499.07 1064.05 L2499.07 868.961 L2466.93 868.961 L2466.93 868.961  Z
  " fill="#009af9" fill-rule="evenodd" fill-opacity="0.6"/>
<polyline clip-path="url(#clip963)" style="stroke:#000000; stroke-width:4; stroke-opacity:0.6; fill:none" points="
  2466.93,868.961 2466.93,1064.05 2499.07,1064.05 2499.07,868.961 2466.93,868.961 
  "/>
<path clip-path="url(#clip963)" d="
M2499.07 951.5 L2499.07 1064.05 L2531.22 1064.05 L2531.22 951.5 L2499.07 951.5 L2499.07 951.5  Z
  " fill="#009af9" fill-rule="evenodd" fill-opacity="0.6"/>
<polyline clip-path="url(#clip963)" style="stroke:#000000; stroke-width:4; stroke-opacity:0.6; fill:none" points="
  2499.07,951.5 2499.07,1064.05 2531.22,1064.05 2531.22,951.5 2499.07,951.5 
  "/>
<path clip-path="url(#clip963)" d="
M2531.22 989.017 L2531.22 1064.05 L2563.37 1064.05 L2563.37 989.017 L2531.22 989.017 L2531.22 989.017  Z
  " fill="#009af9" fill-rule="evenodd" fill-opacity="0.6"/>
<polyline clip-path="url(#clip963)" style="stroke:#000000; stroke-width:4; stroke-opacity:0.6; fill:none" points="
  2531.22,989.017 2531.22,1064.05 2563.37,1064.05 2563.37,989.017 2531.22,989.017 
  "/>
<path clip-path="url(#clip963)" d="
M2563.37 1041.54 L2563.37 1064.05 L2595.51 1064.05 L2595.51 1041.54 L2563.37 1041.54 L2563.37 1041.54  Z
  " fill="#009af9" fill-rule="evenodd" fill-opacity="0.6"/>
<polyline clip-path="url(#clip963)" style="stroke:#000000; stroke-width:4; stroke-opacity:0.6; fill:none" points="
  2563.37,1041.54 2563.37,1064.05 2595.51,1064.05 2595.51,1041.54 2563.37,1041.54 
  "/>
<path clip-path="url(#clip963)" d="
M2595.51 1064.05 L2595.51 1064.05 L2627.66 1064.05 L2627.66 1064.05 L2595.51 1064.05 L2595.51 1064.05  Z
  " fill="#009af9" fill-rule="evenodd" fill-opacity="0.6"/>
<polyline clip-path="url(#clip963)" style="stroke:#000000; stroke-width:4; stroke-opacity:0.6; fill:none" points="
  2595.51,1064.05 2595.51,1064.05 2627.66,1064.05 2595.51,1064.05 
  "/>
<path clip-path="url(#clip963)" d="
M2627.66 1049.04 L2627.66 1064.05 L2659.81 1064.05 L2659.81 1049.04 L2627.66 1049.04 L2627.66 1049.04  Z
  " fill="#009af9" fill-rule="evenodd" fill-opacity="0.6"/>
<polyline clip-path="url(#clip963)" style="stroke:#000000; stroke-width:4; stroke-opacity:0.6; fill:none" points="
  2627.66,1049.04 2627.66,1064.05 2659.81,1064.05 2659.81,1049.04 2627.66,1049.04 
  "/>
<path clip-path="url(#clip963)" d="
M2659.81 1064.05 L2659.81 1064.05 L2691.96 1064.05 L2691.96 1064.05 L2659.81 1064.05 L2659.81 1064.05  Z
  " fill="#009af9" fill-rule="evenodd" fill-opacity="0.6"/>
<polyline clip-path="url(#clip963)" style="stroke:#000000; stroke-width:4; stroke-opacity:0.6; fill:none" points="
  2659.81,1064.05 2659.81,1064.05 2691.96,1064.05 2659.81,1064.05 
  "/>
<path clip-path="url(#clip963)" d="
M2691.96 1064.05 L2691.96 1064.05 L2724.1 1064.05 L2724.1 1064.05 L2691.96 1064.05 L2691.96 1064.05  Z
  " fill="#009af9" fill-rule="evenodd" fill-opacity="0.6"/>
<polyline clip-path="url(#clip963)" style="stroke:#000000; stroke-width:4; stroke-opacity:0.6; fill:none" points="
  2691.96,1064.05 2691.96,1064.05 2724.1,1064.05 2691.96,1064.05 
  "/>
<path clip-path="url(#clip963)" d="
M2724.1 1064.05 L2724.1 1064.05 L2756.25 1064.05 L2756.25 1064.05 L2724.1 1064.05 L2724.1 1064.05  Z
  " fill="#009af9" fill-rule="evenodd" fill-opacity="0.6"/>
<polyline clip-path="url(#clip963)" style="stroke:#000000; stroke-width:4; stroke-opacity:0.6; fill:none" points="
  2724.1,1064.05 2724.1,1064.05 2756.25,1064.05 2724.1,1064.05 
  "/>
<path clip-path="url(#clip963)" d="
M2756.25 1064.05 L2756.25 1064.05 L2788.4 1064.05 L2788.4 1064.05 L2756.25 1064.05 L2756.25 1064.05  Z
  " fill="#009af9" fill-rule="evenodd" fill-opacity="0.6"/>
<polyline clip-path="url(#clip963)" style="stroke:#000000; stroke-width:4; stroke-opacity:0.6; fill:none" points="
  2756.25,1064.05 2756.25,1064.05 2788.4,1064.05 2756.25,1064.05 
  "/>
<path clip-path="url(#clip963)" d="
M2788.4 1056.55 L2788.4 1064.05 L2820.55 1064.05 L2820.55 1056.55 L2788.4 1056.55 L2788.4 1056.55  Z
  " fill="#009af9" fill-rule="evenodd" fill-opacity="0.6"/>
<polyline clip-path="url(#clip963)" style="stroke:#000000; stroke-width:4; stroke-opacity:0.6; fill:none" points="
  2788.4,1056.55 2788.4,1064.05 2820.55,1064.05 2820.55,1056.55 2788.4,1056.55 
  "/>
<path clip-path="url(#clip963)" d="
M2820.55 1064.05 L2820.55 1064.05 L2852.69 1064.05 L2852.69 1064.05 L2820.55 1064.05 L2820.55 1064.05  Z
  " fill="#009af9" fill-rule="evenodd" fill-opacity="0.6"/>
<polyline clip-path="url(#clip963)" style="stroke:#000000; stroke-width:4; stroke-opacity:0.6; fill:none" points="
  2820.55,1064.05 2820.55,1064.05 2852.69,1064.05 2820.55,1064.05 
  "/>
<path clip-path="url(#clip963)" d="
M2852.69 1064.05 L2852.69 1064.05 L2884.84 1064.05 L2884.84 1064.05 L2852.69 1064.05 L2852.69 1064.05  Z
  " fill="#009af9" fill-rule="evenodd" fill-opacity="0.6"/>
<polyline clip-path="url(#clip963)" style="stroke:#000000; stroke-width:4; stroke-opacity:0.6; fill:none" points="
  2852.69,1064.05 2852.69,1064.05 2884.84,1064.05 2852.69,1064.05 
  "/>
<path clip-path="url(#clip963)" d="
M2884.84 1064.05 L2884.84 1064.05 L2916.99 1064.05 L2916.99 1064.05 L2884.84 1064.05 L2884.84 1064.05  Z
  " fill="#009af9" fill-rule="evenodd" fill-opacity="0.6"/>
<polyline clip-path="url(#clip963)" style="stroke:#000000; stroke-width:4; stroke-opacity:0.6; fill:none" points="
  2884.84,1064.05 2884.84,1064.05 2916.99,1064.05 2884.84,1064.05 
  "/>
<path clip-path="url(#clip963)" d="
M2916.99 1064.05 L2916.99 1064.05 L2949.14 1064.05 L2949.14 1064.05 L2916.99 1064.05 L2916.99 1064.05  Z
  " fill="#009af9" fill-rule="evenodd" fill-opacity="0.6"/>
<polyline clip-path="url(#clip963)" style="stroke:#000000; stroke-width:4; stroke-opacity:0.6; fill:none" points="
  2916.99,1064.05 2916.99,1064.05 2949.14,1064.05 2916.99,1064.05 
  "/>
<path clip-path="url(#clip963)" d="
M2949.14 1064.05 L2949.14 1064.05 L2981.28 1064.05 L2981.28 1064.05 L2949.14 1064.05 L2949.14 1064.05  Z
  " fill="#009af9" fill-rule="evenodd" fill-opacity="0.6"/>
<polyline clip-path="url(#clip963)" style="stroke:#000000; stroke-width:4; stroke-opacity:0.6; fill:none" points="
  2949.14,1064.05 2949.14,1064.05 2981.28,1064.05 2949.14,1064.05 
  "/>
<path clip-path="url(#clip963)" d="
M2981.28 1064.05 L2981.28 1064.05 L3013.43 1064.05 L3013.43 1064.05 L2981.28 1064.05 L2981.28 1064.05  Z
  " fill="#009af9" fill-rule="evenodd" fill-opacity="0.6"/>
<polyline clip-path="url(#clip963)" style="stroke:#000000; stroke-width:4; stroke-opacity:0.6; fill:none" points="
  2981.28,1064.05 2981.28,1064.05 3013.43,1064.05 2981.28,1064.05 
  "/>
<path clip-path="url(#clip963)" d="
M3013.43 1056.55 L3013.43 1064.05 L3045.58 1064.05 L3045.58 1056.55 L3013.43 1056.55 L3013.43 1056.55  Z
  " fill="#009af9" fill-rule="evenodd" fill-opacity="0.6"/>
<polyline clip-path="url(#clip963)" style="stroke:#000000; stroke-width:4; stroke-opacity:0.6; fill:none" points="
  3013.43,1056.55 3013.43,1064.05 3045.58,1064.05 3045.58,1056.55 3013.43,1056.55 
  "/>
<path clip-path="url(#clip963)" d="
M3045.58 1064.05 L3045.58 1064.05 L3077.72 1064.05 L3077.72 1064.05 L3045.58 1064.05 L3045.58 1064.05  Z
  " fill="#009af9" fill-rule="evenodd" fill-opacity="0.6"/>
<polyline clip-path="url(#clip963)" style="stroke:#000000; stroke-width:4; stroke-opacity:0.6; fill:none" points="
  3045.58,1064.05 3045.58,1064.05 3077.72,1064.05 3045.58,1064.05 
  "/>
<path clip-path="url(#clip963)" d="
M3077.72 1064.05 L3077.72 1064.05 L3109.87 1064.05 L3109.87 1064.05 L3077.72 1064.05 L3077.72 1064.05  Z
  " fill="#009af9" fill-rule="evenodd" fill-opacity="0.6"/>
<polyline clip-path="url(#clip963)" style="stroke:#000000; stroke-width:4; stroke-opacity:0.6; fill:none" points="
  3077.72,1064.05 3077.72,1064.05 3109.87,1064.05 3077.72,1064.05 
  "/>
<path clip-path="url(#clip963)" d="
M3109.87 1064.05 L3109.87 1064.05 L3142.02 1064.05 L3142.02 1064.05 L3109.87 1064.05 L3109.87 1064.05  Z
  " fill="#009af9" fill-rule="evenodd" fill-opacity="0.6"/>
<polyline clip-path="url(#clip963)" style="stroke:#000000; stroke-width:4; stroke-opacity:0.6; fill:none" points="
  3109.87,1064.05 3109.87,1064.05 3142.02,1064.05 3109.87,1064.05 
  "/>
<path clip-path="url(#clip963)" d="
M3142.02 1064.05 L3142.02 1064.05 L3174.17 1064.05 L3174.17 1064.05 L3142.02 1064.05 L3142.02 1064.05  Z
  " fill="#009af9" fill-rule="evenodd" fill-opacity="0.6"/>
<polyline clip-path="url(#clip963)" style="stroke:#000000; stroke-width:4; stroke-opacity:0.6; fill:none" points="
  3142.02,1064.05 3142.02,1064.05 3174.17,1064.05 3142.02,1064.05 
  "/>
<path clip-path="url(#clip963)" d="
M3174.17 1064.05 L3174.17 1064.05 L3206.31 1064.05 L3206.31 1064.05 L3174.17 1064.05 L3174.17 1064.05  Z
  " fill="#009af9" fill-rule="evenodd" fill-opacity="0.6"/>
<polyline clip-path="url(#clip963)" style="stroke:#000000; stroke-width:4; stroke-opacity:0.6; fill:none" points="
  3174.17,1064.05 3174.17,1064.05 3206.31,1064.05 3174.17,1064.05 
  "/>
<path clip-path="url(#clip963)" d="
M3206.31 1064.05 L3206.31 1064.05 L3238.46 1064.05 L3238.46 1064.05 L3206.31 1064.05 L3206.31 1064.05  Z
  " fill="#009af9" fill-rule="evenodd" fill-opacity="0.6"/>
<polyline clip-path="url(#clip963)" style="stroke:#000000; stroke-width:4; stroke-opacity:0.6; fill:none" points="
  3206.31,1064.05 3206.31,1064.05 3238.46,1064.05 3206.31,1064.05 
  "/>
<path clip-path="url(#clip963)" d="
M3238.46 1064.05 L3238.46 1064.05 L3270.61 1064.05 L3270.61 1064.05 L3238.46 1064.05 L3238.46 1064.05  Z
  " fill="#009af9" fill-rule="evenodd" fill-opacity="0.6"/>
<polyline clip-path="url(#clip963)" style="stroke:#000000; stroke-width:4; stroke-opacity:0.6; fill:none" points="
  3238.46,1064.05 3238.46,1064.05 3270.61,1064.05 3238.46,1064.05 
  "/>
<path clip-path="url(#clip963)" d="
M3270.61 1056.55 L3270.61 1064.05 L3302.76 1064.05 L3302.76 1056.55 L3270.61 1056.55 L3270.61 1056.55  Z
  " fill="#009af9" fill-rule="evenodd" fill-opacity="0.6"/>
<polyline clip-path="url(#clip963)" style="stroke:#000000; stroke-width:4; stroke-opacity:0.6; fill:none" points="
  3270.61,1056.55 3270.61,1064.05 3302.76,1064.05 3302.76,1056.55 3270.61,1056.55 
  "/>
<path clip-path="url(#clip963)" d="
M2145.45 1049.04 L2145.45 1064.05 L2177.6 1064.05 L2177.6 1049.04 L2145.45 1049.04 L2145.45 1049.04  Z
  " fill="#e26f46" fill-rule="evenodd" fill-opacity="0.6"/>
<polyline clip-path="url(#clip963)" style="stroke:#000000; stroke-width:4; stroke-opacity:0.6; fill:none" points="
  2145.45,1049.04 2145.45,1064.05 2177.6,1064.05 2177.6,1049.04 2145.45,1049.04 
  "/>
<path clip-path="url(#clip963)" d="
M2177.6 989.017 L2177.6 1064.05 L2209.75 1064.05 L2209.75 989.017 L2177.6 989.017 L2177.6 989.017  Z
  " fill="#e26f46" fill-rule="evenodd" fill-opacity="0.6"/>
<polyline clip-path="url(#clip963)" style="stroke:#000000; stroke-width:4; stroke-opacity:0.6; fill:none" points="
  2177.6,989.017 2177.6,1064.05 2209.75,1064.05 2209.75,989.017 2177.6,989.017 
  "/>
<path clip-path="url(#clip963)" d="
M2209.75 883.968 L2209.75 1064.05 L2241.89 1064.05 L2241.89 883.968 L2209.75 883.968 L2209.75 883.968  Z
  " fill="#e26f46" fill-rule="evenodd" fill-opacity="0.6"/>
<polyline clip-path="url(#clip963)" style="stroke:#000000; stroke-width:4; stroke-opacity:0.6; fill:none" points="
  2209.75,883.968 2209.75,1064.05 2241.89,1064.05 2241.89,883.968 2209.75,883.968 
  "/>
<path clip-path="url(#clip963)" d="
M2241.89 681.374 L2241.89 1064.05 L2274.04 1064.05 L2274.04 681.374 L2241.89 681.374 L2241.89 681.374  Z
  " fill="#e26f46" fill-rule="evenodd" fill-opacity="0.6"/>
<polyline clip-path="url(#clip963)" style="stroke:#000000; stroke-width:4; stroke-opacity:0.6; fill:none" points="
  2241.89,681.374 2241.89,1064.05 2274.04,1064.05 2274.04,681.374 2241.89,681.374 
  "/>
<path clip-path="url(#clip963)" d="
M2274.04 433.759 L2274.04 1064.05 L2306.19 1064.05 L2306.19 433.759 L2274.04 433.759 L2274.04 433.759  Z
  " fill="#e26f46" fill-rule="evenodd" fill-opacity="0.6"/>
<polyline clip-path="url(#clip963)" style="stroke:#000000; stroke-width:4; stroke-opacity:0.6; fill:none" points="
  2274.04,433.759 2274.04,1064.05 2306.19,1064.05 2306.19,433.759 2274.04,433.759 
  "/>
<path clip-path="url(#clip963)" d="
M2306.19 306.2 L2306.19 1064.05 L2338.34 1064.05 L2338.34 306.2 L2306.19 306.2 L2306.19 306.2  Z
  " fill="#e26f46" fill-rule="evenodd" fill-opacity="0.6"/>
<polyline clip-path="url(#clip963)" style="stroke:#000000; stroke-width:4; stroke-opacity:0.6; fill:none" points="
  2306.19,306.2 2306.19,1064.05 2338.34,1064.05 2338.34,306.2 2306.19,306.2 
  "/>
<path clip-path="url(#clip963)" d="
M2338.34 486.284 L2338.34 1064.05 L2370.48 1064.05 L2370.48 486.284 L2338.34 486.284 L2338.34 486.284  Z
  " fill="#e26f46" fill-rule="evenodd" fill-opacity="0.6"/>
<polyline clip-path="url(#clip963)" style="stroke:#000000; stroke-width:4; stroke-opacity:0.6; fill:none" points="
  2338.34,486.284 2338.34,1064.05 2370.48,1064.05 2370.48,486.284 2338.34,486.284 
  "/>
<path clip-path="url(#clip963)" d="
M2370.48 591.332 L2370.48 1064.05 L2402.63 1064.05 L2402.63 591.332 L2370.48 591.332 L2370.48 591.332  Z
  " fill="#e26f46" fill-rule="evenodd" fill-opacity="0.6"/>
<polyline clip-path="url(#clip963)" style="stroke:#000000; stroke-width:4; stroke-opacity:0.6; fill:none" points="
  2370.48,591.332 2370.48,1064.05 2402.63,1064.05 2402.63,591.332 2370.48,591.332 
  "/>
<path clip-path="url(#clip963)" d="
M2402.63 711.388 L2402.63 1064.05 L2434.78 1064.05 L2434.78 711.388 L2402.63 711.388 L2402.63 711.388  Z
  " fill="#e26f46" fill-rule="evenodd" fill-opacity="0.6"/>
<polyline clip-path="url(#clip963)" style="stroke:#000000; stroke-width:4; stroke-opacity:0.6; fill:none" points="
  2402.63,711.388 2402.63,1064.05 2434.78,1064.05 2434.78,711.388 2402.63,711.388 
  "/>
<path clip-path="url(#clip963)" d="
M2434.78 876.465 L2434.78 1064.05 L2466.93 1064.05 L2466.93 876.465 L2434.78 876.465 L2434.78 876.465  Z
  " fill="#e26f46" fill-rule="evenodd" fill-opacity="0.6"/>
<polyline clip-path="url(#clip963)" style="stroke:#000000; stroke-width:4; stroke-opacity:0.6; fill:none" points="
  2434.78,876.465 2434.78,1064.05 2466.93,1064.05 2466.93,876.465 2434.78,876.465 
  "/>
<path clip-path="url(#clip963)" d="
M2466.93 943.996 L2466.93 1064.05 L2499.07 1064.05 L2499.07 943.996 L2466.93 943.996 L2466.93 943.996  Z
  " fill="#e26f46" fill-rule="evenodd" fill-opacity="0.6"/>
<polyline clip-path="url(#clip963)" style="stroke:#000000; stroke-width:4; stroke-opacity:0.6; fill:none" points="
  2466.93,943.996 2466.93,1064.05 2499.07,1064.05 2499.07,943.996 2466.93,943.996 
  "/>
<path clip-path="url(#clip963)" d="
M2499.07 996.521 L2499.07 1064.05 L2531.22 1064.05 L2531.22 996.521 L2499.07 996.521 L2499.07 996.521  Z
  " fill="#e26f46" fill-rule="evenodd" fill-opacity="0.6"/>
<polyline clip-path="url(#clip963)" style="stroke:#000000; stroke-width:4; stroke-opacity:0.6; fill:none" points="
  2499.07,996.521 2499.07,1064.05 2531.22,1064.05 2531.22,996.521 2499.07,996.521 
  "/>
<path clip-path="url(#clip963)" d="
M2531.22 1041.54 L2531.22 1064.05 L2563.37 1064.05 L2563.37 1041.54 L2531.22 1041.54 L2531.22 1041.54  Z
  " fill="#e26f46" fill-rule="evenodd" fill-opacity="0.6"/>
<polyline clip-path="url(#clip963)" style="stroke:#000000; stroke-width:4; stroke-opacity:0.6; fill:none" points="
  2531.22,1041.54 2531.22,1064.05 2563.37,1064.05 2563.37,1041.54 2531.22,1041.54 
  "/>
<path clip-path="url(#clip963)" d="
M2563.37 1049.04 L2563.37 1064.05 L2595.51 1064.05 L2595.51 1049.04 L2563.37 1049.04 L2563.37 1049.04  Z
  " fill="#e26f46" fill-rule="evenodd" fill-opacity="0.6"/>
<polyline clip-path="url(#clip963)" style="stroke:#000000; stroke-width:4; stroke-opacity:0.6; fill:none" points="
  2563.37,1049.04 2563.37,1064.05 2595.51,1064.05 2595.51,1049.04 2563.37,1049.04 
  "/>
<path clip-path="url(#clip960)" d="
M2880.45 514.362 L3329.13 514.362 L3329.13 310.242 L2880.45 310.242  Z
  " fill="#ffffff" fill-rule="evenodd" fill-opacity="1"/>
<polyline clip-path="url(#clip960)" style="stroke:#000000; stroke-width:4; stroke-opacity:0; fill:none" points="
  2880.45,514.362 3329.13,514.362 3329.13,310.242 2880.45,310.242 2880.45,514.362 
  "/>
<path clip-path="url(#clip960)" d="
M2894.62 405.498 L2979.67 405.498 L2979.67 351.066 L2894.62 351.066 L2894.62 405.498  Z
  " fill="#009af9" fill-rule="evenodd" fill-opacity="0.6"/>
<polyline clip-path="url(#clip960)" style="stroke:#000000; stroke-width:4; stroke-opacity:1; fill:none" points="
  2894.62,405.498 2979.67,405.498 2979.67,351.066 2894.62,351.066 2894.62,405.498 
  "/>
<g clip-path="url(#clip960)">
<text style="fill:#000000; fill-opacity:1; font-family:Arial,Helvetica Neue,Helvetica,sans-serif; font-size:53px; text-anchor:start;" transform="rotate(0, 2993.85, 397.782)" x="2993.85" y="397.782">Control data</text>
</g>
<path clip-path="url(#clip960)" d="
M2894.62 473.538 L2979.67 473.538 L2979.67 419.106 L2894.62 419.106 L2894.62 473.538  Z
  " fill="#e26f46" fill-rule="evenodd" fill-opacity="0.6"/>
<polyline clip-path="url(#clip960)" style="stroke:#000000; stroke-width:4; stroke-opacity:1; fill:none" points="
  2894.62,473.538 2979.67,473.538 2979.67,419.106 2894.62,419.106 2894.62,473.538 
  "/>
<g clip-path="url(#clip960)">
<text style="fill:#000000; fill-opacity:1; font-family:Arial,Helvetica Neue,Helvetica,sans-serif; font-size:53px; text-anchor:start;" transform="rotate(0, 2993.85, 465.822)" x="2993.85" y="465.822">Gamma dist.</text>
</g>
</svg>
