<?xml version="1.0" encoding="utf-8"?>
<svg xmlns="http://www.w3.org/2000/svg" xmlns:xlink="http://www.w3.org/1999/xlink" width="600" height="400" viewBox="0 0 2400 1600">
<defs>
  <clipPath id="clip710">
    <rect x="0" y="0" width="2400" height="1600"/>
  </clipPath>
</defs>
<path clip-path="url(#clip710)" d="
M0 1600 L2400 1600 L2400 0 L0 0  Z
  " fill="#ffffff" fill-rule="evenodd" fill-opacity="1"/>
<defs>
  <clipPath id="clip711">
    <rect x="480" y="0" width="1681" height="1600"/>
  </clipPath>
</defs>
<path clip-path="url(#clip710)" d="
M86.9921 1521.01 L2352.76 1521.01 L2352.76 47.2441 L86.9921 47.2441  Z
  " fill="#ffffff" fill-rule="evenodd" fill-opacity="1"/>
<defs>
  <clipPath id="clip712">
    <rect x="86" y="47" width="2267" height="1475"/>
  </clipPath>
</defs>
<polyline clip-path="url(#clip712)" style="stroke:#000000; stroke-width:2; stroke-opacity:0.1; fill:none" points="
  151.118,1521.01 151.118,47.2441 
  "/>
<polyline clip-path="url(#clip712)" style="stroke:#000000; stroke-width:2; stroke-opacity:0.1; fill:none" points="
  603.501,1521.01 603.501,47.2441 
  "/>
<polyline clip-path="url(#clip712)" style="stroke:#000000; stroke-width:2; stroke-opacity:0.1; fill:none" points="
  1055.88,1521.01 1055.88,47.2441 
  "/>
<polyline clip-path="url(#clip712)" style="stroke:#000000; stroke-width:2; stroke-opacity:0.1; fill:none" points="
  1508.27,1521.01 1508.27,47.2441 
  "/>
<polyline clip-path="url(#clip712)" style="stroke:#000000; stroke-width:2; stroke-opacity:0.1; fill:none" points="
  1960.65,1521.01 1960.65,47.2441 
  "/>
<polyline clip-path="url(#clip710)" style="stroke:#000000; stroke-width:4; stroke-opacity:1; fill:none" points="
  86.9921,1521.01 2352.76,1521.01 
  "/>
<polyline clip-path="url(#clip710)" style="stroke:#000000; stroke-width:4; stroke-opacity:1; fill:none" points="
  151.118,1521.01 151.118,1503.32 
  "/>
<polyline clip-path="url(#clip710)" style="stroke:#000000; stroke-width:4; stroke-opacity:1; fill:none" points="
  603.501,1521.01 603.501,1503.32 
  "/>
<polyline clip-path="url(#clip710)" style="stroke:#000000; stroke-width:4; stroke-opacity:1; fill:none" points="
  1055.88,1521.01 1055.88,1503.32 
  "/>
<polyline clip-path="url(#clip710)" style="stroke:#000000; stroke-width:4; stroke-opacity:1; fill:none" points="
  1508.27,1521.01 1508.27,1503.32 
  "/>
<polyline clip-path="url(#clip710)" style="stroke:#000000; stroke-width:4; stroke-opacity:1; fill:none" points="
  1960.65,1521.01 1960.65,1503.32 
  "/>
<path clip-path="url(#clip710)" d="M 0 0 M151.118 1550.2 Q147.506 1550.2 145.678 1553.76 Q143.872 1557.31 143.872 1564.43 Q143.872 1571.54 145.678 1575.11 Q147.506 1578.65 151.118 1578.65 Q154.752 1578.65 156.557 1575.11 Q158.386 1571.54 158.386 1564.43 Q158.386 1557.31 156.557 1553.76 Q154.752 1550.2 151.118 1550.2 M151.118 1546.49 Q156.928 1546.49 159.983 1551.1 Q163.062 1555.68 163.062 1564.43 Q163.062 1573.16 159.983 1577.77 Q156.928 1582.35 151.118 1582.35 Q145.307 1582.35 142.229 1577.77 Q139.173 1573.16 139.173 1564.43 Q139.173 1555.68 142.229 1551.1 Q145.307 1546.49 151.118 1546.49 Z" fill="#000000" fill-rule="evenodd" fill-opacity="1" /><path clip-path="url(#clip710)" d="M 0 0 M582.274 1577.74 L598.594 1577.74 L598.594 1581.68 L576.65 1581.68 L576.65 1577.74 Q579.312 1574.99 583.895 1570.36 Q588.501 1565.71 589.682 1564.37 Q591.927 1561.84 592.807 1560.11 Q593.71 1558.35 593.71 1556.66 Q593.71 1553.9 591.765 1552.17 Q589.844 1550.43 586.742 1550.43 Q584.543 1550.43 582.089 1551.19 Q579.659 1551.96 576.881 1553.51 L576.881 1548.79 Q579.705 1547.65 582.159 1547.07 Q584.612 1546.49 586.649 1546.49 Q592.02 1546.49 595.214 1549.18 Q598.409 1551.87 598.409 1556.36 Q598.409 1558.49 597.598 1560.41 Q596.811 1562.3 594.705 1564.9 Q594.126 1565.57 591.024 1568.79 Q587.923 1571.98 582.274 1577.74 Z" fill="#000000" fill-rule="evenodd" fill-opacity="1" /><path clip-path="url(#clip710)" d="M 0 0 M618.409 1550.2 Q614.797 1550.2 612.969 1553.76 Q611.163 1557.31 611.163 1564.43 Q611.163 1571.54 612.969 1575.11 Q614.797 1578.65 618.409 1578.65 Q622.043 1578.65 623.848 1575.11 Q625.677 1571.54 625.677 1564.43 Q625.677 1557.31 623.848 1553.76 Q622.043 1550.2 618.409 1550.2 M618.409 1546.49 Q624.219 1546.49 627.274 1551.1 Q630.353 1555.68 630.353 1564.43 Q630.353 1573.16 627.274 1577.77 Q624.219 1582.35 618.409 1582.35 Q612.598 1582.35 609.52 1577.77 Q606.464 1573.16 606.464 1564.43 Q606.464 1555.68 609.52 1551.1 Q612.598 1546.49 618.409 1546.49 Z" fill="#000000" fill-rule="evenodd" fill-opacity="1" /><path clip-path="url(#clip710)" d="M 0 0 M1044.06 1551.19 L1032.25 1569.64 L1044.06 1569.64 L1044.06 1551.19 M1042.83 1547.12 L1048.71 1547.12 L1048.71 1569.64 L1053.64 1569.64 L1053.64 1573.53 L1048.71 1573.53 L1048.71 1581.68 L1044.06 1581.68 L1044.06 1573.53 L1028.45 1573.53 L1028.45 1569.02 L1042.83 1547.12 Z" fill="#000000" fill-rule="evenodd" fill-opacity="1" /><path clip-path="url(#clip710)" d="M 0 0 M1071.37 1550.2 Q1067.76 1550.2 1065.93 1553.76 Q1064.13 1557.31 1064.13 1564.43 Q1064.13 1571.54 1065.93 1575.11 Q1067.76 1578.65 1071.37 1578.65 Q1075.01 1578.65 1076.81 1575.11 Q1078.64 1571.54 1078.64 1564.43 Q1078.64 1557.31 1076.81 1553.76 Q1075.01 1550.2 1071.37 1550.2 M1071.37 1546.49 Q1077.18 1546.49 1080.24 1551.1 Q1083.32 1555.68 1083.32 1564.43 Q1083.32 1573.16 1080.24 1577.77 Q1077.18 1582.35 1071.37 1582.35 Q1065.56 1582.35 1062.48 1577.77 Q1059.43 1573.16 1059.43 1564.43 Q1059.43 1555.68 1062.48 1551.1 Q1065.56 1546.49 1071.37 1546.49 Z" fill="#000000" fill-rule="evenodd" fill-opacity="1" /><path clip-path="url(#clip710)" d="M 0 0 M1493.67 1562.54 Q1490.53 1562.54 1488.67 1564.69 Q1486.85 1566.84 1486.85 1570.59 Q1486.85 1574.32 1488.67 1576.49 Q1490.53 1578.65 1493.67 1578.65 Q1496.82 1578.65 1498.65 1576.49 Q1500.5 1574.32 1500.5 1570.59 Q1500.5 1566.84 1498.65 1564.69 Q1496.82 1562.54 1493.67 1562.54 M1502.96 1547.88 L1502.96 1552.14 Q1501.2 1551.31 1499.39 1550.87 Q1497.61 1550.43 1495.85 1550.43 Q1491.22 1550.43 1488.77 1553.56 Q1486.34 1556.68 1485.99 1563 Q1487.35 1560.99 1489.41 1559.92 Q1491.47 1558.83 1493.95 1558.83 Q1499.16 1558.83 1502.17 1562 Q1505.2 1565.15 1505.2 1570.59 Q1505.2 1575.92 1502.05 1579.13 Q1498.91 1582.35 1493.67 1582.35 Q1487.68 1582.35 1484.51 1577.77 Q1481.34 1573.16 1481.34 1564.43 Q1481.34 1556.24 1485.22 1551.38 Q1489.11 1546.49 1495.66 1546.49 Q1497.42 1546.49 1499.21 1546.84 Q1501.01 1547.19 1502.96 1547.88 Z" fill="#000000" fill-rule="evenodd" fill-opacity="1" /><path clip-path="url(#clip710)" d="M 0 0 M1523.26 1550.2 Q1519.65 1550.2 1517.82 1553.76 Q1516.01 1557.31 1516.01 1564.43 Q1516.01 1571.54 1517.82 1575.11 Q1519.65 1578.65 1523.26 1578.65 Q1526.89 1578.65 1528.7 1575.11 Q1530.53 1571.54 1530.53 1564.43 Q1530.53 1557.31 1528.7 1553.76 Q1526.89 1550.2 1523.26 1550.2 M1523.26 1546.49 Q1529.07 1546.49 1532.12 1551.1 Q1535.2 1555.68 1535.2 1564.43 Q1535.2 1573.16 1532.12 1577.77 Q1529.07 1582.35 1523.26 1582.35 Q1517.45 1582.35 1514.37 1577.77 Q1511.31 1573.16 1511.31 1564.43 Q1511.31 1555.68 1514.37 1551.1 Q1517.45 1546.49 1523.26 1546.49 Z" fill="#000000" fill-rule="evenodd" fill-opacity="1" /><path clip-path="url(#clip710)" d="M 0 0 M1945.53 1565.27 Q1942.19 1565.27 1940.27 1567.05 Q1938.37 1568.83 1938.37 1571.96 Q1938.37 1575.08 1940.27 1576.87 Q1942.19 1578.65 1945.53 1578.65 Q1948.86 1578.65 1950.78 1576.87 Q1952.7 1575.06 1952.7 1571.96 Q1952.7 1568.83 1950.78 1567.05 Q1948.88 1565.27 1945.53 1565.27 M1940.85 1563.28 Q1937.84 1562.54 1936.15 1560.48 Q1934.48 1558.42 1934.48 1555.45 Q1934.48 1551.31 1937.42 1548.9 Q1940.39 1546.49 1945.53 1546.49 Q1950.69 1546.49 1953.63 1548.9 Q1956.57 1551.31 1956.57 1555.45 Q1956.57 1558.42 1954.88 1560.48 Q1953.21 1562.54 1950.22 1563.28 Q1953.6 1564.06 1955.48 1566.36 Q1957.38 1568.65 1957.38 1571.96 Q1957.38 1576.98 1954.3 1579.67 Q1951.24 1582.35 1945.53 1582.35 Q1939.81 1582.35 1936.73 1579.67 Q1933.67 1576.98 1933.67 1571.96 Q1933.67 1568.65 1935.57 1566.36 Q1937.47 1564.06 1940.85 1563.28 M1939.14 1555.89 Q1939.14 1558.58 1940.8 1560.08 Q1942.49 1561.59 1945.53 1561.59 Q1948.53 1561.59 1950.22 1560.08 Q1951.94 1558.58 1951.94 1555.89 Q1951.94 1553.21 1950.22 1551.7 Q1948.53 1550.2 1945.53 1550.2 Q1942.49 1550.2 1940.8 1551.7 Q1939.14 1553.21 1939.14 1555.89 Z" fill="#000000" fill-rule="evenodd" fill-opacity="1" /><path clip-path="url(#clip710)" d="M 0 0 M1975.69 1550.2 Q1972.08 1550.2 1970.25 1553.76 Q1968.44 1557.31 1968.44 1564.43 Q1968.44 1571.54 1970.25 1575.11 Q1972.08 1578.65 1975.69 1578.65 Q1979.32 1578.65 1981.13 1575.11 Q1982.96 1571.54 1982.96 1564.43 Q1982.96 1557.31 1981.13 1553.76 Q1979.32 1550.2 1975.69 1550.2 M1975.69 1546.49 Q1981.5 1546.49 1984.55 1551.1 Q1987.63 1555.68 1987.63 1564.43 Q1987.63 1573.16 1984.55 1577.77 Q1981.5 1582.35 1975.69 1582.35 Q1969.88 1582.35 1966.8 1577.77 Q1963.74 1573.16 1963.74 1564.43 Q1963.74 1555.68 1966.8 1551.1 Q1969.88 1546.49 1975.69 1546.49 Z" fill="#000000" fill-rule="evenodd" fill-opacity="1" /><polyline clip-path="url(#clip712)" style="stroke:#000000; stroke-width:2; stroke-opacity:0.1; fill:none" points="
  86.9921,1429.17 2352.76,1429.17 
  "/>
<polyline clip-path="url(#clip712)" style="stroke:#000000; stroke-width:2; stroke-opacity:0.1; fill:none" points="
  86.9921,1057.36 2352.76,1057.36 
  "/>
<polyline clip-path="url(#clip712)" style="stroke:#000000; stroke-width:2; stroke-opacity:0.1; fill:none" points="
  86.9921,685.55 2352.76,685.55 
  "/>
<polyline clip-path="url(#clip712)" style="stroke:#000000; stroke-width:2; stroke-opacity:0.1; fill:none" points="
  86.9921,313.741 2352.76,313.741 
  "/>
<polyline clip-path="url(#clip710)" style="stroke:#000000; stroke-width:4; stroke-opacity:1; fill:none" points="
  86.9921,1521.01 86.9921,47.2441 
  "/>
<polyline clip-path="url(#clip710)" style="stroke:#000000; stroke-width:4; stroke-opacity:1; fill:none" points="
  86.9921,1429.17 114.181,1429.17 
  "/>
<polyline clip-path="url(#clip710)" style="stroke:#000000; stroke-width:4; stroke-opacity:1; fill:none" points="
  86.9921,1057.36 114.181,1057.36 
  "/>
<polyline clip-path="url(#clip710)" style="stroke:#000000; stroke-width:4; stroke-opacity:1; fill:none" points="
  86.9921,685.55 114.181,685.55 
  "/>
<polyline clip-path="url(#clip710)" style="stroke:#000000; stroke-width:4; stroke-opacity:1; fill:none" points="
  86.9921,313.741 114.181,313.741 
  "/>
<path clip-path="url(#clip710)" d="M 0 0 M-0.303895 1442.51 L7.33495 1442.51 L7.33495 1416.15 L-0.975188 1417.81 L-0.975188 1413.55 L7.28866 1411.89 L11.9646 1411.89 L11.9646 1442.51 L19.6034 1442.51 L19.6034 1446.45 L-0.303895 1446.45 L-0.303895 1442.51 Z" fill="#000000" fill-rule="evenodd" fill-opacity="1" /><path clip-path="url(#clip710)" d="M 0 0 M39.0477 1414.97 Q35.4367 1414.97 33.608 1418.53 Q31.8024 1422.07 31.8024 1429.2 Q31.8024 1436.31 33.608 1439.87 Q35.4367 1443.42 39.0477 1443.42 Q42.682 1443.42 44.4875 1439.87 Q46.3162 1436.31 46.3162 1429.2 Q46.3162 1422.07 44.4875 1418.53 Q42.682 1414.97 39.0477 1414.97 M39.0477 1411.26 Q44.8579 1411.26 47.9134 1415.87 Q50.9921 1420.45 50.9921 1429.2 Q50.9921 1437.93 47.9134 1442.54 Q44.8579 1447.12 39.0477 1447.12 Q33.2376 1447.12 30.1589 1442.54 Q27.1034 1437.93 27.1034 1429.2 Q27.1034 1420.45 30.1589 1415.87 Q33.2376 1411.26 39.0477 1411.26 Z" fill="#000000" fill-rule="evenodd" fill-opacity="1" /><path clip-path="url(#clip710)" d="M 0 0 M0.69147 1070.7 L8.33032 1070.7 L8.33032 1044.34 L0.0201769 1046.01 L0.0201769 1041.75 L8.28402 1040.08 L12.9599 1040.08 L12.9599 1070.7 L20.5988 1070.7 L20.5988 1074.64 L0.69147 1074.64 L0.69147 1070.7 Z" fill="#000000" fill-rule="evenodd" fill-opacity="1" /><path clip-path="url(#clip710)" d="M 0 0 M30.0895 1040.08 L48.4458 1040.08 L48.4458 1044.01 L34.3718 1044.01 L34.3718 1052.49 Q35.3904 1052.14 36.4089 1051.98 Q37.4274 1051.79 38.4459 1051.79 Q44.2329 1051.79 47.6125 1054.96 Q50.9921 1058.13 50.9921 1063.55 Q50.9921 1069.13 47.5199 1072.23 Q44.0477 1075.31 37.7283 1075.31 Q35.5524 1075.31 33.2839 1074.94 Q31.0385 1074.57 28.6311 1073.83 L28.6311 1069.13 Q30.7145 1070.26 32.9367 1070.82 Q35.1589 1071.38 37.6357 1071.38 Q41.6403 1071.38 43.9783 1069.27 Q46.3162 1067.16 46.3162 1063.55 Q46.3162 1059.94 43.9783 1057.83 Q41.6403 1055.73 37.6357 1055.73 Q35.7607 1055.73 33.8857 1056.14 Q32.0339 1056.56 30.0895 1057.44 L30.0895 1040.08 Z" fill="#000000" fill-rule="evenodd" fill-opacity="1" /><path clip-path="url(#clip710)" d="M 0 0 M2.91368 698.895 L19.233 698.895 L19.233 702.83 L-2.71129 702.83 L-2.71129 698.895 Q-0.0492672 696.14 4.53404 691.511 Q9.1405 686.858 10.321 685.516 Q12.5664 682.992 13.446 681.256 Q14.3488 679.497 14.3488 677.807 Q14.3488 675.053 12.4044 673.317 Q10.4831 671.58 7.38125 671.58 Q5.18219 671.58 2.7285 672.344 Q0.297953 673.108 -2.47981 674.659 L-2.47981 669.937 Q0.344249 668.803 2.79794 668.224 Q5.25163 667.645 7.28866 667.645 Q12.659 667.645 15.8534 670.33 Q19.0479 673.016 19.0479 677.506 Q19.0479 679.636 18.2377 681.557 Q17.4506 683.455 15.3442 686.048 Q14.7655 686.719 11.6636 689.937 Q8.5618 693.131 2.91368 698.895 Z" fill="#000000" fill-rule="evenodd" fill-opacity="1" /><path clip-path="url(#clip710)" d="M 0 0 M39.0477 671.349 Q35.4367 671.349 33.608 674.914 Q31.8024 678.455 31.8024 685.585 Q31.8024 692.691 33.608 696.256 Q35.4367 699.798 39.0477 699.798 Q42.682 699.798 44.4875 696.256 Q46.3162 692.691 46.3162 685.585 Q46.3162 678.455 44.4875 674.914 Q42.682 671.349 39.0477 671.349 M39.0477 667.645 Q44.8579 667.645 47.9134 672.252 Q50.9921 676.835 50.9921 685.585 Q50.9921 694.312 47.9134 698.918 Q44.8579 703.502 39.0477 703.502 Q33.2376 703.502 30.1589 698.918 Q27.1034 694.312 27.1034 685.585 Q27.1034 676.835 30.1589 672.252 Q33.2376 667.645 39.0477 667.645 Z" fill="#000000" fill-rule="evenodd" fill-opacity="1" /><path clip-path="url(#clip710)" d="M 0 0 M3.90904 327.086 L20.2284 327.086 L20.2284 331.021 L-1.71592 331.021 L-1.71592 327.086 Q0.946098 324.331 5.52941 319.702 Q10.1359 315.049 11.3164 313.707 Q13.5618 311.183 14.4414 309.447 Q15.3442 307.688 15.3442 305.998 Q15.3442 303.244 13.3997 301.508 Q11.4784 299.771 8.37661 299.771 Q6.17755 299.771 3.72386 300.535 Q1.29332 301.299 -1.48444 302.85 L-1.48444 298.128 Q1.33961 296.994 3.7933 296.415 Q6.247 295.836 8.28402 295.836 Q13.6544 295.836 16.8488 298.521 Q20.0432 301.207 20.0432 305.697 Q20.0432 307.827 19.233 309.748 Q18.446 311.646 16.3395 314.239 Q15.7608 314.91 12.659 318.128 Q9.55716 321.322 3.90904 327.086 Z" fill="#000000" fill-rule="evenodd" fill-opacity="1" /><path clip-path="url(#clip710)" d="M 0 0 M30.0895 296.461 L48.4458 296.461 L48.4458 300.396 L34.3718 300.396 L34.3718 308.869 Q35.3904 308.521 36.4089 308.359 Q37.4274 308.174 38.4459 308.174 Q44.2329 308.174 47.6125 311.345 Q50.9921 314.517 50.9921 319.933 Q50.9921 325.512 47.5199 328.614 Q44.0477 331.693 37.7283 331.693 Q35.5524 331.693 33.2839 331.322 Q31.0385 330.952 28.6311 330.211 L28.6311 325.512 Q30.7145 326.646 32.9367 327.202 Q35.1589 327.757 37.6357 327.757 Q41.6403 327.757 43.9783 325.651 Q46.3162 323.544 46.3162 319.933 Q46.3162 316.322 43.9783 314.216 Q41.6403 312.109 37.6357 312.109 Q35.7607 312.109 33.8857 312.526 Q32.0339 312.943 30.0895 313.822 L30.0895 296.461 Z" fill="#000000" fill-rule="evenodd" fill-opacity="1" /><polyline clip-path="url(#clip712)" style="stroke:#fff7fa; stroke-width:4; stroke-opacity:1; fill:none" stroke-dasharray="2, 4" points="
  151.118,1479.3 162.487,1475.7 173.857,1472.09 185.227,1468.46 196.597,1464.81 207.966,1461.13 219.336,1457.45 230.706,1453.74 242.076,1450.01 253.445,1446.26 
  264.815,1442.5 276.185,1438.71 287.555,1434.91 298.924,1431.08 310.294,1427.24 321.664,1423.37 333.034,1419.49 344.403,1415.58 355.773,1411.65 367.143,1407.71 
  378.513,1403.74 389.882,1399.76 401.252,1395.75 412.622,1391.72 423.992,1387.67 435.361,1383.6 446.731,1379.51 458.101,1375.4 469.471,1371.26 480.84,1367.11 
  492.21,1362.93 503.58,1358.73 514.95,1354.51 526.319,1350.27 537.689,1346.01 549.059,1341.72 560.429,1337.41 571.798,1333.08 583.168,1328.73 594.538,1324.36 
  605.908,1319.96 617.277,1315.54 628.647,1311.09 640.017,1306.62 651.387,1302.13 662.756,1297.62 674.126,1293.08 685.496,1288.52 696.866,1283.94 708.235,1279.33 
  719.605,1274.7 730.975,1270.04 742.345,1265.36 753.714,1260.66 765.084,1255.93 776.454,1251.18 787.824,1246.4 799.193,1241.6 810.563,1236.77 821.933,1231.92 
  833.303,1227.04 844.672,1222.14 856.042,1217.21 867.412,1212.26 878.782,1207.28 890.151,1202.27 901.521,1197.24 912.891,1192.18 924.261,1187.1 935.63,1181.99 
  947,1176.86 958.37,1171.69 969.74,1166.5 981.109,1161.29 992.479,1156.04 1003.85,1150.77 1015.22,1145.47 1026.59,1140.15 1037.96,1134.79 1049.33,1129.41 
  1060.7,1124.01 1072.07,1118.57 1083.44,1113.1 1094.81,1107.61 1106.18,1102.09 1117.55,1096.54 1128.92,1090.96 1140.29,1085.35 1151.66,1079.71 1163.03,1074.05 
  1174.4,1068.35 1185.76,1062.62 1197.13,1056.87 1208.5,1051.08 1219.87,1045.27 1231.24,1039.42 1242.61,1033.55 1253.98,1027.64 1265.35,1021.71 1276.72,1015.74 
  1288.09,1009.74 1299.46,1003.71 1310.83,997.652 1322.2,991.56 1333.57,985.437 1344.94,979.282 1356.31,973.094 1367.68,966.875 1379.05,960.624 1390.42,954.34 
  1401.79,948.023 1413.16,941.674 1424.53,935.292 1435.9,928.877 1447.27,922.429 1458.64,915.947 1470.01,909.431 1481.38,902.882 1492.75,896.299 1504.12,889.682 
  1515.49,883.03 1526.86,876.344 1538.23,869.623 1549.6,862.867 1560.97,856.077 1572.34,849.251 1583.71,842.39 1595.08,835.493 1606.45,828.56 1617.82,821.592 
  1629.19,814.587 1640.55,807.546 1651.92,800.469 1663.29,793.355 1674.66,786.204 1686.03,779.016 1697.4,771.791 1708.77,764.528 1720.14,757.227 1731.51,749.889 
  1742.88,742.513 1754.25,735.098 1765.62,727.645 1776.99,720.154 1788.36,712.623 1799.73,705.054 1811.1,697.445 1822.47,689.797 1833.84,682.109 1845.21,674.381 
  1856.58,666.614 1867.95,658.806 1879.32,650.957 1890.69,643.068 1902.06,635.138 1913.43,627.167 1924.8,619.154 1936.17,611.1 1947.54,603.004 1958.91,594.867 
  1970.28,586.687 1981.65,578.464 1993.02,570.199 2004.39,561.892 2015.76,553.541 2027.13,545.147 2038.5,536.709 2049.87,528.227 2061.24,519.702 2072.61,511.132 
  2083.98,502.518 2095.34,493.86 2106.71,485.156 2118.08,476.407 2129.45,467.613 2140.82,458.774 2152.19,449.888 2163.56,440.957 2174.93,431.979 2186.3,422.955 
  2197.67,413.884 2209.04,404.765 2220.41,395.6 2231.78,386.387 2243.15,377.126 2254.52,367.818 2265.89,358.461 2277.26,349.055 2288.63,339.601 
  "/>
<polyline clip-path="url(#clip712)" style="stroke:#ebe7f1; stroke-width:4; stroke-opacity:1; fill:none" stroke-dasharray="2, 4" points="
  151.118,1479.3 162.487,1468.26 173.857,1457.11 185.227,1445.88 196.597,1434.63 207.966,1423.46 219.336,1412.48 230.706,1401.82 242.076,1391.58 253.445,1381.8 
  264.815,1372.54 276.185,1363.78 287.555,1355.51 298.924,1347.68 310.294,1340.26 321.664,1333.19 333.034,1326.42 344.403,1319.9 355.773,1313.61 367.143,1307.5 
  378.513,1301.55 389.882,1295.76 401.252,1290.09 412.622,1284.55 423.992,1279.12 435.361,1273.81 446.731,1268.6 458.101,1263.51 469.471,1258.53 480.84,1253.66 
  492.21,1248.9 503.58,1244.26 514.95,1239.73 526.319,1235.31 537.689,1231 549.059,1226.81 560.429,1222.72 571.798,1218.75 583.168,1214.88 594.538,1211.12 
  605.908,1207.46 617.277,1203.9 628.647,1200.43 640.017,1197.06 651.387,1193.77 662.756,1190.56 674.126,1187.43 685.496,1184.38 696.866,1181.4 708.235,1178.48 
  719.605,1175.61 730.975,1172.81 742.345,1170.05 753.714,1167.34 765.084,1164.67 776.454,1162.04 787.824,1159.44 799.193,1156.86 810.563,1154.3 821.933,1151.76 
  833.303,1149.23 844.672,1146.71 856.042,1144.18 867.412,1141.65 878.782,1139.12 890.151,1136.57 901.521,1134 912.891,1131.4 924.261,1128.77 935.63,1126.11 
  947,1123.41 958.37,1120.66 969.74,1117.85 981.109,1114.99 992.479,1112.06 1003.85,1109.06 1015.22,1105.99 1026.59,1102.83 1037.96,1099.58 1049.33,1096.24 
  1060.7,1092.79 1072.07,1089.24 1083.44,1085.58 1094.81,1081.8 1106.18,1077.89 1117.55,1073.85 1128.92,1069.68 1140.29,1065.37 1151.66,1060.91 1163.03,1056.31 
  1174.4,1051.55 1185.76,1046.63 1197.13,1041.55 1208.5,1036.3 1219.87,1030.89 1231.24,1025.3 1242.61,1019.54 1253.98,1013.61 1265.35,1007.49 1276.72,1001.2 
  1288.09,994.736 1299.46,988.089 1310.83,981.263 1322.2,974.259 1333.57,967.078 1344.94,959.722 1356.31,952.192 1367.68,944.491 1379.05,936.622 1390.42,928.587 
  1401.79,920.39 1413.16,912.036 1424.53,903.528 1435.9,894.87 1447.27,886.068 1458.64,877.128 1470.01,868.053 1481.38,858.851 1492.75,849.526 1504.12,840.086 
  1515.49,830.536 1526.86,820.883 1538.23,811.134 1549.6,801.295 1560.97,791.374 1572.34,781.376 1583.71,771.31 1595.08,761.182 1606.45,750.999 1617.82,740.768 
  1629.19,730.496 1640.55,720.19 1651.92,709.857 1663.29,699.503 1674.66,689.135 1686.03,678.76 1697.4,668.384 1708.77,658.013 1720.14,647.652 1731.51,637.308 
  1742.88,626.986 1754.25,616.692 1765.62,606.431 1776.99,596.206 1788.36,586.024 1799.73,575.888 1811.1,565.802 1822.47,555.771 1833.84,545.797 1845.21,535.884 
  1856.58,526.034 1867.95,516.251 1879.32,506.536 1890.69,496.892 1902.06,487.321 1913.43,477.822 1924.8,468.399 1936.17,459.051 1947.54,449.778 1958.91,440.582 
  1970.28,431.462 1981.65,422.418 1993.02,413.448 2004.39,404.552 2015.76,395.728 2027.13,386.975 2038.5,378.292 2049.87,369.675 2061.24,361.122 2072.61,352.632 
  2083.98,344.2 2095.34,335.825 2106.71,327.502 2118.08,319.227 2129.45,310.998 2140.82,302.81 2152.19,294.659 2163.56,286.54 2174.93,278.45 2186.3,270.382 
  2197.67,262.334 2209.04,254.298 2220.41,246.271 2231.78,238.247 2243.15,230.22 2254.52,222.186 2265.89,214.139 2277.26,206.072 2288.63,197.981 
  "/>
<polyline clip-path="url(#clip712)" style="stroke:#d0d1e6; stroke-width:4; stroke-opacity:1; fill:none" stroke-dasharray="2, 4" points="
  151.118,1479.3 162.487,1460.33 173.857,1441.16 185.227,1421.93 196.597,1402.95 207.966,1384.63 219.336,1367.37 230.706,1351.44 242.076,1336.98 253.445,1323.97 
  264.815,1312.27 276.185,1301.67 287.555,1291.97 298.924,1282.93 310.294,1274.38 321.664,1266.17 333.034,1258.19 344.403,1250.36 355.773,1242.65 367.143,1235.04 
  378.513,1227.52 389.882,1220.09 401.252,1212.77 412.622,1205.58 423.992,1198.53 435.361,1191.65 446.731,1184.94 458.101,1178.41 469.471,1172.09 480.84,1165.99 
  492.21,1160.1 503.58,1154.45 514.95,1149.03 526.319,1143.84 537.689,1138.9 549.059,1134.2 560.429,1129.74 571.798,1125.53 583.168,1121.55 594.538,1117.81 
  605.908,1114.31 617.277,1111.03 628.647,1107.97 640.017,1105.14 651.387,1102.52 662.756,1100.1 674.126,1097.88 685.496,1095.85 696.866,1094 708.235,1092.33 
  719.605,1090.82 730.975,1089.48 742.345,1088.28 753.714,1087.23 765.084,1086.31 776.454,1085.51 787.824,1084.82 799.193,1084.24 810.563,1083.75 821.933,1083.35 
  833.303,1083.02 844.672,1082.75 856.042,1082.54 867.412,1082.37 878.782,1082.23 890.151,1082.11 901.521,1082 912.891,1081.89 924.261,1081.76 935.63,1081.6 
  947,1081.4 958.37,1081.14 969.74,1080.82 981.109,1080.42 992.479,1079.93 1003.85,1079.34 1015.22,1078.63 1026.59,1077.79 1037.96,1076.8 1049.33,1075.66 
  1060.7,1074.35 1072.07,1072.86 1083.44,1071.18 1094.81,1069.29 1106.18,1067.19 1117.55,1064.87 1128.92,1062.31 1140.29,1059.5 1151.66,1056.44 1163.03,1053.12 
  1174.4,1049.53 1185.76,1045.66 1197.13,1041.51 1208.5,1037.07 1219.87,1032.34 1231.24,1027.31 1242.61,1021.98 1253.98,1016.35 1265.35,1010.41 1276.72,1004.17 
  1288.09,997.619 1299.46,990.769 1310.83,983.616 1322.2,976.164 1333.57,968.417 1344.94,960.378 1356.31,952.053 1367.68,943.447 1379.05,934.567 1390.42,925.42 
  1401.79,916.014 1413.16,906.356 1424.53,896.457 1435.9,886.325 1447.27,875.97 1458.64,865.404 1470.01,854.636 1481.38,843.678 1492.75,832.542 1504.12,821.239 
  1515.49,809.782 1526.86,798.183 1538.23,786.454 1549.6,774.609 1560.97,762.659 1572.34,750.619 1583.71,738.499 1595.08,726.315 1606.45,714.077 1617.82,701.799 
  1629.19,689.494 1640.55,677.173 1651.92,664.849 1663.29,652.534 1674.66,640.24 1686.03,627.977 1697.4,615.758 1708.77,603.592 1720.14,591.491 1731.51,579.463 
  1742.88,567.52 1754.25,555.669 1765.62,543.921 1776.99,532.282 1788.36,520.762 1799.73,509.367 1811.1,498.104 1822.47,486.98 1833.84,476 1845.21,465.169 
  1856.58,454.494 1867.95,443.976 1879.32,433.622 1890.69,423.433 1902.06,413.412 1913.43,403.561 1924.8,393.882 1936.17,384.376 1947.54,375.042 1958.91,365.882 
  1970.28,356.893 1981.65,348.076 1993.02,339.428 2004.39,330.946 2015.76,322.629 2027.13,314.473 2038.5,306.474 2049.87,298.628 2061.24,290.93 2072.61,283.375 
  2083.98,275.957 2095.34,268.671 2106.71,261.51 2118.08,254.467 2129.45,247.534 2140.82,240.706 2152.19,233.973 2163.56,227.327 2174.93,220.76 2186.3,214.263 
  2197.67,207.828 2209.04,201.445 2220.41,195.104 2231.78,188.796 2243.15,182.511 2254.52,176.24 2265.89,169.972 2277.26,163.697 2288.63,157.406 
  "/>
<polyline clip-path="url(#clip712)" style="stroke:#a6bcdb; stroke-width:4; stroke-opacity:1; fill:none" stroke-dasharray="2, 4" points="
  151.118,1479.3 162.487,1443.73 173.857,1407.89 185.227,1372.99 196.597,1340.88 207.966,1313.1 219.336,1290.27 230.706,1272.12 242.076,1257.83 253.445,1246.3 
  264.815,1236.49 276.185,1227.51 287.555,1218.71 298.924,1209.7 310.294,1200.24 321.664,1190.25 333.034,1179.74 344.403,1168.79 355.773,1157.49 367.143,1145.94 
  378.513,1134.23 389.882,1122.45 401.252,1110.68 412.622,1098.97 423.992,1087.38 435.361,1075.95 446.731,1064.72 458.101,1053.73 469.471,1043.01 480.84,1032.58 
  492.21,1022.47 503.58,1012.7 514.95,1003.3 526.319,994.273 537.689,985.648 549.059,977.436 560.429,969.651 571.798,962.304 583.168,955.406 594.538,948.964 
  605.908,942.984 617.277,937.471 628.647,932.428 640.017,927.856 651.387,923.754 662.756,920.121 674.126,916.954 685.496,914.248 696.866,911.998 708.235,910.197 
  719.605,908.836 730.975,907.907 742.345,907.399 753.714,907.301 765.084,907.601 776.454,908.287 787.824,909.344 799.193,910.758 810.563,912.514 821.933,914.595 
  833.303,916.985 844.672,919.667 856.042,922.621 867.412,925.831 878.782,929.275 890.151,932.935 901.521,936.791 912.891,940.821 924.261,945.006 935.63,949.323 
  947,953.75 958.37,958.267 969.74,962.85 981.109,967.478 992.479,972.128 1003.85,976.778 1015.22,981.406 1026.59,985.989 1037.96,990.506 1049.33,994.934 
  1060.7,999.253 1072.07,1003.44 1083.44,1007.48 1094.81,1011.34 1106.18,1015.01 1117.55,1018.47 1128.92,1021.7 1140.29,1024.68 1151.66,1027.4 1163.03,1029.84 
  1174.4,1031.98 1185.76,1033.8 1197.13,1035.3 1208.5,1036.47 1219.87,1037.28 1231.24,1037.73 1242.61,1037.8 1253.98,1037.5 1265.35,1036.8 1276.72,1035.71 
  1288.09,1034.22 1299.46,1032.32 1310.83,1030.01 1322.2,1027.29 1333.57,1024.14 1344.94,1020.59 1356.31,1016.61 1367.68,1012.22 1379.05,1007.41 1390.42,1002.2 
  1401.79,996.575 1413.16,990.55 1424.53,984.129 1435.9,977.318 1447.27,970.124 1458.64,962.557 1470.01,954.623 1481.38,946.334 1492.75,937.699 1504.12,928.729 
  1515.49,919.436 1526.86,909.832 1538.23,899.929 1549.6,889.74 1560.97,879.279 1572.34,868.56 1583.71,857.598 1595.08,846.405 1606.45,834.999 1617.82,823.393 
  1629.19,811.604 1640.55,799.647 1651.92,787.537 1663.29,775.291 1674.66,762.924 1686.03,750.453 1697.4,737.892 1708.77,725.26 1720.14,712.57 1731.51,699.839 
  1742.88,687.083 1754.25,674.317 1765.62,661.555 1776.99,648.814 1788.36,636.108 1799.73,623.452 1811.1,610.859 1822.47,598.344 1833.84,585.919 1845.21,573.598 
  1856.58,561.394 1867.95,549.318 1879.32,537.383 1890.69,525.599 1902.06,513.978 1913.43,502.529 1924.8,491.262 1936.17,480.187 1947.54,469.311 1958.91,458.643 
  1970.28,448.191 1981.65,437.959 1993.02,427.956 2004.39,418.186 2015.76,408.655 2027.13,399.366 2038.5,390.322 2049.87,381.528 2061.24,372.985 2072.61,364.694 
  2083.98,356.658 2095.34,348.875 2106.71,341.347 2118.08,334.071 2129.45,327.047 2140.82,320.272 2152.19,313.743 2163.56,307.457 2174.93,301.41 2186.3,295.598 
  2197.67,290.015 2209.04,284.656 2220.41,279.515 2231.78,274.585 2243.15,269.859 2254.52,265.328 2265.89,260.986 2277.26,256.824 2288.63,252.833 
  "/>
<polyline clip-path="url(#clip712)" style="stroke:#74a9cf; stroke-width:4; stroke-opacity:1; fill:none" stroke-dasharray="2, 4" points="
  151.118,1479.3 162.487,1430.83 173.857,1382.43 185.227,1337.44 196.597,1299.59 207.966,1270.57 219.336,1249.83 230.706,1235.54 242.076,1225.58 253.445,1218.08 
  264.815,1211.6 276.185,1205.18 287.555,1198.18 298.924,1190.28 310.294,1181.34 321.664,1171.34 333.034,1160.37 344.403,1148.53 355.773,1135.97 367.143,1122.83 
  378.513,1109.23 389.882,1095.3 401.252,1081.14 412.622,1066.84 423.992,1052.47 435.361,1038.1 446.731,1023.79 458.101,1009.58 469.471,995.537 480.84,981.686 
  492.21,968.069 503.58,954.723 514.95,941.68 526.319,928.971 537.689,916.623 549.059,904.664 560.429,893.117 571.798,882.005 583.168,871.347 594.538,861.161 
  605.908,851.461 617.277,842.262 628.647,833.574 640.017,825.406 651.387,817.767 662.756,810.66 674.126,804.091 685.496,798.059 696.866,792.567 708.235,787.613 
  719.605,783.194 730.975,779.307 742.345,775.946 753.714,773.105 765.084,770.778 776.454,768.956 787.824,767.63 799.193,766.79 810.563,766.426 821.933,766.526 
  833.303,767.077 844.672,768.068 856.042,769.485 867.412,771.314 878.782,773.541 890.151,776.151 901.521,779.128 912.891,782.458 924.261,786.123 935.63,790.108 
  947,794.397 958.37,798.971 969.74,803.814 981.109,808.909 992.479,814.238 1003.85,819.784 1015.22,825.528 1026.59,831.454 1037.96,837.542 1049.33,843.776 
  1060.7,850.137 1072.07,856.607 1083.44,863.17 1094.81,869.806 1106.18,876.5 1117.55,883.233 1128.92,889.988 1140.29,896.748 1151.66,903.497 1163.03,910.219 
  1174.4,916.897 1185.76,923.515 1197.13,930.059 1208.5,936.512 1219.87,942.861 1231.24,949.091 1242.61,955.189 1253.98,961.14 1265.35,966.932 1276.72,972.552 
  1288.09,977.99 1299.46,983.232 1310.83,988.268 1322.2,993.087 1333.57,997.681 1344.94,1002.04 1356.31,1006.15 1367.68,1010.01 1379.05,1013.61 1390.42,1016.94 
  1401.79,1020 1413.16,1022.77 1424.53,1025.26 1435.9,1027.46 1447.27,1029.36 1458.64,1030.96 1470.01,1032.26 1481.38,1033.26 1492.75,1033.94 1504.12,1034.32 
  1515.49,1034.39 1526.86,1034.14 1538.23,1033.58 1549.6,1032.71 1560.97,1031.53 1572.34,1030.04 1583.71,1028.25 1595.08,1026.15 1606.45,1023.74 1617.82,1021.04 
  1629.19,1018.04 1640.55,1014.75 1651.92,1011.18 1663.29,1007.32 1674.66,1003.19 1686.03,998.779 1697.4,994.107 1708.77,989.177 1720.14,983.994 1731.51,978.566 
  1742.88,972.899 1754.25,967.002 1765.62,960.882 1776.99,954.547 1788.36,948.005 1799.73,941.265 1811.1,934.336 1822.47,927.226 1833.84,919.944 1845.21,912.5 
  1856.58,904.902 1867.95,897.161 1879.32,889.286 1890.69,881.286 1902.06,873.17 1913.43,864.95 1924.8,856.634 1936.17,848.232 1947.54,839.754 1958.91,831.21 
  1970.28,822.609 1981.65,813.962 1993.02,805.277 2004.39,796.564 2015.76,787.833 2027.13,779.093 2038.5,770.353 2049.87,761.622 2061.24,752.91 2072.61,744.225 
  2083.98,735.575 2095.34,726.969 2106.71,718.416 2118.08,709.922 2129.45,701.497 2140.82,693.148 2152.19,684.881 2163.56,676.705 2174.93,668.625 2186.3,660.649 
  2197.67,652.782 2209.04,645.031 2220.41,637.402 2231.78,629.9 2243.15,622.529 2254.52,615.296 2265.89,608.203 2277.26,601.257 2288.63,594.459 
  "/>
<polyline clip-path="url(#clip712)" style="stroke:#3690c0; stroke-width:4; stroke-opacity:1; fill:none" stroke-dasharray="2, 4" points="
  151.118,1479.3 162.487,1421.8 173.857,1365.02 185.227,1314.55 196.597,1275.26 207.966,1247.97 219.336,1230.52 230.706,1219.83 242.076,1213.15 253.445,1208.49 
  264.815,1204.54 276.185,1200.48 287.555,1195.8 298.924,1190.21 310.294,1183.56 321.664,1175.8 333.034,1166.94 344.403,1157.03 355.773,1146.16 367.143,1134.44 
  378.513,1121.98 389.882,1108.9 401.252,1095.3 412.622,1081.29 423.992,1066.96 435.361,1052.41 446.731,1037.7 458.101,1022.92 469.471,1008.12 480.84,993.363 
  492.21,978.702 503.58,964.184 514.95,949.851 526.319,935.744 537.689,921.899 549.059,908.348 560.429,895.121 571.798,882.246 583.168,869.745 594.538,857.642 
  605.908,845.953 617.277,834.695 628.647,823.883 640.017,813.527 651.387,803.637 662.756,794.221 674.126,785.282 685.496,776.826 696.866,768.855 708.235,761.368 
  719.605,754.365 730.975,747.845 742.345,741.803 753.714,736.235 765.084,731.138 776.454,726.504 787.824,722.329 799.193,718.603 810.563,715.321 821.933,712.473 
  833.303,710.051 844.672,708.047 856.042,706.452 867.412,705.255 878.782,704.448 890.151,704.02 901.521,703.961 912.891,704.262 924.261,704.912 935.63,705.9 
  947,707.217 958.37,708.85 969.74,710.791 981.109,713.028 992.479,715.551 1003.85,718.348 1015.22,721.41 1026.59,724.725 1037.96,728.283 1049.33,732.074 
  1060.7,736.086 1072.07,740.309 1083.44,744.733 1094.81,749.347 1106.18,754.141 1117.55,759.105 1128.92,764.228 1140.29,769.502 1151.66,774.915 1163.03,780.458 
  1174.4,786.121 1185.76,791.895 1197.13,797.771 1208.5,803.739 1219.87,809.79 1231.24,815.915 1242.61,822.105 1253.98,828.353 1265.35,834.648 1276.72,840.984 
  1288.09,847.351 1299.46,853.742 1310.83,860.149 1322.2,866.565 1333.57,872.981 1344.94,879.391 1356.31,885.787 1367.68,892.163 1379.05,898.511 1390.42,904.825 
  1401.79,911.099 1413.16,917.327 1424.53,923.501 1435.9,929.617 1447.27,935.668 1458.64,941.65 1470.01,947.556 1481.38,953.381 1492.75,959.121 1504.12,964.77 
  1515.49,970.324 1526.86,975.778 1538.23,981.129 1549.6,986.371 1560.97,991.501 1572.34,996.514 1583.71,1001.41 1595.08,1006.18 1606.45,1010.82 1617.82,1015.34 
  1629.19,1019.72 1640.55,1023.97 1651.92,1028.08 1663.29,1032.05 1674.66,1035.88 1686.03,1039.56 1697.4,1043.09 1708.77,1046.48 1720.14,1049.72 1731.51,1052.81 
  1742.88,1055.74 1754.25,1058.52 1765.62,1061.15 1776.99,1063.62 1788.36,1065.94 1799.73,1068.1 1811.1,1070.11 1822.47,1071.96 1833.84,1073.65 1845.21,1075.19 
  1856.58,1076.57 1867.95,1077.79 1879.32,1078.87 1890.69,1079.78 1902.06,1080.55 1913.43,1081.17 1924.8,1081.63 1936.17,1081.95 1947.54,1082.12 1958.91,1082.14 
  1970.28,1082.02 1981.65,1081.76 1993.02,1081.35 2004.39,1080.81 2015.76,1080.14 2027.13,1079.33 2038.5,1078.39 2049.87,1077.32 2061.24,1076.12 2072.61,1074.8 
  2083.98,1073.37 2095.34,1071.81 2106.71,1070.14 2118.08,1068.36 2129.45,1066.47 2140.82,1064.47 2152.19,1062.38 2163.56,1060.18 2174.93,1057.89 2186.3,1055.5 
  2197.67,1053.03 2209.04,1050.47 2220.41,1047.83 2231.78,1045.12 2243.15,1042.32 2254.52,1039.46 2265.89,1036.53 2277.26,1033.53 2288.63,1030.48 
  "/>
<polyline clip-path="url(#clip712)" style="stroke:#056faf; stroke-width:4; stroke-opacity:1; fill:none" stroke-dasharray="2, 4" points="
  151.118,1479.3 162.487,1415.94 173.857,1353.96 185.227,1300.73 196.597,1261.54 207.966,1236.16 219.336,1221.15 230.706,1212.71 242.076,1207.92 253.445,1204.9 
  264.815,1202.52 276.185,1200.13 287.555,1197.34 298.924,1193.89 310.294,1189.63 321.664,1184.46 333.034,1178.32 344.403,1171.21 355.773,1163.15 367.143,1154.17 
  378.513,1144.34 389.882,1133.73 401.252,1122.43 412.622,1110.53 423.992,1098.1 435.361,1085.24 446.731,1072.03 458.101,1058.55 469.471,1044.88 480.84,1031.07 
  492.21,1017.2 503.58,1003.33 514.95,989.5 526.319,975.774 537.689,962.193 549.059,948.798 560.429,935.627 571.798,922.713 583.168,910.086 594.538,897.774 
  605.908,885.798 617.277,874.179 628.647,862.936 640.017,852.081 651.387,841.628 662.756,831.586 674.126,821.961 685.496,812.76 696.866,803.986 708.235,795.64 
  719.605,787.722 730.975,780.231 742.345,773.165 753.714,766.519 765.084,760.29 776.454,754.472 787.824,749.059 799.193,744.043 810.563,739.419 821.933,735.177 
  833.303,731.311 844.672,727.812 856.042,724.672 867.412,721.882 878.782,719.433 890.151,717.316 901.521,715.524 912.891,714.046 924.261,712.875 935.63,712 
  947,711.415 958.37,711.109 969.74,711.074 981.109,711.302 992.479,711.784 1003.85,712.512 1015.22,713.477 1026.59,714.672 1037.96,716.088 1049.33,717.717 
  1060.7,719.551 1072.07,721.584 1083.44,723.806 1094.81,726.211 1106.18,728.791 1117.55,731.54 1128.92,734.449 1140.29,737.513 1151.66,740.724 1163.03,744.076 
  1174.4,747.562 1185.76,751.176 1197.13,754.912 1208.5,758.763 1219.87,762.725 1231.24,766.791 1242.61,770.956 1253.98,775.213 1265.35,779.56 1276.72,783.989 
  1288.09,788.496 1299.46,793.076 1310.83,797.725 1322.2,802.439 1333.57,807.212 1344.94,812.041 1356.31,816.921 1367.68,821.849 1379.05,826.821 1390.42,831.833 
  1401.79,836.881 1413.16,841.962 1424.53,847.074 1435.9,852.211 1447.27,857.372 1458.64,862.553 1470.01,867.752 1481.38,872.965 1492.75,878.189 1504.12,883.423 
  1515.49,888.664 1526.86,893.908 1538.23,899.154 1549.6,904.399 1560.97,909.641 1572.34,914.877 1583.71,920.107 1595.08,925.326 1606.45,930.534 1617.82,935.728 
  1629.19,940.907 1640.55,946.068 1651.92,951.21 1663.29,956.331 1674.66,961.429 1686.03,966.503 1697.4,971.551 1708.77,976.571 1720.14,981.562 1731.51,986.522 
  1742.88,991.45 1754.25,996.344 1765.62,1001.2 1776.99,1006.03 1788.36,1010.81 1799.73,1015.56 1811.1,1020.26 1822.47,1024.93 1833.84,1029.55 1845.21,1034.13 
  1856.58,1038.66 1867.95,1043.15 1879.32,1047.59 1890.69,1051.99 1902.06,1056.33 1913.43,1060.63 1924.8,1064.87 1936.17,1069.07 1947.54,1073.21 1958.91,1077.3 
  1970.28,1081.33 1981.65,1085.31 1993.02,1089.24 2004.39,1093.11 2015.76,1096.93 2027.13,1100.68 2038.5,1104.38 2049.87,1108.03 2061.24,1111.61 2072.61,1115.14 
  2083.98,1118.61 2095.34,1122.02 2106.71,1125.37 2118.08,1128.66 2129.45,1131.89 2140.82,1135.06 2152.19,1138.17 2163.56,1141.22 2174.93,1144.21 2186.3,1147.14 
  2197.67,1150.01 2209.04,1152.82 2220.41,1155.57 2231.78,1158.26 2243.15,1160.88 2254.52,1163.45 2265.89,1165.96 2277.26,1168.41 2288.63,1170.8 
  "/>
<polyline clip-path="url(#clip712)" style="stroke:#034e7a; stroke-width:4; stroke-opacity:1; fill:none" stroke-dasharray="2, 4" points="
  151.118,1479.3 162.487,1414.15 173.857,1350.65 185.227,1296.7 196.597,1257.69 207.966,1232.97 219.336,1218.71 230.706,1210.92 242.076,1206.65 253.445,1204.07 
  264.815,1202.13 276.185,1200.23 287.555,1198.02 298.924,1195.26 310.294,1191.79 321.664,1187.53 333.034,1182.38 344.403,1176.34 355.773,1169.38 367.143,1161.54 
  378.513,1152.85 389.882,1143.37 401.252,1133.17 412.622,1122.31 423.992,1110.89 435.361,1098.97 446.731,1086.64 458.101,1073.98 469.471,1061.05 480.84,1047.92 
  492.21,1034.67 503.58,1021.35 514.95,1008.03 526.319,994.748 537.689,981.561 549.059,968.511 560.429,955.64 571.798,942.984 583.168,930.577 594.538,918.446 
  605.908,906.619 617.277,895.117 628.647,883.961 640.017,873.167 651.387,862.748 662.756,852.715 674.126,843.079 685.496,833.844 696.866,825.016 708.235,816.597 
  719.605,808.588 730.975,800.989 742.345,793.798 753.714,787.012 765.084,780.626 776.454,774.636 787.824,769.036 799.193,763.82 810.563,758.98 821.933,754.51 
  833.303,750.401 844.672,746.645 856.042,743.235 867.412,740.161 878.782,737.415 890.151,734.988 901.521,732.872 912.891,731.059 924.261,729.538 935.63,728.303 
  947,727.343 958.37,726.652 969.74,726.219 981.109,726.038 992.479,726.1 1003.85,726.396 1015.22,726.919 1026.59,727.661 1037.96,728.614 1049.33,729.771 
  1060.7,731.123 1072.07,732.664 1083.44,734.387 1094.81,736.284 1106.18,738.348 1117.55,740.573 1128.92,742.952 1140.29,745.478 1151.66,748.145 1163.03,750.947 
  1174.4,753.878 1185.76,756.931 1197.13,760.102 1208.5,763.384 1219.87,766.773 1231.24,770.262 1242.61,773.847 1253.98,777.522 1265.35,781.284 1276.72,785.127 
  1288.09,789.046 1299.46,793.039 1310.83,797.099 1322.2,801.224 1333.57,805.409 1344.94,809.651 1356.31,813.946 1367.68,818.291 1379.05,822.682 1390.42,827.117 
  1401.79,831.591 1413.16,836.102 1424.53,840.648 1435.9,845.225 1447.27,849.832 1458.64,854.465 1470.01,859.121 1481.38,863.8 1492.75,868.498 1504.12,873.214 
  1515.49,877.945 1526.86,882.69 1538.23,887.446 1549.6,892.212 1560.97,896.986 1572.34,901.767 1583.71,906.552 1595.08,911.34 1606.45,916.131 1617.82,920.921 
  1629.19,925.71 1640.55,930.497 1651.92,935.28 1663.29,940.058 1674.66,944.83 1686.03,949.595 1697.4,954.351 1708.77,959.097 1720.14,963.832 1731.51,968.556 
  1742.88,973.267 1754.25,977.964 1765.62,982.646 1776.99,987.312 1788.36,991.962 1799.73,996.594 1811.1,1001.21 1822.47,1005.8 1833.84,1010.38 1845.21,1014.93 
  1856.58,1019.46 1867.95,1023.97 1879.32,1028.46 1890.69,1032.92 1902.06,1037.36 1913.43,1041.77 1924.8,1046.16 1936.17,1050.52 1947.54,1054.85 1958.91,1059.16 
  1970.28,1063.43 1981.65,1067.68 1993.02,1071.9 2004.39,1076.08 2015.76,1080.24 2027.13,1084.36 2038.5,1088.46 2049.87,1092.52 2061.24,1096.55 2072.61,1100.54 
  2083.98,1104.5 2095.34,1108.43 2106.71,1112.32 2118.08,1116.18 2129.45,1120 2140.82,1123.79 2152.19,1127.54 2163.56,1131.26 2174.93,1134.93 2186.3,1138.58 
  2197.67,1142.18 2209.04,1145.75 2220.41,1149.28 2231.78,1152.77 2243.15,1156.22 2254.52,1159.64 2265.89,1163.02 2277.26,1166.35 2288.63,1169.65 
  "/>
<polyline clip-path="url(#clip712)" style="stroke:#fff7fa; stroke-width:4; stroke-opacity:1; fill:none" points="
  151.118,1279.72 162.487,1273.25 173.857,1267.17 185.227,1261.46 196.597,1256.11 207.966,1251.1 219.336,1246.44 230.706,1242.11 242.076,1238.08 253.445,1234.36 
  264.815,1230.94 276.185,1227.79 287.555,1224.91 298.924,1222.28 310.294,1219.91 321.664,1217.76 333.034,1215.84 344.403,1214.12 355.773,1212.6 367.143,1211.28 
  378.513,1210.12 389.882,1208.47 401.252,1207.26 412.622,1207.92 423.992,1209.05 435.361,1208.11 446.731,1206.45 458.101,1207.65 469.471,1208.32 480.84,1211.21 
  492.21,1210.74 503.58,1210.91 514.95,1210.91 526.319,1210.6 537.689,1209.45 549.059,1205.38 560.429,1201.43 571.798,1198.92 583.168,1194.08 594.538,1186.81 
  605.908,1180.74 617.277,1171.99 628.647,1165.69 640.017,1160.09 651.387,1156.62 662.756,1151.38 674.126,1146.21 685.496,1142.24 696.866,1137.73 708.235,1133.55 
  719.605,1127.94 730.975,1121.33 742.345,1116.21 753.714,1110.4 765.084,1106.83 776.454,1104.4 787.824,1101 799.193,1099.32 810.563,1095.51 821.933,1093.77 
  833.303,1092.82 844.672,1090.51 856.042,1090.07 867.412,1090.36 878.782,1090.14 890.151,1090.35 901.521,1093.9 912.891,1094.3 924.261,1094.36 935.63,1095.83 
  947,1096.19 958.37,1098.05 969.74,1097.28 981.109,1097.86 992.479,1096.87 1003.85,1095.46 1015.22,1093.82 1026.59,1091.75 1037.96,1088.62 1049.33,1087.37 
  1060.7,1086.36 1072.07,1083.09 1083.44,1081.66 1094.81,1077.55 1106.18,1076.19 1117.55,1073.09 1128.92,1071.14 1140.29,1070.6 1151.66,1068.93 1163.03,1069.09 
  1174.4,1069.23 1185.76,1069.17 1197.13,1068.5 1208.5,1069.1 1219.87,1071.95 1231.24,1073.89 1242.61,1076.97 1253.98,1079.95 1265.35,1081.84 1276.72,1086.68 
  1288.09,1091.94 1299.46,1095.6 1310.83,1100.75 1322.2,1102.86 1333.57,1104.07 1344.94,1103.7 1356.31,1103.13 1367.68,1098.92 1379.05,1096.58 1390.42,1092.02 
  1401.79,1087.24 1413.16,1078.78 1424.53,1069.5 1435.9,1059.41 1447.27,1046.63 1458.64,1034.05 1470.01,1020.45 1481.38,1006.88 1492.75,993.278 1504.12,977.358 
  1515.49,959.471 1526.86,941.923 1538.23,925.817 1549.6,907.28 1560.97,891.432 1572.34,874.887 1583.71,858.708 1595.08,844.603 1606.45,829.986 1617.82,814.981 
  1629.19,804.47 1640.55,795.743 1651.92,785.942 1663.29,779.984 1674.66,774.196 1686.03,765.806 1697.4,758.77 1708.77,751.96 1720.14,747.02 1731.51,745.806 
  1742.88,742.51 1754.25,734.954 1765.62,729.354 1776.99,722.421 1788.36,716.055 1799.73,708.043 1811.1,704.257 1822.47,697.802 1833.84,690.744 1845.21,687.413 
  1856.58,683.548 1867.95,677.243 1879.32,671.075 1890.69,665.788 1902.06,660.025 1913.43,654.619 1924.8,651.184 1936.17,648.618 1947.54,644.96 1958.91,640.164 
  1970.28,636.594 1981.65,632.518 1993.02,627.491 2004.39,621.365 2015.76,616.314 2027.13,612.764 2038.5,605.665 2049.87,598.06 2061.24,589.815 2072.61,582.666 
  2083.98,574.612 2095.34,565.545 2106.71,555.358 2118.08,543.943 2129.45,531.193 2140.82,516.999 2152.19,501.254 2163.56,483.85 2174.93,464.68 2186.3,443.636 
  2197.67,420.61 2209.04,395.495 2220.41,368.182 2231.78,338.565 2243.15,306.536 2254.52,271.986 2265.89,234.809 2277.26,194.896 2288.63,152.14 
  "/>
<polyline clip-path="url(#clip712)" style="stroke:#ebe7f1; stroke-width:4; stroke-opacity:1; fill:none" points="
  151.118,1159.09 162.487,1154.41 173.857,1150.59 185.227,1147.59 196.597,1145.36 207.966,1143.85 219.336,1143.01 230.706,1142.79 242.076,1143.13 253.445,1143.99 
  264.815,1145.31 276.185,1147.06 287.555,1149.17 298.924,1151.59 310.294,1154.28 321.664,1157.19 333.034,1160.26 344.403,1163.45 355.773,1166.7 367.143,1169.96 
  378.513,1173.19 389.882,1176.95 401.252,1181.31 412.622,1183.68 423.992,1186.76 435.361,1187.59 446.731,1189.82 458.101,1189.72 469.471,1190.61 480.84,1189 
  492.21,1186.64 503.58,1182.87 514.95,1179.46 526.319,1177.02 537.689,1172.67 549.059,1167.42 560.429,1162.16 571.798,1158.58 583.168,1153.88 594.538,1146.02 
  605.908,1139.2 617.277,1131.03 628.647,1121.27 640.017,1111.82 651.387,1100.26 662.756,1088.75 674.126,1076.16 685.496,1066.61 696.866,1053.49 708.235,1042.49 
  719.605,1032.55 730.975,1019.22 742.345,1005.86 753.714,993.538 765.084,981.249 776.454,970.662 787.824,959.309 799.193,947.836 810.563,939.414 821.933,931.513 
  833.303,924.112 844.672,917.446 856.042,912.418 867.412,906.849 878.782,904.601 890.151,901.547 901.521,902.102 912.891,901.766 924.261,905.693 935.63,908.516 
  947,913.283 958.37,918.051 969.74,922.384 981.109,927.108 992.479,932.43 1003.85,938.325 1015.22,947.803 1026.59,956.791 1037.96,963.433 1049.33,969.57 
  1060.7,974.104 1072.07,977.771 1083.44,978.697 1094.81,978.984 1106.18,978.866 1117.55,978.106 1128.92,975.251 1140.29,974.863 1151.66,971.612 1163.03,967.839 
  1174.4,962.47 1185.76,956.038 1197.13,948.763 1208.5,941.917 1219.87,935.677 1231.24,931.361 1242.61,927.955 1253.98,925.291 1265.35,921.301 1276.72,918.687 
  1288.09,917.026 1299.46,916.075 1310.83,916.626 1322.2,915.797 1333.57,917.97 1344.94,920.37 1356.31,921.927 1367.68,924.586 1379.05,927.231 1390.42,931.348 
  1401.79,935.82 1413.16,939.715 1424.53,942.938 1435.9,948.463 1447.27,953.259 1458.64,956.002 1470.01,958.172 1481.38,957.615 1492.75,956.668 1504.12,953.234 
  1515.49,949.971 1526.86,947.496 1538.23,945.85 1549.6,943.745 1560.97,942.774 1572.34,939.652 1583.71,935.672 1595.08,931.31 1606.45,929.506 1617.82,926.278 
  1629.19,922.817 1640.55,919.567 1651.92,914.878 1663.29,910.987 1674.66,908.004 1686.03,903.295 1697.4,897.894 1708.77,888.812 1720.14,880.005 1731.51,871.946 
  1742.88,862.802 1754.25,850.303 1765.62,837.312 1776.99,823.371 1788.36,811.098 1799.73,797.033 1811.1,786.206 1822.47,776.235 1833.84,765.583 1845.21,755.983 
  1856.58,742.6 1867.95,731.481 1879.32,716.74 1890.69,703.781 1902.06,688.081 1913.43,672.553 1924.8,658.809 1936.17,644.899 1947.54,626.038 1958.91,611.102 
  1970.28,594.206 1981.65,578.077 1993.02,561.983 2004.39,545.299 2015.76,528.464 2027.13,512.437 2038.5,497.155 2049.87,483.692 2061.24,472.82 2072.61,456.947 
  2083.98,441.224 2095.34,425.712 2106.71,410.472 2118.08,395.564 2129.45,381.05 2140.82,366.991 2152.19,353.448 2163.56,340.481 2174.93,328.152 2186.3,316.52 
  2197.67,305.648 2209.04,295.597 2220.41,286.426 2231.78,278.198 2243.15,270.972 2254.52,264.811 2265.89,259.774 2277.26,255.923 2288.63,253.319 
  "/>
<polyline clip-path="url(#clip712)" style="stroke:#d0d1e6; stroke-width:4; stroke-opacity:1; fill:none" points="
  151.118,1246.86 162.487,1241.24 173.857,1235.35 185.227,1229.22 196.597,1222.85 207.966,1216.26 219.336,1209.47 230.706,1202.51 242.076,1195.38 253.445,1188.1 
  264.815,1180.69 276.185,1173.17 287.555,1165.55 298.924,1157.86 310.294,1150.1 321.664,1142.3 333.034,1134.48 344.403,1126.64 355.773,1118.82 367.143,1111.02 
  378.513,1103.26 389.882,1097.02 401.252,1089.4 412.622,1081.13 423.992,1072.47 435.361,1064.99 446.731,1059.38 458.101,1054.37 469.471,1047.44 480.84,1039 
  492.21,1032.28 503.58,1025.9 514.95,1018.99 526.319,1012.22 537.689,1005.38 549.059,999.683 560.429,993.965 571.798,989.976 583.168,986.916 594.538,985.389 
  605.908,982.842 617.277,983.46 628.647,981.985 640.017,982.73 651.387,982.466 662.756,983.735 674.126,985.682 685.496,988.712 696.866,992.537 708.235,996.914 
  719.605,1001.23 730.975,1007.37 742.345,1013.1 753.714,1018.93 765.084,1025.38 776.454,1030.21 787.824,1038.22 799.193,1044.35 810.563,1048.73 821.933,1051.84 
  833.303,1056.9 844.672,1060.26 856.042,1060.65 867.412,1063.15 878.782,1066.32 890.151,1070.91 901.521,1074.91 912.891,1077.57 924.261,1078.95 935.63,1080.56 
  947,1081.4 958.37,1078.66 969.74,1077.97 981.109,1076.87 992.479,1072.91 1003.85,1070.23 1015.22,1067.86 1026.59,1064.99 1037.96,1060.28 1049.33,1055.86 
  1060.7,1050.04 1072.07,1046.74 1083.44,1039.83 1094.81,1035.47 1106.18,1029.48 1117.55,1023.35 1128.92,1019.25 1140.29,1012.41 1151.66,1008.93 1163.03,1006.07 
  1174.4,1001.01 1185.76,996.604 1197.13,990.979 1208.5,985.867 1219.87,979.194 1231.24,974.069 1242.61,971.056 1253.98,968.016 1265.35,964.051 1276.72,962.861 
  1288.09,959.982 1299.46,955.639 1310.83,952.094 1322.2,950.357 1333.57,947.053 1344.94,943.39 1356.31,939.971 1367.68,936.583 1379.05,934.573 1390.42,932.096 
  1401.79,927.677 1413.16,921.747 1424.53,916.805 1435.9,908.893 1447.27,901.871 1458.64,895.331 1470.01,885.559 1481.38,874.768 1492.75,863.482 1504.12,852.067 
  1515.49,837.638 1526.86,822.853 1538.23,804.117 1549.6,783.756 1560.97,762.66 1572.34,742.711 1583.71,721.472 1595.08,698.96 1606.45,679.233 1617.82,658.261 
  1629.19,635.972 1640.55,615.6 1651.92,594.928 1663.29,576.118 1674.66,560.374 1686.03,546.591 1697.4,533.467 1708.77,523.83 1720.14,513.734 1731.51,502.472 
  1742.88,492.486 1754.25,485.631 1765.62,479.592 1776.99,474.821 1788.36,468.173 1799.73,467.37 1811.1,467.681 1822.47,468.356 1833.84,469.941 1845.21,470.743 
  1856.58,469.297 1867.95,470.141 1879.32,473.075 1890.69,475.314 1902.06,478.939 1913.43,480.915 1924.8,483.496 1936.17,487.988 1947.54,490.457 1958.91,489.049 
  1970.28,489.169 1981.65,487.426 1993.02,485.501 2004.39,481.789 2015.76,477.95 2027.13,473.065 2038.5,465.51 2049.87,457.76 2061.24,446.32 2072.61,438.996 
  2083.98,430.888 2095.34,421.944 2106.71,412.107 2118.08,401.324 2129.45,389.54 2140.82,376.701 2152.19,362.752 2163.56,347.638 2174.93,331.305 2186.3,313.699 
  2197.67,294.765 2209.04,274.449 2220.41,252.696 2231.78,229.452 2243.15,204.662 2254.52,178.272 2265.89,150.227 2277.26,120.472 2288.63,88.9544 
  "/>
<polyline clip-path="url(#clip712)" style="stroke:#a6bcdb; stroke-width:4; stroke-opacity:1; fill:none" points="
  151.118,1192.66 162.487,1189.98 173.857,1186.9 185.227,1183.43 196.597,1179.6 207.966,1175.42 219.336,1170.89 230.706,1166.04 242.076,1160.89 253.445,1155.44 
  264.815,1149.71 276.185,1143.72 287.555,1137.49 298.924,1131.02 310.294,1124.33 321.664,1117.44 333.034,1110.37 344.403,1103.12 355.773,1095.71 367.143,1088.17 
  378.513,1080.49 389.882,1073.58 401.252,1064.49 412.622,1055.42 423.992,1046.35 435.361,1037.4 446.731,1031.01 458.101,1022.41 469.471,1014.9 480.84,1007.83 
  492.21,1000.37 503.58,993.26 514.95,987.07 526.319,979.408 537.689,970.622 549.059,963.196 560.429,954.151 571.798,945.761 583.168,939.433 594.538,930.878 
  605.908,924.611 617.277,919.044 628.647,913.062 640.017,908.472 651.387,903.792 662.756,900.214 674.126,896.382 685.496,893.083 696.866,889.234 708.235,886.149 
  719.605,882.734 730.975,881.8 742.345,878.261 753.714,873.532 765.084,870.404 776.454,867.196 787.824,863.436 799.193,860.998 810.563,859.649 821.933,858.129 
  833.303,859.511 844.672,863.174 856.042,864.97 867.412,869.606 878.782,876.276 890.151,883.656 901.521,891.369 912.891,898.926 924.261,906.639 935.63,915.576 
  947,925.557 958.37,933.44 969.74,941.139 981.109,948.989 992.479,958.49 1003.85,968.55 1015.22,979.253 1026.59,987.519 1037.96,996.863 1049.33,1003.86 
  1060.7,1012.28 1072.07,1018.77 1083.44,1023.61 1094.81,1029.16 1106.18,1032.83 1117.55,1036.39 1128.92,1037.63 1140.29,1037.16 1151.66,1035.9 1163.03,1034.56 
  1174.4,1032.51 1185.76,1033.17 1197.13,1031.65 1208.5,1029.37 1219.87,1027.28 1231.24,1027.08 1242.61,1029.08 1253.98,1032.49 1265.35,1036.8 1276.72,1041.12 
  1288.09,1044.21 1299.46,1048.99 1310.83,1051.91 1322.2,1056.87 1333.57,1060.87 1344.94,1063.36 1356.31,1064.95 1367.68,1067.25 1379.05,1066.41 1390.42,1065.74 
  1401.79,1063.9 1413.16,1060.91 1424.53,1059.62 1435.9,1056.73 1447.27,1053.21 1458.64,1048.63 1470.01,1040.88 1481.38,1030.54 1492.75,1019.96 1504.12,1009.34 
  1515.49,998.862 1526.86,987.507 1538.23,976.823 1549.6,965.261 1560.97,954.189 1572.34,941.39 1583.71,928.865 1595.08,916.676 1606.45,908.12 1617.82,900.609 
  1629.19,893.543 1640.55,888.535 1651.92,881.493 1663.29,875.424 1674.66,871.146 1686.03,869.674 1697.4,867.354 1708.77,863.493 1720.14,859.38 1731.51,852.244 
  1742.88,847.502 1754.25,845.077 1765.62,838.323 1776.99,832.359 1788.36,824.444 1799.73,816.563 1811.1,807.681 1822.47,801.153 1833.84,790.977 1845.21,780.548 
  1856.58,771.948 1867.95,759.805 1879.32,746.485 1890.69,731.703 1902.06,717.816 1913.43,703.06 1924.8,689.445 1936.17,675.716 1947.54,663.564 1958.91,653.981 
  1970.28,642.119 1981.65,630.707 1993.02,615.336 2004.39,601.085 2015.76,590.7 2027.13,579.425 2038.5,570.579 2049.87,562.246 2061.24,555.395 2072.61,547.78 
  2083.98,540.373 2095.34,533.133 2106.71,526.019 2118.08,518.991 2129.45,512.007 2140.82,505.027 2152.19,498.009 2163.56,490.913 2174.93,483.698 2186.3,476.322 
  2197.67,468.744 2209.04,460.925 2220.41,452.822 2231.78,444.395 2243.15,435.602 2254.52,426.404 2265.89,416.758 2277.26,406.625 2288.63,395.962 
  "/>
<polyline clip-path="url(#clip712)" style="stroke:#74a9cf; stroke-width:4; stroke-opacity:1; fill:none" points="
  151.118,1217.4 162.487,1217.24 173.857,1217.19 185.227,1217.23 196.597,1217.32 207.966,1217.42 219.336,1217.51 230.706,1217.55 242.076,1217.5 253.445,1217.33 
  264.815,1217.01 276.185,1216.49 287.555,1215.74 298.924,1214.74 310.294,1213.44 321.664,1211.81 333.034,1209.82 344.403,1207.42 355.773,1204.6 367.143,1201.3 
  378.513,1197.5 389.882,1192.45 401.252,1185.39 412.622,1177.87 423.992,1170.29 435.361,1163.37 446.731,1153.77 458.101,1145.2 469.471,1135.87 480.84,1129.07 
  492.21,1118.88 503.58,1106.9 514.95,1095.5 526.319,1083.06 537.689,1069.73 549.059,1056.39 560.429,1040.58 571.798,1025.47 583.168,1009.34 594.538,993.17 
  605.908,976.299 617.277,959.794 628.647,941.946 640.017,924.633 651.387,908.114 662.756,890.33 674.126,875.357 685.496,859.778 696.866,847.133 708.235,833.382 
  719.605,820.004 730.975,807.321 742.345,796.158 753.714,784.588 765.084,774.471 776.454,765.607 787.824,756.799 799.193,748.911 810.563,740.358 821.933,733.388 
  833.303,727.071 844.672,721.742 856.042,717.22 867.412,714.534 878.782,711.881 890.151,712.078 901.521,713.212 912.891,716.378 924.261,718.49 935.63,724.01 
  947,725.898 958.37,731.642 969.74,738.154 981.109,744.384 992.479,751.544 1003.85,759.154 1015.22,766.592 1026.59,774.586 1037.96,783.366 1049.33,789.517 
  1060.7,796.513 1072.07,805.052 1083.44,812.192 1094.81,819.026 1106.18,824.919 1117.55,831.907 1128.92,838.385 1140.29,844.941 1151.66,852.221 1163.03,859.132 
  1174.4,867.049 1185.76,874.397 1197.13,880.996 1208.5,888.937 1219.87,896.181 1231.24,902.297 1242.61,910.602 1253.98,920.951 1265.35,930.46 1276.72,941.207 
  1288.09,952.279 1299.46,962.005 1310.83,970.985 1322.2,980.92 1333.57,990.62 1344.94,1000.15 1356.31,1007.45 1367.68,1015.94 1379.05,1022.8 1390.42,1030.88 
  1401.79,1037.32 1413.16,1044.59 1424.53,1050.44 1435.9,1055.2 1447.27,1058.28 1458.64,1060.45 1470.01,1061.14 1481.38,1060.77 1492.75,1059.05 1504.12,1055.29 
  1515.49,1052.84 1526.86,1050.11 1538.23,1044.01 1549.6,1037.51 1560.97,1031.65 1572.34,1025.54 1583.71,1018.37 1595.08,1011.33 1606.45,1006.01 1617.82,1001.6 
  1629.19,997.258 1640.55,994.336 1651.92,991.781 1663.29,988.923 1674.66,988.57 1686.03,987.394 1697.4,988.9 1708.77,989.631 1720.14,987.421 1731.51,986.332 
  1742.88,986.902 1754.25,984.68 1765.62,981.879 1776.99,979.38 1788.36,973.866 1799.73,968.886 1811.1,962.371 1822.47,956.145 1833.84,949.025 1845.21,940.195 
  1856.58,929.563 1867.95,917.768 1879.32,906.684 1890.69,892.689 1902.06,876.987 1913.43,863.073 1924.8,847.951 1936.17,831.831 1947.54,814.805 1958.91,798.49 
  1970.28,782.126 1981.65,764.569 1993.02,747.733 2004.39,731.261 2015.76,715.453 2027.13,698.233 2038.5,681.765 2049.87,665.458 2061.24,651.957 2072.61,639.842 
  2083.98,628.212 2095.34,617.058 2106.71,606.369 2118.08,596.136 2129.45,586.35 2140.82,576.999 2152.19,568.074 2163.56,559.566 2174.93,551.465 2186.3,543.76 
  2197.67,536.442 2209.04,529.501 2220.41,522.926 2231.78,516.709 2243.15,510.84 2254.52,505.307 2265.89,500.103 2277.26,495.216 2288.63,490.637 
  "/>
<polyline clip-path="url(#clip712)" style="stroke:#3690c0; stroke-width:4; stroke-opacity:1; fill:none" points="
  151.118,1275.97 162.487,1278.07 173.857,1279.09 185.227,1279.07 196.597,1278.04 207.966,1276.06 219.336,1273.17 230.706,1269.4 242.076,1264.8 253.445,1259.42 
  264.815,1253.29 276.185,1246.46 287.555,1238.97 298.924,1230.86 310.294,1222.17 321.664,1212.95 333.034,1203.24 344.403,1193.09 355.773,1182.52 367.143,1171.6 
  378.513,1160.35 389.882,1146.77 401.252,1134.98 412.622,1124.18 423.992,1114.08 435.361,1102.95 446.731,1091.38 458.101,1077.94 469.471,1065.3 480.84,1052.93 
  492.21,1039.45 503.58,1028.42 514.95,1016.27 526.319,1006.38 537.689,992.266 549.059,982.122 560.429,968.951 571.798,955.044 583.168,942.426 594.538,933.344 
  605.908,922.206 617.277,909.937 628.647,899.239 640.017,888.243 651.387,878.262 662.756,868.59 674.126,859.667 685.496,848.95 696.866,840.324 708.235,831.685 
  719.605,823.433 730.975,814.408 742.345,807.022 753.714,798.923 765.084,792.182 776.454,786.775 787.824,781.723 799.193,777.627 810.563,774.187 821.933,773.38 
  833.303,772.428 844.672,772.994 856.042,773.562 867.412,772.896 878.782,774.519 890.151,775.848 901.521,780.207 912.891,784.294 924.261,792.002 935.63,799.368 
  947,806.429 958.37,815.258 969.74,822.652 981.109,832.956 992.479,842.6 1003.85,854.027 1015.22,864.247 1026.59,875.843 1037.96,889.064 1049.33,901.396 
  1060.7,911.471 1072.07,922.806 1083.44,932.111 1094.81,942.514 1106.18,948.567 1117.55,955.505 1128.92,963.16 1140.29,969.403 1151.66,976.721 1163.03,982.793 
  1174.4,989.676 1185.76,995.995 1197.13,1000.34 1208.5,1005.07 1219.87,1010.97 1231.24,1015.18 1242.61,1021.42 1253.98,1027.98 1265.35,1033.27 1276.72,1040.3 
  1288.09,1046.96 1299.46,1054.4 1310.83,1058.99 1322.2,1065.14 1333.57,1070.53 1344.94,1076.58 1356.31,1083.16 1367.68,1089.56 1379.05,1096.27 1390.42,1099.21 
  1401.79,1102.98 1413.16,1108.09 1424.53,1112.13 1435.9,1115.36 1447.27,1120.31 1458.64,1125.86 1470.01,1129.41 1481.38,1131.39 1492.75,1133.08 1504.12,1133.51 
  1515.49,1133.12 1526.86,1131.65 1538.23,1130.24 1549.6,1130.15 1560.97,1127.56 1572.34,1126.7 1583.71,1125.82 1595.08,1121.51 1606.45,1117.49 1617.82,1113.18 
  1629.19,1108.96 1640.55,1103.85 1651.92,1099.2 1663.29,1096.59 1674.66,1094.14 1686.03,1091.18 1697.4,1089.11 1708.77,1086.17 1720.14,1082.29 1731.51,1078.31 
  1742.88,1076.26 1754.25,1072.36 1765.62,1070.33 1776.99,1067.83 1788.36,1063.9 1799.73,1062.27 1811.1,1061.24 1822.47,1060.19 1833.84,1058.1 1845.21,1056.18 
  1856.58,1054.48 1867.95,1053.87 1879.32,1052.22 1890.69,1052.26 1902.06,1050.86 1913.43,1049.45 1924.8,1048.19 1936.17,1047.96 1947.54,1047.27 1958.91,1046.75 
  1970.28,1045.85 1981.65,1045.81 1993.02,1044.36 2004.39,1041.31 2015.76,1037.57 2027.13,1031.69 2038.5,1027.79 2049.87,1021.19 2061.24,1016.65 2072.61,1011.92 
  2083.98,1007.22 2095.34,1002.6 2106.71,998.102 2118.08,993.761 2129.45,989.626 2140.82,985.737 2152.19,982.139 2163.56,978.874 2174.93,975.985 2186.3,973.515 
  2197.67,971.507 2209.04,970.003 2220.41,969.047 2231.78,968.682 2243.15,968.95 2254.52,969.895 2265.89,971.559 2277.26,973.984 2288.63,977.215 
  "/>
<polyline clip-path="url(#clip712)" style="stroke:#056faf; stroke-width:4; stroke-opacity:1; fill:none" points="
  151.118,1181.03 162.487,1184.11 173.857,1186.63 185.227,1188.59 196.597,1190.01 207.966,1190.89 219.336,1191.26 230.706,1191.12 242.076,1190.49 253.445,1189.37 
  264.815,1187.78 276.185,1185.73 287.555,1183.23 298.924,1180.3 310.294,1176.94 321.664,1173.17 333.034,1169 344.403,1164.44 355.773,1159.5 367.143,1154.2 
  378.513,1148.54 389.882,1143.3 401.252,1138.57 412.622,1131.42 423.992,1125.59 435.361,1117.09 446.731,1109.79 458.101,1101.8 469.471,1094.39 480.84,1085.03 
  492.21,1075.76 503.58,1065.93 514.95,1056.7 526.319,1047.48 537.689,1038.01 549.059,1030.34 560.429,1019.65 571.798,1008.84 583.168,997.821 594.538,987.037 
  605.908,974.419 617.277,960.863 628.647,947.488 640.017,934.299 651.387,921.473 662.756,908.321 674.126,893.395 685.496,879.539 696.866,866.236 708.235,853.204 
  719.605,840.632 730.975,828.369 742.345,816.286 753.714,803.526 765.084,791.523 776.454,779.507 787.824,766.618 799.193,754.855 810.563,743.258 821.933,733.702 
  833.303,726.174 844.672,718.348 856.042,712.14 867.412,706.422 878.782,703.758 890.151,699.847 901.521,698.321 912.891,696.639 924.261,696.839 935.63,696.821 
  947,696.989 958.37,698.98 969.74,701.461 981.109,704.143 992.479,707.72 1003.85,710.078 1015.22,711.179 1026.59,713.672 1037.96,716.093 1049.33,719.792 
  1060.7,722.258 1072.07,726.754 1083.44,732.016 1094.81,736.281 1106.18,740.961 1117.55,743.464 1128.92,748.356 1140.29,752.159 1151.66,757.265 1163.03,763.187 
  1174.4,767.153 1185.76,772.015 1197.13,776.682 1208.5,780.933 1219.87,785.043 1231.24,789.223 1242.61,794.204 1253.98,799.134 1265.35,803.036 1276.72,808.024 
  1288.09,812.909 1299.46,817.73 1310.83,822.389 1322.2,825.844 1333.57,829.01 1344.94,832.545 1356.31,835.847 1367.68,838.166 1379.05,840.285 1390.42,841.659 
  1401.79,841.524 1413.16,842.636 1424.53,842.736 1435.9,842.533 1447.27,841.689 1458.64,840.568 1470.01,840.189 1481.38,841.084 1492.75,842.129 1504.12,843.862 
  1515.49,843.483 1526.86,844.816 1538.23,845.084 1549.6,845.12 1560.97,845.988 1572.34,846.24 1583.71,847.999 1595.08,848.567 1606.45,851.644 1617.82,853.385 
  1629.19,854.092 1640.55,857.212 1651.92,860.282 1663.29,863.889 1674.66,867.311 1686.03,870.043 1697.4,871.707 1708.77,872.791 1720.14,874.724 1731.51,878.646 
  1742.88,880.469 1754.25,883.15 1765.62,884.937 1776.99,886.424 1788.36,888.043 1799.73,889.194 1811.1,889.277 1822.47,890.929 1833.84,892.096 1845.21,892.549 
  1856.58,892.887 1867.95,893.131 1879.32,892.564 1890.69,892.03 1902.06,891.971 1913.43,891.217 1924.8,892.023 1936.17,892.846 1947.54,893.145 1958.91,892.623 
  1970.28,891.16 1981.65,891.071 1993.02,890.618 2004.39,890.063 2015.76,888.534 2027.13,888.712 2038.5,888.894 2049.87,889.161 2061.24,889.083 2072.61,889.223 
  2083.98,889.286 2095.34,889.249 2106.71,889.089 2118.08,888.785 2129.45,888.314 2140.82,887.652 2152.19,886.778 2163.56,885.668 2174.93,884.301 2186.3,882.653 
  2197.67,880.702 2209.04,878.425 2220.41,875.801 2231.78,872.806 2243.15,869.417 2254.52,865.612 2265.89,861.369 2277.26,856.665 2288.63,851.477 
  "/>
<polyline clip-path="url(#clip712)" style="stroke:#034e7a; stroke-width:4; stroke-opacity:1; fill:none" points="
  151.118,1200.82 162.487,1208.75 173.857,1214.86 185.227,1219.24 196.597,1221.94 207.966,1223.05 219.336,1222.64 230.706,1220.79 242.076,1217.56 253.445,1213.05 
  264.815,1207.32 276.185,1200.45 287.555,1192.51 298.924,1183.57 310.294,1173.72 321.664,1163.03 333.034,1151.57 344.403,1139.41 355.773,1126.64 367.143,1113.33 
  378.513,1099.55 389.882,1086.43 401.252,1073.23 412.622,1059.8 423.992,1046.12 435.361,1030.92 446.731,1016.74 458.101,1000.67 469.471,986.537 480.84,971.905 
  492.21,959.666 503.58,944.209 514.95,929.318 526.319,914.854 537.689,899.079 549.059,884.432 560.429,870.59 571.798,857.518 583.168,844.652 594.538,830.249 
  605.908,819.834 617.277,808.951 628.647,798.654 640.017,788.413 651.387,778.91 662.756,768.421 674.126,758.77 685.496,749.711 696.866,740.283 708.235,730.385 
  719.605,721.397 730.975,714.006 742.345,705.274 753.714,697.773 765.084,693.518 776.454,688.995 787.824,682.734 799.193,676.426 810.563,673.533 821.933,671.303 
  833.303,669.58 844.672,667.342 856.042,668.012 867.412,667.552 878.782,665.357 890.151,665.911 901.521,667.537 912.891,668.672 924.261,672.674 935.63,676.137 
  947,678.12 958.37,677.639 969.74,680.121 981.109,682.943 992.479,684.858 1003.85,688.734 1015.22,692.396 1026.59,694.773 1037.96,698.337 1049.33,702.945 
  1060.7,707.003 1072.07,710.752 1083.44,714.438 1094.81,718.761 1106.18,723.98 1117.55,726.989 1128.92,731.82 1140.29,734.834 1151.66,737.531 1163.03,741.388 
  1174.4,745.226 1185.76,750.029 1197.13,752.08 1208.5,757.015 1219.87,762.67 1231.24,767.094 1242.61,771.061 1253.98,778.022 1265.35,784.663 1276.72,789.517 
  1288.09,795.887 1299.46,803.248 1310.83,810.267 1322.2,814.788 1333.57,819.336 1344.94,825.309 1356.31,830.809 1367.68,837.502 1379.05,843.73 1390.42,847.556 
  1401.79,849.962 1413.16,854.387 1424.53,860.05 1435.9,864.425 1447.27,868.976 1458.64,874.896 1470.01,879.888 1481.38,885.112 1492.75,890.941 1504.12,896.888 
  1515.49,900.215 1526.86,906.701 1538.23,910.953 1549.6,915.97 1560.97,921.767 1572.34,926.214 1583.71,931.936 1595.08,936.741 1606.45,941.233 1617.82,947.319 
  1629.19,952.33 1640.55,956.524 1651.92,961.595 1663.29,968.428 1674.66,974.197 1686.03,979.508 1697.4,985.541 1708.77,990.51 1720.14,994.515 1731.51,998.791 
  1742.88,1004.92 1754.25,1007.87 1765.62,1010.76 1776.99,1013.86 1788.36,1016.74 1799.73,1020.15 1811.1,1025.28 1822.47,1027.9 1833.84,1031.36 1845.21,1034.76 
  1856.58,1038.26 1867.95,1042.72 1879.32,1045.51 1890.69,1049 1902.06,1054.31 1913.43,1060.12 1924.8,1065.74 1936.17,1070.48 1947.54,1075.04 1958.91,1080.73 
  1970.28,1085.02 1981.65,1091.04 1993.02,1095.51 2004.39,1100.98 2015.76,1106.05 2027.13,1110.27 2038.5,1114.8 2049.87,1118.57 2061.24,1121.73 2072.61,1126.07 
  2083.98,1130.28 2095.34,1134.34 2106.71,1138.25 2118.08,1141.97 2129.45,1145.51 2140.82,1148.84 2152.19,1151.93 2163.56,1154.79 2174.93,1157.39 2186.3,1159.71 
  2197.67,1161.74 2209.04,1163.46 2220.41,1164.85 2231.78,1165.9 2243.15,1166.6 2254.52,1166.91 2265.89,1166.84 2277.26,1166.35 2288.63,1165.44 
  "/>
<path clip-path="url(#clip710)" d="
M1941.17 1124.53 L2277.23 1124.53 L2277.23 96.3696 L1941.17 96.3696  Z
  " fill="#ffffff" fill-rule="evenodd" fill-opacity="1"/>
<polyline clip-path="url(#clip710)" style="stroke:#000000; stroke-width:4; stroke-opacity:1; fill:none" points="
  1941.17,1124.53 2277.23,1124.53 2277.23,96.3696 1941.17,96.3696 1941.17,1124.53 
  "/>
<polyline clip-path="url(#clip710)" style="stroke:#fff7fa; stroke-width:4; stroke-opacity:1; fill:none" stroke-dasharray="2, 4" points="
  1966.35,156.85 2117.4,156.85 
  "/>
<path clip-path="url(#clip710)" d="M 0 0 M2156.42 176.537 Q2154.61 181.167 2152.9 182.579 Q2151.19 183.991 2148.32 183.991 L2144.91 183.991 L2144.91 180.426 L2147.41 180.426 Q2149.17 180.426 2150.14 179.592 Q2151.12 178.759 2152.3 175.657 L2153.06 173.713 L2142.58 148.204 L2147.09 148.204 L2155.19 168.481 L2163.29 148.204 L2167.81 148.204 L2156.42 176.537 Z" fill="#000000" fill-rule="evenodd" fill-opacity="1" /><path clip-path="url(#clip710)" d="M 0 0 M2175.1 170.194 L2182.74 170.194 L2182.74 143.829 L2174.43 145.495 L2174.43 141.236 L2182.69 139.57 L2187.37 139.57 L2187.37 170.194 L2195.01 170.194 L2195.01 174.13 L2175.1 174.13 L2175.1 170.194 Z" fill="#000000" fill-rule="evenodd" fill-opacity="1" /><polyline clip-path="url(#clip710)" style="stroke:#ebe7f1; stroke-width:4; stroke-opacity:1; fill:none" stroke-dasharray="2, 4" points="
  1966.35,217.33 2117.4,217.33 
  "/>
<path clip-path="url(#clip710)" d="M 0 0 M2156.42 237.017 Q2154.61 241.647 2152.9 243.059 Q2151.19 244.471 2148.32 244.471 L2144.91 244.471 L2144.91 240.906 L2147.41 240.906 Q2149.17 240.906 2150.14 240.072 Q2151.12 239.239 2152.3 236.137 L2153.06 234.193 L2142.58 208.684 L2147.09 208.684 L2155.19 228.961 L2163.29 208.684 L2167.81 208.684 L2156.42 237.017 Z" fill="#000000" fill-rule="evenodd" fill-opacity="1" /><path clip-path="url(#clip710)" d="M 0 0 M2178.32 230.674 L2194.63 230.674 L2194.63 234.61 L2172.69 234.61 L2172.69 230.674 Q2175.35 227.92 2179.94 223.29 Q2184.54 218.637 2185.72 217.295 Q2187.97 214.772 2188.85 213.036 Q2189.75 211.276 2189.75 209.587 Q2189.75 206.832 2187.81 205.096 Q2185.88 203.36 2182.78 203.36 Q2180.58 203.36 2178.13 204.124 Q2175.7 204.887 2172.92 206.438 L2172.92 201.716 Q2175.75 200.582 2178.2 200.003 Q2180.65 199.425 2182.69 199.425 Q2188.06 199.425 2191.26 202.11 Q2194.45 204.795 2194.45 209.286 Q2194.45 211.415 2193.64 213.337 Q2192.85 215.235 2190.75 217.827 Q2190.17 218.499 2187.07 221.716 Q2183.96 224.911 2178.32 230.674 Z" fill="#000000" fill-rule="evenodd" fill-opacity="1" /><polyline clip-path="url(#clip710)" style="stroke:#d0d1e6; stroke-width:4; stroke-opacity:1; fill:none" stroke-dasharray="2, 4" points="
  1966.35,277.81 2117.4,277.81 
  "/>
<path clip-path="url(#clip710)" d="M 0 0 M2156.42 297.497 Q2154.61 302.127 2152.9 303.539 Q2151.19 304.951 2148.32 304.951 L2144.91 304.951 L2144.91 301.386 L2147.41 301.386 Q2149.17 301.386 2150.14 300.552 Q2151.12 299.719 2152.3 296.617 L2153.06 294.673 L2142.58 269.164 L2147.09 269.164 L2155.19 289.441 L2163.29 269.164 L2167.81 269.164 L2156.42 297.497 Z" fill="#000000" fill-rule="evenodd" fill-opacity="1" /><path clip-path="url(#clip710)" d="M 0 0 M2188.45 276.455 Q2191.81 277.173 2193.69 279.441 Q2195.58 281.71 2195.58 285.043 Q2195.58 290.159 2192.07 292.96 Q2188.55 295.761 2182.07 295.761 Q2179.89 295.761 2177.57 295.321 Q2175.28 294.904 2172.83 294.048 L2172.83 289.534 Q2174.77 290.668 2177.09 291.247 Q2179.4 291.826 2181.93 291.826 Q2186.32 291.826 2188.62 290.09 Q2190.93 288.353 2190.93 285.043 Q2190.93 281.988 2188.78 280.275 Q2186.65 278.539 2182.83 278.539 L2178.8 278.539 L2178.8 274.696 L2183.01 274.696 Q2186.46 274.696 2188.29 273.33 Q2190.12 271.942 2190.12 269.349 Q2190.12 266.687 2188.22 265.275 Q2186.35 263.84 2182.83 263.84 Q2180.91 263.84 2178.71 264.256 Q2176.51 264.673 2173.87 265.553 L2173.87 261.386 Q2176.53 260.645 2178.85 260.275 Q2181.19 259.905 2183.25 259.905 Q2188.57 259.905 2191.67 262.335 Q2194.77 264.742 2194.77 268.863 Q2194.77 271.733 2193.13 273.724 Q2191.49 275.692 2188.45 276.455 Z" fill="#000000" fill-rule="evenodd" fill-opacity="1" /><polyline clip-path="url(#clip710)" style="stroke:#a6bcdb; stroke-width:4; stroke-opacity:1; fill:none" stroke-dasharray="2, 4" points="
  1966.35,338.29 2117.4,338.29 
  "/>
<path clip-path="url(#clip710)" d="M 0 0 M2156.42 357.977 Q2154.61 362.607 2152.9 364.019 Q2151.19 365.431 2148.32 365.431 L2144.91 365.431 L2144.91 361.866 L2147.41 361.866 Q2149.17 361.866 2150.14 361.032 Q2151.12 360.199 2152.3 357.097 L2153.06 355.153 L2142.58 329.644 L2147.09 329.644 L2155.19 349.921 L2163.29 329.644 L2167.81 329.644 L2156.42 357.977 Z" fill="#000000" fill-rule="evenodd" fill-opacity="1" /><path clip-path="url(#clip710)" d="M 0 0 M2187.13 325.084 L2175.33 343.533 L2187.13 343.533 L2187.13 325.084 M2185.91 321.01 L2191.79 321.01 L2191.79 343.533 L2196.72 343.533 L2196.72 347.421 L2191.79 347.421 L2191.79 355.57 L2187.13 355.57 L2187.13 347.421 L2171.53 347.421 L2171.53 342.908 L2185.91 321.01 Z" fill="#000000" fill-rule="evenodd" fill-opacity="1" /><polyline clip-path="url(#clip710)" style="stroke:#74a9cf; stroke-width:4; stroke-opacity:1; fill:none" stroke-dasharray="2, 4" points="
  1966.35,398.77 2117.4,398.77 
  "/>
<path clip-path="url(#clip710)" d="M 0 0 M2156.42 418.457 Q2154.61 423.087 2152.9 424.499 Q2151.19 425.911 2148.32 425.911 L2144.91 425.911 L2144.91 422.346 L2147.41 422.346 Q2149.17 422.346 2150.14 421.512 Q2151.12 420.679 2152.3 417.577 L2153.06 415.633 L2142.58 390.124 L2147.09 390.124 L2155.19 410.401 L2163.29 390.124 L2167.81 390.124 L2156.42 418.457 Z" fill="#000000" fill-rule="evenodd" fill-opacity="1" /><path clip-path="url(#clip710)" d="M 0 0 M2174.33 381.49 L2192.69 381.49 L2192.69 385.425 L2178.62 385.425 L2178.62 393.897 Q2179.64 393.55 2180.65 393.388 Q2181.67 393.202 2182.69 393.202 Q2188.48 393.202 2191.86 396.374 Q2195.24 399.545 2195.24 404.962 Q2195.24 410.54 2191.76 413.642 Q2188.29 416.721 2181.97 416.721 Q2179.8 416.721 2177.53 416.35 Q2175.28 415.98 2172.88 415.239 L2172.88 410.54 Q2174.96 411.675 2177.18 412.23 Q2179.4 412.786 2181.88 412.786 Q2185.88 412.786 2188.22 410.679 Q2190.56 408.573 2190.56 404.962 Q2190.56 401.351 2188.22 399.244 Q2185.88 397.138 2181.88 397.138 Q2180.01 397.138 2178.13 397.554 Q2176.28 397.971 2174.33 398.851 L2174.33 381.49 Z" fill="#000000" fill-rule="evenodd" fill-opacity="1" /><polyline clip-path="url(#clip710)" style="stroke:#3690c0; stroke-width:4; stroke-opacity:1; fill:none" stroke-dasharray="2, 4" points="
  1966.35,459.25 2117.4,459.25 
  "/>
<path clip-path="url(#clip710)" d="M 0 0 M2156.42 478.937 Q2154.61 483.567 2152.9 484.979 Q2151.19 486.391 2148.32 486.391 L2144.91 486.391 L2144.91 482.826 L2147.41 482.826 Q2149.17 482.826 2150.14 481.992 Q2151.12 481.159 2152.3 478.057 L2153.06 476.113 L2142.58 450.604 L2147.09 450.604 L2155.19 470.881 L2163.29 450.604 L2167.81 450.604 L2156.42 478.937 Z" fill="#000000" fill-rule="evenodd" fill-opacity="1" /><path clip-path="url(#clip710)" d="M 0 0 M2184.87 457.386 Q2181.72 457.386 2179.87 459.539 Q2178.04 461.692 2178.04 465.442 Q2178.04 469.168 2179.87 471.344 Q2181.72 473.497 2184.87 473.497 Q2188.01 473.497 2189.84 471.344 Q2191.7 469.168 2191.7 465.442 Q2191.7 461.692 2189.84 459.539 Q2188.01 457.386 2184.87 457.386 M2194.15 442.733 L2194.15 446.993 Q2192.39 446.159 2190.58 445.72 Q2188.8 445.28 2187.04 445.28 Q2182.41 445.28 2179.96 448.405 Q2177.53 451.53 2177.18 457.849 Q2178.55 455.835 2180.61 454.77 Q2182.67 453.682 2185.14 453.682 Q2190.35 453.682 2193.36 456.854 Q2196.39 460.002 2196.39 465.442 Q2196.39 470.766 2193.25 473.983 Q2190.1 477.201 2184.87 477.201 Q2178.87 477.201 2175.7 472.618 Q2172.53 468.011 2172.53 459.284 Q2172.53 451.09 2176.42 446.229 Q2180.31 441.345 2186.86 441.345 Q2188.62 441.345 2190.4 441.692 Q2192.2 442.039 2194.15 442.733 Z" fill="#000000" fill-rule="evenodd" fill-opacity="1" /><polyline clip-path="url(#clip710)" style="stroke:#056faf; stroke-width:4; stroke-opacity:1; fill:none" stroke-dasharray="2, 4" points="
  1966.35,519.73 2117.4,519.73 
  "/>
<path clip-path="url(#clip710)" d="M 0 0 M2156.42 539.417 Q2154.61 544.047 2152.9 545.459 Q2151.19 546.871 2148.32 546.871 L2144.91 546.871 L2144.91 543.306 L2147.41 543.306 Q2149.17 543.306 2150.14 542.472 Q2151.12 541.639 2152.3 538.537 L2153.06 536.593 L2142.58 511.084 L2147.09 511.084 L2155.19 531.361 L2163.29 511.084 L2167.81 511.084 L2156.42 539.417 Z" fill="#000000" fill-rule="evenodd" fill-opacity="1" /><path clip-path="url(#clip710)" d="M 0 0 M2173.11 502.45 L2195.33 502.45 L2195.33 504.44 L2182.78 537.01 L2177.9 537.01 L2189.7 506.385 L2173.11 506.385 L2173.11 502.45 Z" fill="#000000" fill-rule="evenodd" fill-opacity="1" /><polyline clip-path="url(#clip710)" style="stroke:#034e7a; stroke-width:4; stroke-opacity:1; fill:none" stroke-dasharray="2, 4" points="
  1966.35,580.21 2117.4,580.21 
  "/>
<path clip-path="url(#clip710)" d="M 0 0 M2156.42 599.897 Q2154.61 604.527 2152.9 605.939 Q2151.19 607.351 2148.32 607.351 L2144.91 607.351 L2144.91 603.786 L2147.41 603.786 Q2149.17 603.786 2150.14 602.952 Q2151.12 602.119 2152.3 599.017 L2153.06 597.073 L2142.58 571.564 L2147.09 571.564 L2155.19 591.841 L2163.29 571.564 L2167.81 571.564 L2156.42 599.897 Z" fill="#000000" fill-rule="evenodd" fill-opacity="1" /><path clip-path="url(#clip710)" d="M 0 0 M2184.29 581.078 Q2180.95 581.078 2179.03 582.86 Q2177.14 584.642 2177.14 587.767 Q2177.14 590.892 2179.03 592.675 Q2180.95 594.457 2184.29 594.457 Q2187.62 594.457 2189.54 592.675 Q2191.46 590.869 2191.46 587.767 Q2191.46 584.642 2189.54 582.86 Q2187.64 581.078 2184.29 581.078 M2179.61 579.087 Q2176.6 578.346 2174.91 576.286 Q2173.25 574.226 2173.25 571.263 Q2173.25 567.119 2176.19 564.712 Q2179.15 562.305 2184.29 562.305 Q2189.45 562.305 2192.39 564.712 Q2195.33 567.119 2195.33 571.263 Q2195.33 574.226 2193.64 576.286 Q2191.97 578.346 2188.99 579.087 Q2192.37 579.874 2194.24 582.166 Q2196.14 584.457 2196.14 587.767 Q2196.14 592.791 2193.06 595.476 Q2190.01 598.161 2184.29 598.161 Q2178.57 598.161 2175.49 595.476 Q2172.44 592.791 2172.44 587.767 Q2172.44 584.457 2174.33 582.166 Q2176.23 579.874 2179.61 579.087 M2177.9 571.703 Q2177.9 574.388 2179.57 575.892 Q2181.26 577.397 2184.29 577.397 Q2187.3 577.397 2188.99 575.892 Q2190.7 574.388 2190.7 571.703 Q2190.7 569.017 2188.99 567.513 Q2187.3 566.008 2184.29 566.008 Q2181.26 566.008 2179.57 567.513 Q2177.9 569.017 2177.9 571.703 Z" fill="#000000" fill-rule="evenodd" fill-opacity="1" /><polyline clip-path="url(#clip710)" style="stroke:#fff7fa; stroke-width:4; stroke-opacity:1; fill:none" points="
  1966.35,640.69 2117.4,640.69 
  "/>
<path clip-path="url(#clip710)" d="M 0 0 M2156.42 660.377 Q2154.61 665.007 2152.9 666.419 Q2151.19 667.831 2148.32 667.831 L2144.91 667.831 L2144.91 664.266 L2147.41 664.266 Q2149.17 664.266 2150.14 663.432 Q2151.12 662.599 2152.3 659.497 L2153.06 657.553 L2142.58 632.044 L2147.09 632.044 L2155.19 652.321 L2163.29 632.044 L2167.81 632.044 L2156.42 660.377 Z" fill="#000000" fill-rule="evenodd" fill-opacity="1" /><path clip-path="url(#clip710)" d="M 0 0 M2174.43 657.252 L2174.43 652.993 Q2176.19 653.826 2177.99 654.266 Q2179.8 654.706 2181.53 654.706 Q2186.16 654.706 2188.59 651.604 Q2191.05 648.479 2191.39 642.136 Q2190.05 644.127 2187.99 645.192 Q2185.93 646.257 2183.43 646.257 Q2178.25 646.257 2175.21 643.132 Q2172.2 639.984 2172.2 634.544 Q2172.2 629.22 2175.35 626.002 Q2178.5 622.785 2183.73 622.785 Q2189.73 622.785 2192.88 627.391 Q2196.05 631.974 2196.05 640.724 Q2196.05 648.896 2192.16 653.78 Q2188.29 658.641 2181.74 658.641 Q2179.98 658.641 2178.18 658.294 Q2176.37 657.946 2174.43 657.252 M2183.73 642.599 Q2186.88 642.599 2188.71 640.446 Q2190.56 638.294 2190.56 634.544 Q2190.56 630.817 2188.71 628.664 Q2186.88 626.488 2183.73 626.488 Q2180.58 626.488 2178.73 628.664 Q2176.9 630.817 2176.9 634.544 Q2176.9 638.294 2178.73 640.446 Q2180.58 642.599 2183.73 642.599 Z" fill="#000000" fill-rule="evenodd" fill-opacity="1" /><polyline clip-path="url(#clip710)" style="stroke:#ebe7f1; stroke-width:4; stroke-opacity:1; fill:none" points="
  1966.35,701.17 2117.4,701.17 
  "/>
<path clip-path="url(#clip710)" d="M 0 0 M2156.42 720.857 Q2154.61 725.487 2152.9 726.899 Q2151.19 728.311 2148.32 728.311 L2144.91 728.311 L2144.91 724.746 L2147.41 724.746 Q2149.17 724.746 2150.14 723.912 Q2151.12 723.079 2152.3 719.977 L2153.06 718.033 L2142.58 692.524 L2147.09 692.524 L2155.19 712.801 L2163.29 692.524 L2167.81 692.524 L2156.42 720.857 Z" fill="#000000" fill-rule="evenodd" fill-opacity="1" /><path clip-path="url(#clip710)" d="M 0 0 M2175.1 714.514 L2182.74 714.514 L2182.74 688.149 L2174.43 689.815 L2174.43 685.556 L2182.69 683.89 L2187.37 683.89 L2187.37 714.514 L2195.01 714.514 L2195.01 718.45 L2175.1 718.45 L2175.1 714.514 Z" fill="#000000" fill-rule="evenodd" fill-opacity="1" /><path clip-path="url(#clip710)" d="M 0 0 M2214.45 686.968 Q2210.84 686.968 2209.01 690.533 Q2207.2 694.075 2207.2 701.204 Q2207.2 708.311 2209.01 711.876 Q2210.84 715.417 2214.45 715.417 Q2218.08 715.417 2219.89 711.876 Q2221.72 708.311 2221.72 701.204 Q2221.72 694.075 2219.89 690.533 Q2218.08 686.968 2214.45 686.968 M2214.45 683.265 Q2220.26 683.265 2223.32 687.871 Q2226.39 692.454 2226.39 701.204 Q2226.39 709.931 2223.32 714.538 Q2220.26 719.121 2214.45 719.121 Q2208.64 719.121 2205.56 714.538 Q2202.51 709.931 2202.51 701.204 Q2202.51 692.454 2205.56 687.871 Q2208.64 683.265 2214.45 683.265 Z" fill="#000000" fill-rule="evenodd" fill-opacity="1" /><polyline clip-path="url(#clip710)" style="stroke:#d0d1e6; stroke-width:4; stroke-opacity:1; fill:none" points="
  1966.35,761.65 2117.4,761.65 
  "/>
<path clip-path="url(#clip710)" d="M 0 0 M2156.42 781.337 Q2154.61 785.967 2152.9 787.379 Q2151.19 788.791 2148.32 788.791 L2144.91 788.791 L2144.91 785.226 L2147.41 785.226 Q2149.17 785.226 2150.14 784.392 Q2151.12 783.559 2152.3 780.457 L2153.06 778.513 L2142.58 753.004 L2147.09 753.004 L2155.19 773.281 L2163.29 753.004 L2167.81 753.004 L2156.42 781.337 Z" fill="#000000" fill-rule="evenodd" fill-opacity="1" /><path clip-path="url(#clip710)" d="M 0 0 M2175.1 774.994 L2182.74 774.994 L2182.74 748.629 L2174.43 750.295 L2174.43 746.036 L2182.69 744.37 L2187.37 744.37 L2187.37 774.994 L2195.01 774.994 L2195.01 778.93 L2175.1 778.93 L2175.1 774.994 Z" fill="#000000" fill-rule="evenodd" fill-opacity="1" /><path clip-path="url(#clip710)" d="M 0 0 M2205.26 774.994 L2212.9 774.994 L2212.9 748.629 L2204.59 750.295 L2204.59 746.036 L2212.85 744.37 L2217.53 744.37 L2217.53 774.994 L2225.17 774.994 L2225.17 778.93 L2205.26 778.93 L2205.26 774.994 Z" fill="#000000" fill-rule="evenodd" fill-opacity="1" /><polyline clip-path="url(#clip710)" style="stroke:#a6bcdb; stroke-width:4; stroke-opacity:1; fill:none" points="
  1966.35,822.13 2117.4,822.13 
  "/>
<path clip-path="url(#clip710)" d="M 0 0 M2156.42 841.817 Q2154.61 846.447 2152.9 847.859 Q2151.19 849.271 2148.32 849.271 L2144.91 849.271 L2144.91 845.706 L2147.41 845.706 Q2149.17 845.706 2150.14 844.872 Q2151.12 844.039 2152.3 840.937 L2153.06 838.993 L2142.58 813.484 L2147.09 813.484 L2155.19 833.761 L2163.29 813.484 L2167.81 813.484 L2156.42 841.817 Z" fill="#000000" fill-rule="evenodd" fill-opacity="1" /><path clip-path="url(#clip710)" d="M 0 0 M2175.1 835.474 L2182.74 835.474 L2182.74 809.109 L2174.43 810.775 L2174.43 806.516 L2182.69 804.85 L2187.37 804.85 L2187.37 835.474 L2195.01 835.474 L2195.01 839.41 L2175.1 839.41 L2175.1 835.474 Z" fill="#000000" fill-rule="evenodd" fill-opacity="1" /><path clip-path="url(#clip710)" d="M 0 0 M2208.48 835.474 L2224.8 835.474 L2224.8 839.41 L2202.85 839.41 L2202.85 835.474 Q2205.51 832.72 2210.1 828.09 Q2214.7 823.437 2215.88 822.095 Q2218.13 819.572 2219.01 817.836 Q2219.91 816.076 2219.91 814.387 Q2219.91 811.632 2217.97 809.896 Q2216.05 808.16 2212.95 808.16 Q2210.75 808.16 2208.29 808.924 Q2205.86 809.687 2203.08 811.238 L2203.08 806.516 Q2205.91 805.382 2208.36 804.803 Q2210.82 804.225 2212.85 804.225 Q2218.22 804.225 2221.42 806.91 Q2224.61 809.595 2224.61 814.086 Q2224.61 816.215 2223.8 818.137 Q2223.01 820.035 2220.91 822.627 Q2220.33 823.299 2217.23 826.516 Q2214.13 829.711 2208.48 835.474 Z" fill="#000000" fill-rule="evenodd" fill-opacity="1" /><polyline clip-path="url(#clip710)" style="stroke:#74a9cf; stroke-width:4; stroke-opacity:1; fill:none" points="
  1966.35,882.61 2117.4,882.61 
  "/>
<path clip-path="url(#clip710)" d="M 0 0 M2156.42 902.297 Q2154.61 906.927 2152.9 908.339 Q2151.19 909.751 2148.32 909.751 L2144.91 909.751 L2144.91 906.186 L2147.41 906.186 Q2149.17 906.186 2150.14 905.352 Q2151.12 904.519 2152.3 901.417 L2153.06 899.473 L2142.58 873.964 L2147.09 873.964 L2155.19 894.241 L2163.29 873.964 L2167.81 873.964 L2156.42 902.297 Z" fill="#000000" fill-rule="evenodd" fill-opacity="1" /><path clip-path="url(#clip710)" d="M 0 0 M2175.1 895.954 L2182.74 895.954 L2182.74 869.589 L2174.43 871.255 L2174.43 866.996 L2182.69 865.33 L2187.37 865.33 L2187.37 895.954 L2195.01 895.954 L2195.01 899.89 L2175.1 899.89 L2175.1 895.954 Z" fill="#000000" fill-rule="evenodd" fill-opacity="1" /><path clip-path="url(#clip710)" d="M 0 0 M2218.62 881.255 Q2221.97 881.973 2223.85 884.241 Q2225.75 886.51 2225.75 889.843 Q2225.75 894.959 2222.23 897.76 Q2218.71 900.561 2212.23 900.561 Q2210.05 900.561 2207.74 900.121 Q2205.45 899.704 2202.99 898.848 L2202.99 894.334 Q2204.94 895.468 2207.25 896.047 Q2209.57 896.626 2212.09 896.626 Q2216.49 896.626 2218.78 894.89 Q2221.09 893.153 2221.09 889.843 Q2221.09 886.788 2218.94 885.075 Q2216.81 883.339 2212.99 883.339 L2208.96 883.339 L2208.96 879.496 L2213.18 879.496 Q2216.63 879.496 2218.45 878.13 Q2220.28 876.742 2220.28 874.149 Q2220.28 871.487 2218.38 870.075 Q2216.51 868.64 2212.99 868.64 Q2211.07 868.64 2208.87 869.056 Q2206.67 869.473 2204.03 870.353 L2204.03 866.186 Q2206.7 865.445 2209.01 865.075 Q2211.35 864.705 2213.41 864.705 Q2218.73 864.705 2221.83 867.135 Q2224.94 869.542 2224.94 873.663 Q2224.94 876.533 2223.29 878.524 Q2221.65 880.492 2218.62 881.255 Z" fill="#000000" fill-rule="evenodd" fill-opacity="1" /><polyline clip-path="url(#clip710)" style="stroke:#3690c0; stroke-width:4; stroke-opacity:1; fill:none" points="
  1966.35,943.09 2117.4,943.09 
  "/>
<path clip-path="url(#clip710)" d="M 0 0 M2156.42 962.777 Q2154.61 967.407 2152.9 968.819 Q2151.19 970.231 2148.32 970.231 L2144.91 970.231 L2144.91 966.666 L2147.41 966.666 Q2149.17 966.666 2150.14 965.832 Q2151.12 964.999 2152.3 961.897 L2153.06 959.953 L2142.58 934.444 L2147.09 934.444 L2155.19 954.721 L2163.29 934.444 L2167.81 934.444 L2156.42 962.777 Z" fill="#000000" fill-rule="evenodd" fill-opacity="1" /><path clip-path="url(#clip710)" d="M 0 0 M2175.1 956.434 L2182.74 956.434 L2182.74 930.069 L2174.43 931.735 L2174.43 927.476 L2182.69 925.81 L2187.37 925.81 L2187.37 956.434 L2195.01 956.434 L2195.01 960.37 L2175.1 960.37 L2175.1 956.434 Z" fill="#000000" fill-rule="evenodd" fill-opacity="1" /><path clip-path="url(#clip710)" d="M 0 0 M2217.3 929.884 L2205.49 948.333 L2217.3 948.333 L2217.3 929.884 M2216.07 925.81 L2221.95 925.81 L2221.95 948.333 L2226.88 948.333 L2226.88 952.221 L2221.95 952.221 L2221.95 960.37 L2217.3 960.37 L2217.3 952.221 L2201.7 952.221 L2201.7 947.708 L2216.07 925.81 Z" fill="#000000" fill-rule="evenodd" fill-opacity="1" /><polyline clip-path="url(#clip710)" style="stroke:#056faf; stroke-width:4; stroke-opacity:1; fill:none" points="
  1966.35,1003.57 2117.4,1003.57 
  "/>
<path clip-path="url(#clip710)" d="M 0 0 M2156.42 1023.26 Q2154.61 1027.89 2152.9 1029.3 Q2151.19 1030.71 2148.32 1030.71 L2144.91 1030.71 L2144.91 1027.15 L2147.41 1027.15 Q2149.17 1027.15 2150.14 1026.31 Q2151.12 1025.48 2152.3 1022.38 L2153.06 1020.43 L2142.58 994.924 L2147.09 994.924 L2155.19 1015.2 L2163.29 994.924 L2167.81 994.924 L2156.42 1023.26 Z" fill="#000000" fill-rule="evenodd" fill-opacity="1" /><path clip-path="url(#clip710)" d="M 0 0 M2175.1 1016.91 L2182.74 1016.91 L2182.74 990.549 L2174.43 992.215 L2174.43 987.956 L2182.69 986.29 L2187.37 986.29 L2187.37 1016.91 L2195.01 1016.91 L2195.01 1020.85 L2175.1 1020.85 L2175.1 1016.91 Z" fill="#000000" fill-rule="evenodd" fill-opacity="1" /><path clip-path="url(#clip710)" d="M 0 0 M2204.5 986.29 L2222.85 986.29 L2222.85 990.225 L2208.78 990.225 L2208.78 998.697 Q2209.8 998.35 2210.82 998.188 Q2211.83 998.002 2212.85 998.002 Q2218.64 998.002 2222.02 1001.17 Q2225.4 1004.35 2225.4 1009.76 Q2225.4 1015.34 2221.93 1018.44 Q2218.45 1021.52 2212.13 1021.52 Q2209.96 1021.52 2207.69 1021.15 Q2205.45 1020.78 2203.04 1020.04 L2203.04 1015.34 Q2205.12 1016.47 2207.34 1017.03 Q2209.57 1017.59 2212.04 1017.59 Q2216.05 1017.59 2218.38 1015.48 Q2220.72 1013.37 2220.72 1009.76 Q2220.72 1006.15 2218.38 1004.04 Q2216.05 1001.94 2212.04 1001.94 Q2210.17 1001.94 2208.29 1002.35 Q2206.44 1002.77 2204.5 1003.65 L2204.5 986.29 Z" fill="#000000" fill-rule="evenodd" fill-opacity="1" /><polyline clip-path="url(#clip710)" style="stroke:#034e7a; stroke-width:4; stroke-opacity:1; fill:none" points="
  1966.35,1064.05 2117.4,1064.05 
  "/>
<path clip-path="url(#clip710)" d="M 0 0 M2156.42 1083.74 Q2154.61 1088.37 2152.9 1089.78 Q2151.19 1091.19 2148.32 1091.19 L2144.91 1091.19 L2144.91 1087.63 L2147.41 1087.63 Q2149.17 1087.63 2150.14 1086.79 Q2151.12 1085.96 2152.3 1082.86 L2153.06 1080.91 L2142.58 1055.4 L2147.09 1055.4 L2155.19 1075.68 L2163.29 1055.4 L2167.81 1055.4 L2156.42 1083.74 Z" fill="#000000" fill-rule="evenodd" fill-opacity="1" /><path clip-path="url(#clip710)" d="M 0 0 M2175.1 1077.39 L2182.74 1077.39 L2182.74 1051.03 L2174.43 1052.7 L2174.43 1048.44 L2182.69 1046.77 L2187.37 1046.77 L2187.37 1077.39 L2195.01 1077.39 L2195.01 1081.33 L2175.1 1081.33 L2175.1 1077.39 Z" fill="#000000" fill-rule="evenodd" fill-opacity="1" /><path clip-path="url(#clip710)" d="M 0 0 M2215.03 1062.19 Q2211.88 1062.19 2210.03 1064.34 Q2208.2 1066.49 2208.2 1070.24 Q2208.2 1073.97 2210.03 1076.14 Q2211.88 1078.3 2215.03 1078.3 Q2218.18 1078.3 2220.01 1076.14 Q2221.86 1073.97 2221.86 1070.24 Q2221.86 1066.49 2220.01 1064.34 Q2218.18 1062.19 2215.03 1062.19 M2224.31 1047.53 L2224.31 1051.79 Q2222.55 1050.96 2220.75 1050.52 Q2218.96 1050.08 2217.2 1050.08 Q2212.57 1050.08 2210.12 1053.2 Q2207.69 1056.33 2207.34 1062.65 Q2208.71 1060.64 2210.77 1059.57 Q2212.83 1058.48 2215.31 1058.48 Q2220.51 1058.48 2223.52 1061.65 Q2226.56 1064.8 2226.56 1070.24 Q2226.56 1075.57 2223.41 1078.78 Q2220.26 1082 2215.03 1082 Q2209.03 1082 2205.86 1077.42 Q2202.69 1072.81 2202.69 1064.08 Q2202.69 1055.89 2206.58 1051.03 Q2210.47 1046.14 2217.02 1046.14 Q2218.78 1046.14 2220.56 1046.49 Q2222.37 1046.84 2224.31 1047.53 Z" fill="#000000" fill-rule="evenodd" fill-opacity="1" /></svg>
