<?xml version="1.0" encoding="utf-8"?>
<svg xmlns="http://www.w3.org/2000/svg" xmlns:xlink="http://www.w3.org/1999/xlink" width="600" height="400" viewBox="0 0 2400 1600">
<defs>
  <clipPath id="clip100">
    <rect x="0" y="0" width="2400" height="1600"/>
  </clipPath>
</defs>
<path clip-path="url(#clip100)" d="
M0 1600 L2400 1600 L2400 0 L0 0  Z
  " fill="#ffffff" fill-rule="evenodd" fill-opacity="1"/>
<defs>
  <clipPath id="clip101">
    <rect x="480" y="0" width="1681" height="1600"/>
  </clipPath>
</defs>
<path clip-path="url(#clip100)" d="
M283.843 1324.16 L2171.65 1324.16 L2171.65 228.346 L283.843 228.346  Z
  " fill="#ffffff" fill-rule="evenodd" fill-opacity="1"/>
<defs>
  <clipPath id="clip102">
    <rect x="283" y="228" width="1889" height="1097"/>
  </clipPath>
</defs>
<polyline clip-path="url(#clip102)" style="stroke:#000000; stroke-width:2; stroke-opacity:0.1; fill:none" points="
  337.271,1324.16 337.271,228.346 
  "/>
<polyline clip-path="url(#clip102)" style="stroke:#000000; stroke-width:2; stroke-opacity:0.1; fill:none" points="
  787.196,1324.16 787.196,228.346 
  "/>
<polyline clip-path="url(#clip102)" style="stroke:#000000; stroke-width:2; stroke-opacity:0.1; fill:none" points="
  1237.12,1324.16 1237.12,228.346 
  "/>
<polyline clip-path="url(#clip102)" style="stroke:#000000; stroke-width:2; stroke-opacity:0.1; fill:none" points="
  1687.05,1324.16 1687.05,228.346 
  "/>
<polyline clip-path="url(#clip102)" style="stroke:#000000; stroke-width:2; stroke-opacity:0.1; fill:none" points="
  2136.97,1324.16 2136.97,228.346 
  "/>
<polyline clip-path="url(#clip100)" style="stroke:#000000; stroke-width:4; stroke-opacity:1; fill:none" points="
  283.843,1324.16 2171.65,1324.16 
  "/>
<polyline clip-path="url(#clip100)" style="stroke:#000000; stroke-width:4; stroke-opacity:1; fill:none" points="
  337.271,1324.16 337.271,1311.01 
  "/>
<polyline clip-path="url(#clip100)" style="stroke:#000000; stroke-width:4; stroke-opacity:1; fill:none" points="
  787.196,1324.16 787.196,1311.01 
  "/>
<polyline clip-path="url(#clip100)" style="stroke:#000000; stroke-width:4; stroke-opacity:1; fill:none" points="
  1237.12,1324.16 1237.12,1311.01 
  "/>
<polyline clip-path="url(#clip100)" style="stroke:#000000; stroke-width:4; stroke-opacity:1; fill:none" points="
  1687.05,1324.16 1687.05,1311.01 
  "/>
<polyline clip-path="url(#clip100)" style="stroke:#000000; stroke-width:4; stroke-opacity:1; fill:none" points="
  2136.97,1324.16 2136.97,1311.01 
  "/>
<g clip-path="url(#clip100)">
<text style="fill:#000000; fill-opacity:1; font-family:Arial,Helvetica Neue,Helvetica,sans-serif; font-size:71px; text-anchor:middle;" transform="rotate(0, 337.271, 1405.76)" x="337.271" y="1405.76">0</text>
</g>
<g clip-path="url(#clip100)">
<text style="fill:#000000; fill-opacity:1; font-family:Arial,Helvetica Neue,Helvetica,sans-serif; font-size:71px; text-anchor:middle;" transform="rotate(0, 787.196, 1405.76)" x="787.196" y="1405.76">24</text>
</g>
<g clip-path="url(#clip100)">
<text style="fill:#000000; fill-opacity:1; font-family:Arial,Helvetica Neue,Helvetica,sans-serif; font-size:71px; text-anchor:middle;" transform="rotate(0, 1237.12, 1405.76)" x="1237.12" y="1405.76">48</text>
</g>
<g clip-path="url(#clip100)">
<text style="fill:#000000; fill-opacity:1; font-family:Arial,Helvetica Neue,Helvetica,sans-serif; font-size:71px; text-anchor:middle;" transform="rotate(0, 1687.05, 1405.76)" x="1687.05" y="1405.76">72</text>
</g>
<g clip-path="url(#clip100)">
<text style="fill:#000000; fill-opacity:1; font-family:Arial,Helvetica Neue,Helvetica,sans-serif; font-size:71px; text-anchor:middle;" transform="rotate(0, 2136.97, 1405.76)" x="2136.97" y="1405.76">96</text>
</g>
<g clip-path="url(#clip100)">
<text style="fill:#000000; fill-opacity:1; font-family:Arial,Helvetica Neue,Helvetica,sans-serif; font-size:71px; text-anchor:middle;" transform="rotate(0, 1227.75, 1500.66)" x="1227.75" y="1500.66">time [hr]</text>
</g>
<polyline clip-path="url(#clip102)" style="stroke:#000000; stroke-width:2; stroke-opacity:0.1; fill:none" points="
  283.843,1324.16 2171.65,1324.16 
  "/>
<polyline clip-path="url(#clip102)" style="stroke:#000000; stroke-width:2; stroke-opacity:0.1; fill:none" points="
  283.843,1050.2 2171.65,1050.2 
  "/>
<polyline clip-path="url(#clip102)" style="stroke:#000000; stroke-width:2; stroke-opacity:0.1; fill:none" points="
  283.843,776.252 2171.65,776.252 
  "/>
<polyline clip-path="url(#clip102)" style="stroke:#000000; stroke-width:2; stroke-opacity:0.1; fill:none" points="
  283.843,502.299 2171.65,502.299 
  "/>
<polyline clip-path="url(#clip102)" style="stroke:#000000; stroke-width:2; stroke-opacity:0.1; fill:none" points="
  283.843,228.346 2171.65,228.346 
  "/>
<polyline clip-path="url(#clip100)" style="stroke:#000000; stroke-width:4; stroke-opacity:1; fill:none" points="
  283.843,1324.16 283.843,228.346 
  "/>
<polyline clip-path="url(#clip100)" style="stroke:#000000; stroke-width:4; stroke-opacity:1; fill:none" points="
  283.843,1324.16 306.496,1324.16 
  "/>
<polyline clip-path="url(#clip100)" style="stroke:#000000; stroke-width:4; stroke-opacity:1; fill:none" points="
  283.843,1050.2 306.496,1050.2 
  "/>
<polyline clip-path="url(#clip100)" style="stroke:#000000; stroke-width:4; stroke-opacity:1; fill:none" points="
  283.843,776.252 306.496,776.252 
  "/>
<polyline clip-path="url(#clip100)" style="stroke:#000000; stroke-width:4; stroke-opacity:1; fill:none" points="
  283.843,502.299 306.496,502.299 
  "/>
<polyline clip-path="url(#clip100)" style="stroke:#000000; stroke-width:4; stroke-opacity:1; fill:none" points="
  283.843,228.346 306.496,228.346 
  "/>
<g clip-path="url(#clip100)">
<text style="fill:#000000; fill-opacity:1; font-family:Arial,Helvetica Neue,Helvetica,sans-serif; font-size:71px; text-anchor:end;" transform="rotate(0, 247.843, 1350.16)" x="247.843" y="1350.16">0</text>
</g>
<g clip-path="url(#clip100)">
<text style="fill:#000000; fill-opacity:1; font-family:Arial,Helvetica Neue,Helvetica,sans-serif; font-size:71px; text-anchor:end;" transform="rotate(0, 247.843, 1076.2)" x="247.843" y="1076.2">10</text>
</g>
<g clip-path="url(#clip100)">
<text style="fill:#000000; fill-opacity:1; font-family:Arial,Helvetica Neue,Helvetica,sans-serif; font-size:71px; text-anchor:end;" transform="rotate(0, 247.843, 802.252)" x="247.843" y="802.252">20</text>
</g>
<g clip-path="url(#clip100)">
<text style="fill:#000000; fill-opacity:1; font-family:Arial,Helvetica Neue,Helvetica,sans-serif; font-size:71px; text-anchor:end;" transform="rotate(0, 247.843, 528.299)" x="247.843" y="528.299">30</text>
</g>
<g clip-path="url(#clip100)">
<text style="fill:#000000; fill-opacity:1; font-family:Arial,Helvetica Neue,Helvetica,sans-serif; font-size:71px; text-anchor:end;" transform="rotate(0, 247.843, 254.346)" x="247.843" y="254.346">40</text>
</g>
<g clip-path="url(#clip100)">
<text style="fill:#000000; fill-opacity:1; font-family:Arial,Helvetica Neue,Helvetica,sans-serif; font-size:71px; text-anchor:middle;" transform="rotate(-90, 118.506, 776.252)" x="118.506" y="776.252">cell numbers</text>
</g>
<polyline clip-path="url(#clip102)" style="stroke:#009af9; stroke-width:8; stroke-opacity:1; fill:none" points="
  337.271,776.277 346.744,773.772 356.217,771.303 365.691,768.869 375.164,766.471 384.637,764.108 394.11,761.779 403.583,759.484 413.056,757.224 422.53,754.997 
  432.003,752.803 441.476,750.642 450.949,748.513 460.422,746.417 469.895,744.352 479.369,742.319 488.842,740.317 498.315,738.345 507.788,736.404 517.261,734.493 
  526.734,732.611 536.207,730.635 545.681,728.637 555.154,726.834 564.627,725.162 574.1,723.212 583.573,721.493 593.046,719.79 602.52,718.136 611.993,716.718 
  621.466,715.253 630.939,713.502 640.412,711.844 649.885,710.482 659.359,708.877 668.832,706.971 678.305,705.293 687.778,703.963 697.251,702.784 706.724,701.519 
  716.197,700.565 725.671,699.813 735.144,699.089 744.617,698.626 754.09,698.387 763.563,698.305 773.036,698.369 782.51,698.272 791.983,698.384 801.456,698.522 
  810.929,699.07 820.402,699.536 829.875,700.358 839.349,700.627 848.822,701.749 858.295,702.697 867.768,703.759 877.241,704.503 886.714,705.64 896.187,706.833 
  905.661,707.954 915.134,709.31 924.607,710.935 934.08,712.319 943.553,713.683 953.026,715.205 962.5,716.783 971.973,718.47 981.446,720.051 990.919,721.648 
  1000.39,722.597 1009.87,723.518 1019.34,724.854 1028.81,725.926 1038.28,727.065 1047.76,728.036 1057.23,729.117 1066.7,730.105 1076.18,731.166 1085.65,732.625 
  1095.12,733.839 1104.6,735.105 1114.07,736.684 1123.54,738.29 1133.02,740.165 1142.49,741.961 1151.96,743.581 1161.44,745.232 1170.91,746.941 1180.38,748.459 
  1189.86,749.921 1199.33,751.514 1208.8,752.846 1218.27,754.395 1227.75,756.359 1237.22,758.061 1246.69,759.499 1256.17,761.301 1265.64,763.07 1275.11,764.649 
  1284.59,766.389 1294.06,768.451 1303.53,770.37 1313.01,772.101 1322.48,773.488 1331.95,775.008 1341.43,776.265 1350.9,777.466 1360.37,778.782 1369.85,779.748 
  1379.32,780.403 1388.79,781.524 1398.26,782.638 1407.74,783.189 1417.21,784.147 1426.68,784.849 1436.16,785.744 1445.63,786.871 1455.1,787.972 1464.58,789.141 
  1474.05,789.977 1483.52,791.188 1493,792.489 1502.47,793.74 1511.94,795.266 1521.42,796.127 1530.89,797.126 1540.36,798.141 1549.84,798.933 1559.31,799.923 
  1568.78,800.829 1578.25,801.686 1587.73,802.45 1597.2,803.801 1606.67,805.181 1616.15,806.43 1625.62,807.36 1635.09,808.587 1644.57,809.759 1654.04,810.934 
  1663.51,812.377 1672.99,813.57 1682.46,814.635 1691.93,815.521 1701.41,816.353 1710.88,817.487 1720.35,818.488 1729.83,819.536 1739.3,820.759 1748.77,821.682 
  1758.24,822.763 1767.72,824.026 1777.19,824.982 1786.66,825.818 1796.14,827.097 1805.61,828.135 1815.08,829.099 1824.56,829.849 1834.03,830.762 1843.5,831.82 
  1852.98,832.908 1862.45,833.928 1871.92,834.996 1881.4,836.204 1890.87,837.242 1900.34,837.93 1909.82,839.172 1919.29,840.129 1928.76,840.83 1938.23,842.009 
  1947.71,843.212 1957.18,844.438 1966.65,845.686 1976.13,846.954 1985.6,848.24 1995.07,849.543 2004.55,850.862 2014.02,852.194 2023.49,853.538 2032.97,854.893 
  2042.44,856.257 2051.91,857.629 2061.39,859.007 2070.86,860.389 2080.33,861.774 2089.81,863.161 2099.28,864.548 2108.75,865.933 2118.22,867.314 
  "/>
<polyline clip-path="url(#clip102)" style="stroke:#e26f46; stroke-width:8; stroke-opacity:1; fill:none" points="
  337.271,786.986 346.744,785.958 356.217,785.154 365.691,784.569 375.164,784.202 384.637,784.049 394.11,784.108 403.583,784.377 413.056,784.853 422.53,785.534 
  432.003,786.416 441.476,787.497 450.949,788.774 460.422,790.246 469.895,791.908 479.369,793.76 488.842,795.797 498.315,798.018 507.788,800.42 517.261,803 
  526.734,805.756 536.207,808.066 545.681,810.944 555.154,814.606 564.627,818.226 574.1,822.007 583.573,825.851 593.046,829.696 602.52,833.845 611.993,837.888 
  621.466,842.327 630.939,847.281 640.412,852.172 649.885,857.093 659.359,862.03 668.832,867.471 678.305,873.083 687.778,878.561 697.251,883.995 706.724,889.703 
  716.197,895.37 725.671,901.055 735.144,906.727 744.617,912.741 754.09,918.998 763.563,925.241 773.036,931.376 782.51,937.937 791.983,945.188 801.456,952.794 
  810.929,960.363 820.402,967.99 829.875,975.779 839.349,983.636 848.822,991.349 858.295,999.233 867.768,1006.89 877.241,1014.82 886.714,1022.3 896.187,1029.74 
  905.661,1037.39 915.134,1044.57 924.607,1052.03 934.08,1059.58 943.553,1066.61 953.026,1073.63 962.5,1080.24 971.973,1086.57 981.446,1093.08 990.919,1099.06 
  1000.39,1104.51 1009.87,1110.3 1019.34,1115.63 1028.81,1120.56 1038.28,1125.43 1047.76,1130.34 1057.23,1134.61 1066.7,1138.11 1076.18,1141.6 1085.65,1145.15 
  1095.12,1148.54 1104.6,1151.71 1114.07,1155.11 1123.54,1158.69 1133.02,1161.93 1142.49,1165.16 1151.96,1168.68 1161.44,1172.07 1170.91,1175.61 1180.38,1179.02 
  1189.86,1182.36 1199.33,1185.73 1208.8,1189.13 1218.27,1192.13 1227.75,1195.21 1237.22,1198.19 1246.69,1201.29 1256.17,1204.21 1265.64,1207.06 1275.11,1209.93 
  1284.59,1212.8 1294.06,1215.51 1303.53,1218.03 1313.01,1220.28 1322.48,1222.45 1331.95,1224.42 1341.43,1226.28 1350.9,1228.13 1360.37,1229.96 1369.85,1231.51 
  1379.32,1232.89 1388.79,1234.35 1398.26,1235.61 1407.74,1236.76 1417.21,1237.72 1426.68,1238.59 1436.16,1239.2 1445.63,1239.65 1455.1,1240.52 1464.58,1241.14 
  1474.05,1241.81 1483.52,1242.42 1493,1243.11 1502.47,1243.72 1511.94,1244.21 1521.42,1244.79 1530.89,1245.41 1540.36,1245.9 1549.84,1246.72 1559.31,1247.43 
  1568.78,1248.12 1578.25,1248.72 1587.73,1249.37 1597.2,1250.07 1606.67,1250.88 1616.15,1251.65 1625.62,1252.28 1635.09,1253.08 1644.57,1253.97 1654.04,1254.64 
  1663.51,1255.27 1672.99,1255.77 1682.46,1256.14 1691.93,1256.53 1701.41,1257.02 1710.88,1257.58 1720.35,1258.14 1729.83,1258.76 1739.3,1259.22 1748.77,1259.73 
  1758.24,1260.28 1767.72,1260.86 1777.19,1261.69 1786.66,1262.34 1796.14,1262.78 1805.61,1263.36 1815.08,1264.04 1824.56,1264.59 1834.03,1265.03 1843.5,1265.69 
  1852.98,1266.45 1862.45,1266.92 1871.92,1267.31 1881.4,1267.74 1890.87,1268.37 1900.34,1269.09 1909.82,1269.61 1919.29,1269.98 1928.76,1270.49 1938.23,1270.92 
  1947.71,1271.35 1957.18,1271.75 1966.65,1272.14 1976.13,1272.52 1985.6,1272.88 1995.07,1273.22 2004.55,1273.54 2014.02,1273.85 2023.49,1274.15 2032.97,1274.43 
  2042.44,1274.69 2051.91,1274.93 2061.39,1275.16 2070.86,1275.38 2080.33,1275.57 2089.81,1275.75 2099.28,1275.92 2108.75,1276.06 2118.22,1276.2 
  "/>
<polyline clip-path="url(#clip102)" style="stroke:#3da44d; stroke-width:8; stroke-opacity:1; fill:none" points="
  337.271,776.602 346.744,773.281 356.217,769.924 365.691,766.542 375.164,763.139 384.637,759.725 394.11,756.307 403.583,752.892 413.056,749.488 422.53,746.103 
  432.003,742.743 441.476,739.418 450.949,736.133 460.422,732.898 469.895,729.718 479.369,726.603 488.842,723.559 498.315,720.594 507.788,717.716 517.261,714.931 
  526.734,712.249 536.207,709.612 545.681,707.104 555.154,704.994 564.627,702.796 574.1,701.013 583.573,699.157 593.046,697.584 602.52,695.805 611.993,694.644 
  621.466,693.468 630.939,692.527 640.412,691.772 649.885,691.512 659.359,691.232 668.832,690.906 678.305,690.956 687.778,691.077 697.251,691.148 706.724,691.456 
  716.197,691.404 725.671,691.736 735.144,692.116 744.617,692.721 754.09,693.202 763.563,693.878 773.036,694.611 782.51,695.235 791.983,695.98 801.456,696.691 
  810.929,697.378 820.402,698.24 829.875,699.215 839.349,699.976 848.822,700.79 858.295,701.624 867.768,702.607 877.241,703.528 886.714,704.437 896.187,705.616 
  905.661,706.484 915.134,707.667 924.607,709.126 934.08,710.496 943.553,711.92 953.026,713.483 962.5,714.671 971.973,716.269 981.446,717.676 990.919,719.659 
  1000.39,721.675 1009.87,723.678 1019.34,725.759 1028.81,727.878 1038.28,729.819 1047.76,731.609 1057.23,732.329 1066.7,733.627 1076.18,735.692 1085.65,738.132 
  1095.12,741.019 1104.6,744.323 1114.07,748.053 1123.54,752.019 1133.02,756.262 1142.49,760.763 1151.96,765.558 1161.44,770.692 1170.91,775.954 1180.38,781.093 
  1189.86,786.545 1199.33,792.159 1208.8,797.73 1218.27,803.371 1227.75,809.088 1237.22,815.094 1246.69,820.973 1256.17,826.949 1265.64,833.011 1275.11,838.997 
  1284.59,844.665 1294.06,850.776 1303.53,856.827 1313.01,862.682 1322.48,868.638 1331.95,874.019 1341.43,879.47 1350.9,884.905 1360.37,890.135 1369.85,895.4 
  1379.32,900.068 1388.79,904.388 1398.26,908.572 1407.74,912.745 1417.21,916.719 1426.68,920.334 1436.16,924.319 1445.63,929.664 1455.1,934.896 1464.58,940.122 
  1474.05,945.129 1483.52,950.123 1493,955.266 1502.47,960.335 1511.94,965.219 1521.42,969.827 1530.89,974.354 1540.36,978.797 1549.84,982.961 1559.31,987.003 
  1568.78,990.963 1578.25,994.866 1587.73,998.885 1597.2,1002.46 1606.67,1006 1616.15,1009.7 1625.62,1013.14 1635.09,1016.64 1644.57,1019.93 1654.04,1023.3 
  1663.51,1026.56 1672.99,1029.97 1682.46,1032.94 1691.93,1035.73 1701.41,1038.56 1710.88,1041.09 1720.35,1044.06 1729.83,1046.78 1739.3,1049.61 1748.77,1052.21 
  1758.24,1054.62 1767.72,1057.45 1777.19,1060.12 1786.66,1063.08 1796.14,1065.6 1805.61,1068.15 1815.08,1070.66 1824.56,1072.78 1834.03,1074.95 1843.5,1077.11 
  1852.98,1079.23 1862.45,1081.33 1871.92,1083.32 1881.4,1084.84 1890.87,1086.46 1900.34,1088.04 1909.82,1089.65 1919.29,1091.53 1928.76,1093.15 1938.23,1094.71 
  1947.71,1096.24 1957.18,1097.73 1966.65,1099.2 1976.13,1100.63 1985.6,1102.04 1995.07,1103.43 2004.55,1104.8 2014.02,1106.14 2023.49,1107.47 2032.97,1108.79 
  2042.44,1110.09 2051.91,1111.39 2061.39,1112.68 2070.86,1113.96 2080.33,1115.25 2089.81,1116.53 2099.28,1117.82 2108.75,1119.11 2118.22,1120.41 
  "/>
<polyline clip-path="url(#clip102)" style="stroke:#c271d2; stroke-width:8; stroke-opacity:1; fill:none" points="
  337.271,772.628 346.744,773.386 356.217,774.156 365.691,774.94 375.164,775.736 384.637,776.545 394.11,777.367 403.583,778.201 413.056,779.048 422.53,779.906 
  432.003,780.777 441.476,781.659 450.949,782.553 460.422,783.459 469.895,784.376 479.369,785.304 488.842,786.243 498.315,787.194 507.788,788.155 517.261,789.127 
  526.734,790.109 536.207,791.297 545.681,792.344 555.154,793.379 564.627,794.393 574.1,795.275 583.573,795.954 593.046,796.862 602.52,797.562 611.993,798.309 
  621.466,799.202 630.939,799.743 640.412,800.825 649.885,801.853 659.359,803.054 668.832,804.502 678.305,805.613 687.778,807.08 697.251,808.664 706.724,810.662 
  716.197,812.698 725.671,814.964 735.144,817.383 744.617,820.231 754.09,822.937 763.563,825.966 773.036,828.719 782.51,831.718 791.983,835.231 801.456,838.803 
  810.929,842.791 820.402,846.985 829.875,851.311 839.349,855.53 848.822,860.103 858.295,865.001 867.768,869.896 877.241,874.909 886.714,879.665 896.187,884.599 
  905.661,889.799 915.134,894.964 924.607,899.862 934.08,904.473 943.553,909.159 953.026,913.651 962.5,918.095 971.973,922.387 981.446,926.748 990.919,930.982 
  1000.39,935.199 1009.87,939.473 1019.34,944.043 1028.81,948.372 1038.28,952.508 1047.76,956.435 1057.23,957.957 1066.7,960.467 1076.18,963.259 1085.65,966.932 
  1095.12,970.878 1104.6,975.397 1114.07,980.215 1123.54,985.438 1133.02,990.582 1142.49,996.196 1151.96,1001.97 1161.44,1008.1 1170.91,1014.53 1180.38,1021.07 
  1189.86,1027.52 1199.33,1034.12 1208.8,1040.52 1218.27,1046.92 1227.75,1053.53 1237.22,1060.03 1246.69,1066.22 1256.17,1072.31 1265.64,1078.29 1275.11,1083.8 
  1284.59,1089.17 1294.06,1094.06 1303.53,1098.65 1313.01,1102.73 1322.48,1106.79 1331.95,1110.36 1341.43,1113.62 1350.9,1116.84 1360.37,1119.69 1369.85,1121.84 
  1379.32,1123.55 1388.79,1124.91 1398.26,1125.5 1407.74,1125.5 1417.21,1125.03 1426.68,1124.21 1436.16,1122.83 1445.63,1123.79 1455.1,1124.95 1464.58,1126.31 
  1474.05,1127.72 1483.52,1129.02 1493,1130.38 1502.47,1131.83 1511.94,1133.14 1521.42,1134.49 1530.89,1136.06 1540.36,1137.62 1549.84,1139.21 1559.31,1140.75 
  1568.78,1142.16 1578.25,1143.87 1587.73,1145.32 1597.2,1146.96 1606.67,1148.6 1616.15,1150.04 1625.62,1151.67 1635.09,1153.19 1644.57,1154.83 1654.04,1156.42 
  1663.51,1157.89 1672.99,1159.37 1682.46,1160.69 1691.93,1162.15 1701.41,1163.66 1710.88,1164.96 1720.35,1166.14 1729.83,1167.34 1739.3,1168.12 1748.77,1168.81 
  1758.24,1169.54 1767.72,1170.37 1777.19,1171 1786.66,1171.85 1796.14,1172.6 1805.61,1173.58 1815.08,1174.52 1824.56,1175.38 1834.03,1176.39 1843.5,1177.26 
  1852.98,1178.15 1862.45,1178.9 1871.92,1179.76 1881.4,1180.67 1890.87,1181.32 1900.34,1182.1 1909.82,1182.88 1919.29,1183.68 1928.76,1184.26 1938.23,1185 
  1947.71,1185.73 1957.18,1186.46 1966.65,1187.18 1976.13,1187.89 1985.6,1188.59 1995.07,1189.29 2004.55,1189.98 2014.02,1190.66 2023.49,1191.33 2032.97,1192 
  2042.44,1192.66 2051.91,1193.31 2061.39,1193.95 2070.86,1194.59 2080.33,1195.22 2089.81,1195.84 2099.28,1196.46 2108.75,1197.06 2118.22,1197.66 
  "/>
<polyline clip-path="url(#clip102)" style="stroke:#ac8d18; stroke-width:8; stroke-opacity:1; fill:none" points="
  337.271,773.738 346.744,773.8 356.217,773.686 365.691,773.4 375.164,772.944 384.637,772.323 394.11,771.54 403.583,770.599 413.056,769.504 422.53,768.259 
  432.003,766.867 441.476,765.331 450.949,763.657 460.422,761.847 469.895,759.904 479.369,757.834 488.842,755.639 498.315,753.324 507.788,750.891 517.261,748.345 
  526.734,745.689 536.207,743.014 545.681,740.175 555.154,737.195 564.627,734.23 574.1,730.873 583.573,727.41 593.046,723.754 602.52,720.05 611.993,716.22 
  621.466,712.315 630.939,708.512 640.412,704.735 649.885,700.806 659.359,696.979 668.832,693.52 678.305,689.972 687.778,686.635 697.251,683.745 706.724,680.692 
  716.197,677.606 725.671,674.784 735.144,671.925 744.617,669.442 754.09,666.929 763.563,664.669 773.036,662.54 782.51,660.583 791.983,658.47 801.456,656.602 
  810.929,655.111 820.402,653.605 829.875,652.301 839.349,650.965 848.822,649.642 858.295,648.425 867.768,647.431 877.241,646.268 886.714,645.444 896.187,644.692 
  905.661,643.997 915.134,643.43 924.607,642.682 934.08,642.026 943.553,641.242 953.026,640.145 962.5,639.583 971.973,638.846 981.446,638.237 990.919,637.666 
  1000.39,637.041 1009.87,636.851 1019.34,636.406 1028.81,635.904 1038.28,635.415 1047.76,635.269 1057.23,634.477 1066.7,633.842 1076.18,633.162 1085.65,632.429 
  1095.12,632.026 1104.6,631.584 1114.07,631.282 1123.54,631.015 1133.02,630.705 1142.49,630.445 1151.96,630.466 1161.44,630.381 1170.91,630.531 1180.38,631.023 
  1189.86,631.262 1199.33,631.339 1208.8,631.546 1218.27,631.728 1227.75,631.937 1237.22,632.295 1246.69,632.838 1256.17,633.222 1265.64,633.923 1275.11,634.712 
  1284.59,635.39 1294.06,636.154 1303.53,636.682 1313.01,637.417 1322.48,637.984 1331.95,638.403 1341.43,639.036 1350.9,639.396 1360.37,639.806 1369.85,640.072 
  1379.32,640.179 1388.79,640.064 1398.26,639.845 1407.74,639.422 1417.21,639.04 1426.68,638.7 1436.16,637.956 1445.63,637.387 1455.1,637.162 1464.58,637.005 
  1474.05,636.702 1483.52,636.347 1493,636.306 1502.47,636.32 1511.94,636.039 1521.42,635.64 1530.89,635.295 1540.36,634.837 1549.84,634.391 1559.31,633.645 
  1568.78,632.634 1578.25,631.667 1587.73,630.433 1597.2,629.066 1606.67,627.756 1616.15,626.645 1625.62,625.72 1635.09,624.579 1644.57,623.414 1654.04,622.21 
  1663.51,620.682 1672.99,619.359 1682.46,617.631 1691.93,616.38 1701.41,615.015 1710.88,613.74 1720.35,612.632 1729.83,611.431 1739.3,610.225 1748.77,609.103 
  1758.24,608.147 1767.72,607.276 1777.19,606.519 1786.66,605.602 1796.14,604.791 1805.61,604.279 1815.08,603.527 1824.56,603.081 1834.03,602.689 1843.5,602.55 
  1852.98,602.286 1862.45,602.207 1871.92,602.061 1881.4,601.566 1890.87,600.94 1900.34,600.574 1909.82,599.98 1919.29,599.581 1928.76,598.918 1938.23,598.201 
  1947.71,597.476 1957.18,596.747 1966.65,596.019 1976.13,595.295 1985.6,594.581 1995.07,593.879 2004.55,593.196 2014.02,592.534 2023.49,591.898 2032.97,591.293 
  2042.44,590.723 2051.91,590.191 2061.39,589.703 2070.86,589.263 2080.33,588.874 2089.81,588.542 2099.28,588.27 2108.75,588.063 2118.22,587.925 
  "/>
<path clip-path="url(#clip100)" d="
M1607.04 673.113 L2108.73 673.113 L2108.73 264.873 L1607.04 264.873  Z
  " fill="#ffffff" fill-rule="evenodd" fill-opacity="1"/>
<polyline clip-path="url(#clip100)" style="stroke:#000000; stroke-width:4; stroke-opacity:0; fill:none" points="
  1607.04,673.113 2108.73,673.113 2108.73,264.873 1607.04,264.873 1607.04,673.113 
  "/>
<polyline clip-path="url(#clip100)" style="stroke:#009af9; stroke-width:4.5; stroke-opacity:1; fill:none" points="
  1628.02,332.913 1753.87,332.913 
  "/>
<g clip-path="url(#clip100)">
<text style="fill:#000000; fill-opacity:1; font-family:Arial,Helvetica Neue,Helvetica,sans-serif; font-size:53px; text-anchor:start;" transform="rotate(0, 1774.85, 352.413)" x="1774.85" y="352.413">lapatinib</text>
</g>
<polyline clip-path="url(#clip100)" style="stroke:#e26f46; stroke-width:4.5; stroke-opacity:1; fill:none" points="
  1628.02,400.953 1753.87,400.953 
  "/>
<g clip-path="url(#clip100)">
<text style="fill:#000000; fill-opacity:1; font-family:Arial,Helvetica Neue,Helvetica,sans-serif; font-size:53px; text-anchor:start;" transform="rotate(0, 1774.85, 420.453)" x="1774.85" y="420.453">doxorubicin</text>
</g>
<polyline clip-path="url(#clip100)" style="stroke:#3da44d; stroke-width:4.5; stroke-opacity:1; fill:none" points="
  1628.02,468.993 1753.87,468.993 
  "/>
<g clip-path="url(#clip100)">
<text style="fill:#000000; fill-opacity:1; font-family:Arial,Helvetica Neue,Helvetica,sans-serif; font-size:53px; text-anchor:start;" transform="rotate(0, 1774.85, 488.493)" x="1774.85" y="488.493">gemcitabine</text>
</g>
<polyline clip-path="url(#clip100)" style="stroke:#c271d2; stroke-width:4.5; stroke-opacity:1; fill:none" points="
  1628.02,537.033 1753.87,537.033 
  "/>
<g clip-path="url(#clip100)">
<text style="fill:#000000; fill-opacity:1; font-family:Arial,Helvetica Neue,Helvetica,sans-serif; font-size:53px; text-anchor:start;" transform="rotate(0, 1774.85, 556.533)" x="1774.85" y="556.533">paclitaxel</text>
</g>
<polyline clip-path="url(#clip100)" style="stroke:#ac8d18; stroke-width:4.5; stroke-opacity:1; fill:none" points="
  1628.02,605.073 1753.87,605.073 
  "/>
<g clip-path="url(#clip100)">
<text style="fill:#000000; fill-opacity:1; font-family:Arial,Helvetica Neue,Helvetica,sans-serif; font-size:53px; text-anchor:start;" transform="rotate(0, 1774.85, 624.573)" x="1774.85" y="624.573">palbociclib</text>
</g>
</svg>
