<?xml version="1.0" encoding="UTF-8" standalone="no"?>
<!DOCTYPE svg PUBLIC "-//W3C//DTD SVG 1.1//EN" "http://www.w3.org/Graphics/SVG/1.1/DTD/svg11.dtd">
<svg width="100%" height="100%" viewBox="0 0 1481 1458" version="1.1" xmlns="http://www.w3.org/2000/svg" xmlns:xlink="http://www.w3.org/1999/xlink" xml:space="preserve" xmlns:serif="http://www.serif.com/" style="fill-rule:evenodd;clip-rule:evenodd;stroke-linecap:round;stroke-linejoin:round;stroke-miterlimit:1.5;">
    <g id="Artboard1" transform="matrix(0.918734,0,0,0.904467,-524.597,-512.833)">
        <rect x="571" y="567" width="1612" height="1612" style="fill:none;"/>
        <clipPath id="_clip1">
            <rect x="571" y="567" width="1612" height="1612"/>
        </clipPath>
        <g clip-path="url(#_clip1)">
            <g transform="matrix(1.66936,0,0,1.69461,-611.276,-566.376)">
                <ellipse cx="1170.5" cy="1141.5" rx="452.5" ry="435.5" style="fill:rgb(133,186,210);"/>
            </g>
            <g transform="matrix(1.13504,0,0,1.215,463.624,702.646)">
                <ellipse cx="774.5" cy="549" rx="385.5" ry="374" style="fill:white;"/>
            </g>
            <g transform="matrix(0.493432,0,0,1.10562,649.819,-150.55)">
                <rect x="1241" y="683" width="225" height="330" style="fill:white;"/>
            </g>
            <g transform="matrix(0.527295,0,0,1.10562,597.998,1026.94)">
                <rect x="1241" y="683" width="225" height="330" style="fill:white;"/>
            </g>
            <g transform="matrix(1.08845,0.000637036,-0.000627143,1.10562,-196.74,165.11)">
                <rect x="646" y="1077" width="429" height="104" style="fill:white;"/>
            </g>
            <g transform="matrix(0.585964,0.581157,-0.760406,0.791076,2111.15,402.53)">
                <rect x="646" y="1077" width="429" height="104" style="fill:white;"/>
            </g>
            <g transform="matrix(0.855032,7.95212e-17,8.2137e-16,1.10562,1208.9,139.184)">
                <rect x="646" y="1077" width="429" height="104" style="fill:white;"/>
            </g>
            <g transform="matrix(0.813064,-0.735058,0.723643,0.82589,269.112,643.061)">
                <rect x="646" y="1077" width="429" height="104" style="fill:white;"/>
            </g>
            <g transform="matrix(0.830367,0,0,0.843466,178.079,340.199)">
                <text x="1008px" y="953.539px" style="font-family:'ArialMT', 'Arial', sans-serif;font-size:125px;">G</text>
                <text x="1105.23px" y="995.164px" style="font-family:'ArialMT', 'Arial', sans-serif;font-size:72.875px;">1<tspan x="1140.35px " y="995.164px ">1</tspan></text>
            </g>
            <g transform="matrix(0.796703,0,0,0.809271,209.835,898.231)">
                <text x="1008px" y="953.539px" style="font-family:'ArialMT', 'Arial', sans-serif;font-size:125px;">G</text>
                <text x="1105.23px" y="995.164px" style="font-family:'ArialMT', 'Arial', sans-serif;font-size:72.875px;">12</text>
            </g>
            <g transform="matrix(0.796703,0,0,0.809271,721.409,775.507)">
                <text x="1008px" y="953.539px" style="font-family:'ArialMT', 'Arial', sans-serif;font-size:125px;">G</text>
                <text x="1105.23px" y="995.164px" style="font-family:'ArialMT', 'Arial', sans-serif;font-size:72.875px;">22</text>
            </g>
            <g transform="matrix(0.796703,0,0,0.809271,769.301,476.989)">
                <text x="1008px" y="953.539px" style="font-family:'ArialMT', 'Arial', sans-serif;font-size:125px;">G</text>
                <text x="1105.23px" y="995.164px" style="font-family:'ArialMT', 'Arial', sans-serif;font-size:72.875px;">23</text>
            </g>
            <g transform="matrix(0.796703,0,0,0.809271,603.856,242.596)">
                <text x="1008px" y="953.539px" style="font-family:'ArialMT', 'Arial', sans-serif;font-size:125px;">G</text>
                <text x="1105.23px" y="995.164px" style="font-family:'ArialMT', 'Arial', sans-serif;font-size:72.875px;">24</text>
            </g>
            <g transform="matrix(0.796703,0,0,0.809271,560.317,981.153)">
                <text x="1008px" y="953.539px" style="font-family:'ArialMT', 'Arial', sans-serif;font-size:125px;">G</text>
                <text x="1105.23px" y="995.164px" style="font-family:'ArialMT', 'Arial', sans-serif;font-size:72.875px;">21</text>
            </g>
            <g transform="matrix(0.123855,-0.772592,-0.854268,-0.141303,1661.82,1675.75)">
                <g transform="matrix(0.227013,-1.24122,-1.39409,-0.20212,1170.53,1446.61)">
                    <path d="M172.072,292.66L104.278,243.312L184.433,218.686C162.849,234.089 156.669,271.076 172.072,292.66Z" style="fill:rgb(96,96,96);"/>
                    <path d="M276.743,213.294C245.265,245.479 206.471,255.676 163.457,253.201" style="fill:none;stroke:rgb(96,96,96);stroke-width:25px;"/>
                </g>
            </g>
            <g transform="matrix(1.49775,-0.300458,0.215618,1.10901,-1006.88,270.211)">
                <path d="M1232,730C1251.33,813.667 1270.67,897.333 1290,981" style="fill:none;stroke:white;stroke-opacity:0.51;stroke-width:3.39px;"/>
            </g>
            <g transform="matrix(0.865051,-0.727178,0.726856,0.892163,-822.193,1138.1)">
                <path d="M1232,730C1251.33,813.667 1270.67,897.333 1290,981" style="fill:none;stroke:white;stroke-opacity:0.51;stroke-width:4.01px;"/>
            </g>
            <g transform="matrix(0.635481,-0.97207,1.01582,0.685197,-885.827,1805.08)">
                <path d="M1232,730C1251.33,813.667 1270.67,897.333 1290,981" style="fill:none;stroke:white;stroke-opacity:0.51;stroke-width:3.83px;"/>
            </g>
            <g transform="matrix(-0.155232,-2.00365,1.10896,-0.0886486,61.4168,4237.46)">
                <path d="M1232,730C1251.33,813.667 1270.67,897.333 1290,981" style="fill:none;stroke:white;stroke-opacity:0.51;stroke-width:2.83px;"/>
            </g>
            <g transform="matrix(-0.610532,-0.957233,0.956808,-0.629667,874.403,3542.82)">
                <path d="M1232,730C1251.33,813.667 1270.67,897.333 1290,981" style="fill:none;stroke:white;stroke-opacity:0.51;stroke-width:4.01px;"/>
            </g>
            <g transform="matrix(-0.872335,-0.750353,0.726299,-0.871221,1574.14,3607.1)">
                <path d="M1232,730C1251.33,813.667 1270.67,897.333 1290,981" style="fill:none;stroke:white;stroke-opacity:0.51;stroke-width:4px;"/>
            </g>
            <g transform="matrix(1.09318,0,0,1.09191,-89.1249,-120.66)">
                <g transform="matrix(-1.58625,-0.239146,0.136328,-0.93519,3283.7,3003.74)">
                    <path d="M1232,730C1251.33,813.667 1270.67,897.333 1290,981" style="fill:none;stroke:white;stroke-opacity:0.51;stroke-width:3.17px;"/>
                </g>
                <g transform="matrix(-1.28145,0.114961,-0.0856214,-0.987055,3158.43,2585.89)">
                    <path d="M1232,730C1251.33,813.667 1270.67,897.333 1290,981" style="fill:none;stroke:white;stroke-opacity:0.51;stroke-width:3.64px;"/>
                </g>
                <g transform="matrix(-2.23815,-0.0156182,0.00614687,-0.911002,4350.54,2661.19)">
                    <path d="M1232,730C1251.33,813.667 1270.67,897.333 1290,981" style="fill:none;stroke:white;stroke-opacity:0.51;stroke-width:2.43px;"/>
                </g>
                <g transform="matrix(-2.45526,0.0882435,-0.0308853,-0.888739,4713.99,2481.88)">
                    <path d="M1232,730C1251.33,813.667 1270.67,897.333 1290,981" style="fill:none;stroke:white;stroke-opacity:0.51;stroke-width:2.25px;"/>
                </g>
            </g>
            <g transform="matrix(1.09318,0,0,1.09191,-89.1249,-120.66)">
                <g transform="matrix(-1.26488,0.942155,-0.615478,-0.854571,3885.2,1211.16)">
                    <path d="M1232,730C1251.33,813.667 1270.67,897.333 1290,981" style="fill:none;stroke:white;stroke-opacity:0.51;stroke-width:3.12px;"/>
                </g>
                <g transform="matrix(-0.874134,1.04801,-0.820202,-0.707526,3601.75,893.384)">
                    <path d="M1232,730C1251.33,813.667 1270.67,897.333 1290,981" style="fill:none;stroke:white;stroke-opacity:0.51;stroke-width:3.4px;"/>
                </g>
                <g transform="matrix(-1.80616,1.78993,-0.681395,-0.711094,4685.11,-103.946)">
                    <path d="M1232,730C1251.33,813.667 1270.67,897.333 1290,981" style="fill:none;stroke:white;stroke-opacity:0.51;stroke-width:2.17px;"/>
                </g>
                <g transform="matrix(-2.02735,2.18609,-0.661706,-0.634649,4966.08,-732.511)">
                    <path d="M1232,730C1251.33,813.667 1270.67,897.333 1290,981" style="fill:none;stroke:white;stroke-opacity:0.51;stroke-width:1.9px;"/>
                </g>
            </g>
            <g transform="matrix(1.08845,0,0,1.10562,-90.7799,-137.283)">
                <text x="770px" y="815.917px" style="font-family:'SymbolMT', 'Symbol', serif;font-size:84.167px;fill-opacity:0.77;"></text>
                <text x="804.604px" y="843.944px" style="font-family:'SymbolMT', 'Symbol', serif;font-size:49.069px;fill-opacity:0.77;">11</text>
            </g>
            <g transform="matrix(1.08845,0,0,1.10562,-87.5145,1071.16)">
                <text x="770px" y="815.917px" style="font-family:'SymbolMT', 'Symbol', serif;font-size:84.167px;fill-opacity:0.77;"></text>
                <text x="804.604px" y="843.944px" style="font-family:'SymbolMT', 'Symbol', serif;font-size:49.069px;fill-opacity:0.77;">12</text>
            </g>
            <g transform="matrix(1.08845,0,0,1.10562,1239.31,813.554)">
                <text x="770px" y="815.917px" style="font-family:'SymbolMT', 'Symbol', serif;font-size:84.167px;fill-opacity:0.77;"></text>
                <text x="804.604px" y="843.944px" style="font-family:'SymbolMT', 'Symbol', serif;font-size:49.069px;fill-opacity:0.77;">22</text>
            </g>
            <g transform="matrix(0.719108,0.281366,0.319687,-0.843029,1046.76,1744.42)">
                <g transform="matrix(1.31805,0.439907,0.507706,-1.14204,-1116.78,1023.91)">
                    <path d="M1312.05,371.761L1374.39,315.678L1381.85,399.198C1371.26,374.889 1336.36,361.17 1312.05,371.761Z" style="fill:rgb(117,117,117);"/>
                    <path d="M1366.81,494.89C1341.7,456.346 1340.3,414.793 1352.44,371.519" style="fill:none;stroke:rgb(117,117,117);stroke-width:25px;"/>
                </g>
            </g>
            <g transform="matrix(1.08845,0,0,1.10562,1250.2,155.708)">
                <text x="770px" y="815.917px" style="font-family:'SymbolMT', 'Symbol', serif;font-size:84.167px;fill-opacity:0.77;"></text>
                <text x="804.604px" y="843.944px" style="font-family:'SymbolMT', 'Symbol', serif;font-size:49.069px;fill-opacity:0.77;">23</text>
            </g>
            <g transform="matrix(1.08845,0,0,1.10562,803.625,1230.37)">
                <text x="770px" y="815.917px" style="font-family:'SymbolMT', 'Symbol', serif;font-size:84.167px;fill-opacity:0.77;"></text>
                <text x="804.604px" y="843.944px" style="font-family:'SymbolMT', 'Symbol', serif;font-size:49.069px;fill-opacity:0.77;">21</text>
            </g>
            <g transform="matrix(1.08845,0,0,1.10562,-189.829,186.665)">
                <text x="773px" y="1125.92px" style="font-family:'SymbolMT', 'Symbol', serif;font-size:84.167px;fill-opacity:0.77;"></text>
                <text x="826.097px" y="1153.94px" style="font-family:'SymbolMT', 'Symbol', serif;font-size:49.069px;fill-opacity:0.77;">1</text>
            </g>
            <g transform="matrix(1.08845,0,0,1.10562,434.943,754.956)">
                <text x="773px" y="1125.92px" style="font-family:'SymbolMT', 'Symbol', serif;font-size:84.167px;fill-opacity:0.77;"></text>
                <text x="826.097px" y="1153.94px" style="font-family:'SymbolMT', 'Symbol', serif;font-size:49.069px;fill-opacity:0.77;">2</text>
            </g>
            <g transform="matrix(1.08845,0,0,1.10562,900.897,597.957)">
                <text x="773px" y="1125.92px" style="font-family:'SymbolMT', 'Symbol', serif;font-size:84.167px;fill-opacity:0.77;"></text>
                <text x="819.193px" y="1153.94px" style="font-family:'SymbolMT', 'Symbol', serif;font-size:49.069px;fill-opacity:0.77;">1</text>
            </g>
            <g transform="matrix(1.08845,0,0,1.10562,1122.94,166.764)">
                <text x="773px" y="1125.92px" style="font-family:'SymbolMT', 'Symbol', serif;font-size:84.167px;fill-opacity:0.77;"></text>
                <text x="819.193px" y="1153.94px" style="font-family:'SymbolMT', 'Symbol', serif;font-size:49.069px;fill-opacity:0.77;">2</text>
            </g>
            <g transform="matrix(1.08845,0,0,1.10562,946.612,-325.239)">
                <text x="773px" y="1125.92px" style="font-family:'SymbolMT', 'Symbol', serif;font-size:84.167px;fill-opacity:0.77;"></text>
                <text x="819.193px" y="1153.94px" style="font-family:'SymbolMT', 'Symbol', serif;font-size:49.069px;fill-opacity:0.77;">3</text>
            </g>
            <g transform="matrix(1.08845,0,0,1.10562,433.95,-505.455)">
                <text x="773px" y="1125.92px" style="font-family:'SymbolMT', 'Symbol', serif;font-size:84.167px;fill-opacity:0.77;"></text>
                <text x="819.193px" y="1153.94px" style="font-family:'SymbolMT', 'Symbol', serif;font-size:49.069px;fill-opacity:0.77;">4</text>
            </g>
            <g transform="matrix(-0.759937,0.129837,0.143497,0.866596,1386.85,857.91)">
                <g transform="matrix(-1.39289,0.208688,0.234282,1.24072,982.397,-482.879)">
                    <path d="M344.642,1277.31L319.774,1357.39L270.631,1289.45C292.168,1304.92 329.174,1298.85 344.642,1277.31Z" style="fill:rgb(117,117,117);"/>
                    <path d="M235.8,1203.87C276.4,1223.28 298.549,1256.7 310.064,1298.18" style="fill:none;stroke:rgb(117,117,117);stroke-width:25px;"/>
                </g>
            </g>
            <g transform="matrix(-0.268718,0.733635,0.720208,0.272189,1104.88,1089.26)">
                <g transform="matrix(-0.492533,1.32753,1.3238,0.493924,-383.737,-884.462)">
                    <path d="M1060.52,1291.22L1118.42,1351.87L1035.16,1361.8C1059.14,1350.49 1071.82,1315.2 1060.52,1291.22Z" style="fill:rgb(117,117,117);"/>
                    <path d="M960.794,1354.41C993.139,1329.49 1027.07,1324.53 1061.95,1331.58" style="fill:none;stroke:rgb(117,117,117);stroke-width:25px;"/>
                </g>
            </g>
            <g transform="matrix(1.09318,0,0,1.09191,-89.1249,-120.66)">
                <g transform="matrix(-0.30593,1.82143,-1.01517,-0.176342,3102.78,-868.857)">
                    <path d="M1232,730C1251.33,813.667 1270.67,897.333 1290,981" style="fill:none;stroke:white;stroke-opacity:0.51;stroke-width:2.81px;"/>
                </g>
                <g transform="matrix(0.0887979,1.36653,-1.06361,0.0714781,2629.48,-576.457)">
                    <path d="M1232,730C1251.33,813.667 1270.67,897.333 1290,981" style="fill:none;stroke:white;stroke-opacity:0.51;stroke-width:3.42px;"/>
                </g>
                <g transform="matrix(-0.0649354,2.2873,-0.990582,-0.0290841,2737.93,-1712.8)">
                    <path d="M1232,730C1251.33,813.667 1270.67,897.333 1290,981" style="fill:none;stroke:white;stroke-opacity:0.51;stroke-width:2.39px;"/>
                </g>
                <g transform="matrix(0.0345381,2.63573,-0.937926,0.0127108,2536.9,-2251.6)">
                    <path d="M1232,730C1251.33,813.667 1270.67,897.333 1290,981" style="fill:none;stroke:white;stroke-opacity:0.51;stroke-width:2.13px;"/>
                </g>
            </g>
            <g transform="matrix(1.09318,0,0,1.09191,-89.1249,-120.66)">
                <g transform="matrix(1.06364,1.76037,-0.797773,0.498561,945.513,-1741.32)">
                    <path d="M1232,730C1251.33,813.667 1270.67,897.333 1290,981" style="fill:none;stroke:white;stroke-opacity:0.51;stroke-width:2.62px;"/>
                </g>
                <g transform="matrix(1.06653,1.08291,-0.692863,0.705682,790.9,-1098.59)">
                    <path d="M1232,730C1251.33,813.667 1270.67,897.333 1290,981" style="fill:none;stroke:white;stroke-opacity:0.51;stroke-width:3.26px;"/>
                </g>
                <g transform="matrix(1.5158,1.86273,-0.670343,0.564156,137.042,-1988.42)">
                    <path d="M1232,730C1251.33,813.667 1270.67,897.333 1290,981" style="fill:none;stroke:white;stroke-opacity:0.51;stroke-width:2.32px;"/>
                </g>
                <g transform="matrix(1.86432,2.10365,-0.588853,0.539701,-439.521,-2287.76)">
                    <path d="M1232,730C1251.33,813.667 1270.67,897.333 1290,981" style="fill:none;stroke:white;stroke-opacity:0.51;stroke-width:2.03px;"/>
                </g>
            </g>
            <g transform="matrix(1.08845,0,0,1.10562,782.16,-275.486)">
                <text x="770px" y="815.917px" style="font-family:'SymbolMT', 'Symbol', serif;font-size:84.167px;fill-opacity:0.77;"></text>
                <text x="804.604px" y="843.944px" style="font-family:'SymbolMT', 'Symbol', serif;font-size:49.069px;fill-opacity:0.77;">24</text>
            </g>
            <g transform="matrix(0.667634,-0.390918,-0.442401,-0.779586,1521.69,1894.28)">
                <g transform="matrix(1.22371,-0.613619,-0.705386,-1.06451,-222.028,1813.87)">
                    <path d="M886.921,87.829L882.496,4.093L952.139,50.795C926.576,43.749 893.967,62.266 886.921,87.829Z" style="fill:rgb(117,117,117);"/>
                    <path d="M1016.72,122.117C971.097,117.496 938.023,92.662 912.123,56.268" style="fill:none;stroke:rgb(117,117,117);stroke-width:25px;"/>
                </g>
            </g>
            <g transform="matrix(0.309369,0.71692,0.707574,-0.315045,981.88,1366.36)">
                <g transform="matrix(0.567041,1.29036,1.29363,-0.565608,-1149.34,-78.1683)">
                    <path d="M1361.01,912.725L1444.8,916.087L1391.84,981.098C1401.22,956.299 1385.81,922.112 1361.01,912.725Z" style="fill:rgb(117,117,117);"/>
                    <path d="M1332.6,1027.88C1338.63,987.306 1359.81,960.035 1390.1,940.747" style="fill:none;stroke:rgb(117,117,117);stroke-width:25px;"/>
                </g>
            </g>
            <g transform="matrix(1.99927,1.74851,-1.66094,1.95953,1271.21,-2883.51)">
                <g transform="matrix(0.312653,-0.278985,0.269193,0.324026,638.985,1190.72)">
                    <path d="M353.516,440.443L278.844,478.592L293.128,395.965C297.106,422.182 327.3,444.421 353.516,440.443Z" style="fill:rgb(238,199,66);"/>
                    <path d="M745.025,238.048C556.704,206.225 423.218,291.796 314.427,430.282" style="fill:none;stroke:rgb(238,199,66);stroke-width:25px;"/>
                </g>
            </g>
            <g transform="matrix(1.79857,-2.00382,1.9751,1.82916,-2933.96,1267.34)">
                <g transform="matrix(0.274705,0.300935,-0.301301,0.274372,1075.44,795.254)">
                    <path d="M457.67,1105.87L493.581,1181.64L411.416,1164.91C437.739,1161.71 460.866,1132.19 457.67,1105.87Z" style="fill:rgb(238,199,66);"/>
                    <path d="M249.992,690.721C214.982,883.853 303.099,1025.71 446.351,1144.64" style="fill:none;stroke:rgb(238,199,66);stroke-width:25px;"/>
                </g>
            </g>
            <g transform="matrix(-0.386504,-1.03357,1.73741,-0.670365,-273.128,3558.12)">
                <g transform="matrix(-0.355094,0.547485,-0.934831,-0.207962,2253.67,987.203)">
                    <path d="M861.196,1131.87L944.875,1137.27L890.352,1200.97C900.339,1176.41 885.76,1141.86 861.196,1131.87Z" style="fill:rgb(238,199,66);"/>
                    <path d="M584.098,1187.66C671.569,1223.52 776.449,1204.95 889.594,1160.59" style="fill:none;stroke:rgb(238,199,66);stroke-width:25px;"/>
                </g>
            </g>
            <g transform="matrix(-1.50492,-0.477811,0.491525,-1.59734,2522.97,3934.7)">
                <g transform="matrix(-0.65889,0.197093,-0.205948,-0.630559,1808.92,1567.21)">
                    <path d="M1128.97,907.974L1183.8,844.535L1201.65,926.466C1188.1,903.672 1151.76,894.426 1128.97,907.974Z" style="fill:rgb(238,199,66);"/>
                    <path d="M977.878,1110.04C1083.17,1080.17 1138.26,1002.92 1169.01,902.683" style="fill:none;stroke:rgb(238,199,66);stroke-width:25px;"/>
                </g>
            </g>
            <g transform="matrix(-1.31335,0.835922,-0.88435,-1.43362,4038.59,2205.91)">
                <g transform="matrix(-0.595108,-0.346998,0.372892,-0.553783,1343.14,1926.36)">
                    <path d="M1136.35,567.529L1123.91,484.605L1197.71,524.405C1171.59,519.846 1140.91,541.408 1136.35,567.529Z" style="fill:rgb(238,199,66);"/>
                    <path d="M1195.17,815.552C1239.38,716.22 1215.4,623.389 1158.4,533.695" style="fill:none;stroke:rgb(238,199,66);stroke-width:25px;"/>
                </g>
            </g>
            <g transform="matrix(-0.402194,1.27726,-1.69977,-0.552256,3953.65,452.223)">
                <g transform="matrix(-0.251176,-0.580922,0.785281,-0.185811,862.116,1786.07)">
                    <path d="M874.223,306.397L811.669,250.555L893.874,234.017C870.866,247.199 861.041,283.389 874.223,306.397Z" style="fill:rgb(238,199,66);"/>
                    <path d="M1106.56,448.025C1067.55,353.866 980.124,300.366 869.573,266.277" style="fill:none;stroke:rgb(238,199,66);stroke-width:25px;"/>
                </g>
            </g>
        </g>
    </g>
</svg>
